<?xml version="1.0" encoding="utf-8" standalone="no"?>
<!DOCTYPE svg PUBLIC "-//W3C//DTD SVG 1.1//EN"
  "http://www.w3.org/Graphics/SVG/1.1/DTD/svg11.dtd">
<!-- Created with matplotlib (http://matplotlib.org/) -->
<svg height="432pt" version="1.1" viewBox="0 0 576 432" width="576pt" xmlns="http://www.w3.org/2000/svg" xmlns:xlink="http://www.w3.org/1999/xlink">
 <defs>
  <style type="text/css">
*{stroke-linecap:butt;stroke-linejoin:round;stroke-miterlimit:100000;}
  </style>
 </defs>
 <g id="figure_1">
  <g id="patch_1">
   <path d="M 0 432 
L 576 432 
L 576 0 
L 0 0 
z
" style="fill:#ffffff;"/>
  </g>
  <g id="axes_1">
   <g id="patch_2">
    <path d="M 72 388.8 
L 518.4 388.8 
L 518.4 43.2 
L 72 43.2 
z
" style="fill:#ffffff;"/>
   </g>
   <g id="LineCollection_1">
    <path clip-path="url(#pd571cddb3d)" d="M 92.290909 371.043931 
L 92.290909 370.926961 
" style="fill:none;stroke:#0000ff;"/>
    <path clip-path="url(#pd571cddb3d)" d="M 295.2 370.646876 
L 295.2 370.583206 
" style="fill:none;stroke:#0000ff;"/>
    <path clip-path="url(#pd571cddb3d)" d="M 498.109091 363.362892 
L 498.109091 361.99824 
" style="fill:none;stroke:#0000ff;"/>
   </g>
   <g id="LineCollection_2">
    <path clip-path="url(#pd571cddb3d)" d="M 92.290909 371.373433 
L 92.290909 371.000358 
" style="fill:none;stroke:#008000;"/>
    <path clip-path="url(#pd571cddb3d)" d="M 295.2 370.693021 
L 295.2 370.10817 
" style="fill:none;stroke:#008000;"/>
    <path clip-path="url(#pd571cddb3d)" d="M 498.109091 360.88386 
L 498.109091 360.01941 
" style="fill:none;stroke:#008000;"/>
   </g>
   <g id="LineCollection_3">
    <path clip-path="url(#pd571cddb3d)" d="M 92.290909 371.566459 
L 92.290909 371.119252 
" style="fill:none;stroke:#ff0000;"/>
    <path clip-path="url(#pd571cddb3d)" d="M 295.2 356.539633 
L 295.2 354.00528 
" style="fill:none;stroke:#ff0000;"/>
    <path clip-path="url(#pd571cddb3d)" d="M 498.109091 171.452562 
L 498.109091 171.195241 
" style="fill:none;stroke:#ff0000;"/>
   </g>
   <g id="LineCollection_4">
    <path clip-path="url(#pd571cddb3d)" d="M 92.290909 373.266364 
L 92.290909 372.915454 
" style="fill:none;stroke:#00bfbf;"/>
    <path clip-path="url(#pd571cddb3d)" d="M 295.2 371.441316 
L 295.2 371.140421 
" style="fill:none;stroke:#00bfbf;"/>
    <path clip-path="url(#pd571cddb3d)" d="M 498.109091 357.709335 
L 498.109091 357.514384 
" style="fill:none;stroke:#00bfbf;"/>
   </g>
   <g id="LineCollection_5">
    <path clip-path="url(#pd571cddb3d)" d="M 92.290909 363.487021 
L 92.290909 360.483466 
" style="fill:none;stroke:#bf00bf;"/>
    <path clip-path="url(#pd571cddb3d)" d="M 295.2 352.211738 
L 295.2 350.301225 
" style="fill:none;stroke:#bf00bf;"/>
    <path clip-path="url(#pd571cddb3d)" d="M 498.109091 212.734645 
L 498.109091 210.180673 
" style="fill:none;stroke:#bf00bf;"/>
   </g>
   <g id="LineCollection_6">
    <path clip-path="url(#pd571cddb3d)" d="M 92.290909 369.406349 
L 92.290909 368.548568 
" style="fill:none;stroke:#bfbf00;"/>
    <path clip-path="url(#pd571cddb3d)" d="M 295.2 364.961234 
L 295.2 363.610079 
" style="fill:none;stroke:#bfbf00;"/>
    <path clip-path="url(#pd571cddb3d)" d="M 498.109091 322.5793 
L 498.109091 320.941718 
" style="fill:none;stroke:#bfbf00;"/>
   </g>
   <g id="LineCollection_7">
    <path clip-path="url(#pd571cddb3d)" d="M 92.290909 369.64029 
L 92.290909 368.431598 
" style="fill:none;stroke:#000000;"/>
    <path clip-path="url(#pd571cddb3d)" d="M 295.2 345.403925 
L 295.2 344.229324 
" style="fill:none;stroke:#000000;"/>
    <path clip-path="url(#pd571cddb3d)" d="M 498.109091 65.439924 
L 498.109091 52.378258 
" style="fill:none;stroke:#000000;"/>
   </g>
   <g id="line2d_1">
    <defs>
     <path d="M 3 0 
L -3 -0 
" id="mdd65ac6181" style="stroke:#0000ff;stroke-width:0.5;"/>
    </defs>
    <g clip-path="url(#pd571cddb3d)">
     <use style="fill:#0000ff;stroke:#0000ff;stroke-width:0.5;" x="92.2909090909" xlink:href="#mdd65ac6181" y="371.043931497"/>
     <use style="fill:#0000ff;stroke:#0000ff;stroke-width:0.5;" x="295.2" xlink:href="#mdd65ac6181" y="370.646876195"/>
     <use style="fill:#0000ff;stroke:#0000ff;stroke-width:0.5;" x="498.109090909" xlink:href="#mdd65ac6181" y="363.362891762"/>
    </g>
   </g>
   <g id="line2d_2">
    <g clip-path="url(#pd571cddb3d)">
     <use style="fill:#0000ff;stroke:#0000ff;stroke-width:0.5;" x="92.2909090909" xlink:href="#mdd65ac6181" y="370.926961348"/>
     <use style="fill:#0000ff;stroke:#0000ff;stroke-width:0.5;" x="295.2" xlink:href="#mdd65ac6181" y="370.583205711"/>
     <use style="fill:#0000ff;stroke:#0000ff;stroke-width:0.5;" x="498.109090909" xlink:href="#mdd65ac6181" y="361.998240032"/>
    </g>
   </g>
   <g id="line2d_3">
    <path clip-path="url(#pd571cddb3d)" d="M 92.290909 370.985446 
L 295.2 370.615041 
L 498.109091 362.680566 
" style="fill:none;stroke:#0000ff;stroke-linecap:square;"/>
   </g>
   <g id="line2d_4">
    <defs>
     <path d="M 3 0 
L -3 -0 
" id="m5e554f8472" style="stroke:#008000;stroke-width:0.5;"/>
    </defs>
    <g clip-path="url(#pd571cddb3d)">
     <use style="fill:#008000;stroke:#008000;stroke-width:0.5;" x="92.2909090909" xlink:href="#m5e554f8472" y="371.373432506"/>
     <use style="fill:#008000;stroke:#008000;stroke-width:0.5;" x="295.2" xlink:href="#m5e554f8472" y="370.693021052"/>
     <use style="fill:#008000;stroke:#008000;stroke-width:0.5;" x="498.109090909" xlink:href="#m5e554f8472" y="360.883859949"/>
    </g>
   </g>
   <g id="line2d_5">
    <g clip-path="url(#pd571cddb3d)">
     <use style="fill:#008000;stroke:#008000;stroke-width:0.5;" x="92.2909090909" xlink:href="#m5e554f8472" y="371.000357516"/>
     <use style="fill:#008000;stroke:#008000;stroke-width:0.5;" x="295.2" xlink:href="#m5e554f8472" y="370.108170311"/>
     <use style="fill:#008000;stroke:#008000;stroke-width:0.5;" x="498.109090909" xlink:href="#m5e554f8472" y="360.019409529"/>
    </g>
   </g>
   <g id="line2d_6">
    <path clip-path="url(#pd571cddb3d)" d="M 92.290909 371.186895 
L 295.2 370.400596 
L 498.109091 360.451635 
" style="fill:none;stroke:#008000;stroke-linecap:square;"/>
   </g>
   <g id="line2d_7">
    <defs>
     <path d="M 3 0 
L -3 -0 
" id="mc15885dbfa" style="stroke:#ff0000;stroke-width:0.5;"/>
    </defs>
    <g clip-path="url(#pd571cddb3d)">
     <use style="fill:#ff0000;stroke:#ff0000;stroke-width:0.5;" x="92.2909090909" xlink:href="#mc15885dbfa" y="371.5664586"/>
     <use style="fill:#ff0000;stroke:#ff0000;stroke-width:0.5;" x="295.2" xlink:href="#mc15885dbfa" y="356.539633114"/>
     <use style="fill:#ff0000;stroke:#ff0000;stroke-width:0.5;" x="498.109090909" xlink:href="#mc15885dbfa" y="171.452562312"/>
    </g>
   </g>
   <g id="line2d_8">
    <g clip-path="url(#pd571cddb3d)">
     <use style="fill:#ff0000;stroke:#ff0000;stroke-width:0.5;" x="92.2909090909" xlink:href="#mc15885dbfa" y="371.119251817"/>
     <use style="fill:#ff0000;stroke:#ff0000;stroke-width:0.5;" x="295.2" xlink:href="#mc15885dbfa" y="354.005279903"/>
     <use style="fill:#ff0000;stroke:#ff0000;stroke-width:0.5;" x="498.109090909" xlink:href="#mc15885dbfa" y="171.195241114"/>
    </g>
   </g>
   <g id="line2d_9">
    <path clip-path="url(#pd571cddb3d)" d="M 92.290909 371.342855 
L 295.2 355.272457 
L 498.109091 171.323902 
" style="fill:none;stroke:#ff0000;stroke-linecap:square;"/>
   </g>
   <g id="line2d_10">
    <defs>
     <path d="M 3 0 
L -3 -0 
" id="m7850dc89cb" style="stroke:#00bfbf;stroke-width:0.5;"/>
    </defs>
    <g clip-path="url(#pd571cddb3d)">
     <use style="fill:#00bfbf;stroke:#00bfbf;stroke-width:0.5;" x="92.2909090909" xlink:href="#m7850dc89cb" y="373.266364313"/>
     <use style="fill:#00bfbf;stroke:#00bfbf;stroke-width:0.5;" x="295.2" xlink:href="#m7850dc89cb" y="371.441315961"/>
     <use style="fill:#00bfbf;stroke:#00bfbf;stroke-width:0.5;" x="498.109090909" xlink:href="#m7850dc89cb" y="357.709334597"/>
    </g>
   </g>
   <g id="line2d_11">
    <g clip-path="url(#pd571cddb3d)">
     <use style="fill:#00bfbf;stroke:#00bfbf;stroke-width:0.5;" x="92.2909090909" xlink:href="#m7850dc89cb" y="372.915453869"/>
     <use style="fill:#00bfbf;stroke:#00bfbf;stroke-width:0.5;" x="295.2" xlink:href="#m7850dc89cb" y="371.140420992"/>
     <use style="fill:#00bfbf;stroke:#00bfbf;stroke-width:0.5;" x="498.109090909" xlink:href="#m7850dc89cb" y="357.51438435"/>
    </g>
   </g>
   <g id="line2d_12">
    <path clip-path="url(#pd571cddb3d)" d="M 92.290909 373.090909 
L 295.2 371.290868 
L 498.109091 357.611859 
" style="fill:none;stroke:#00bfbf;stroke-linecap:square;"/>
   </g>
   <g id="line2d_13">
    <defs>
     <path d="M 3 0 
L -3 -0 
" id="m08ed9ec58f" style="stroke:#bf00bf;stroke-width:0.5;"/>
    </defs>
    <g clip-path="url(#pd571cddb3d)">
     <use style="fill:#bf00bf;stroke:#bf00bf;stroke-width:0.5;" x="92.2909090909" xlink:href="#m08ed9ec58f" y="363.487021193"/>
     <use style="fill:#bf00bf;stroke:#bf00bf;stroke-width:0.5;" x="295.2" xlink:href="#m08ed9ec58f" y="352.211737629"/>
     <use style="fill:#bf00bf;stroke:#bf00bf;stroke-width:0.5;" x="498.109090909" xlink:href="#m08ed9ec58f" y="212.734645367"/>
    </g>
   </g>
   <g id="line2d_14">
    <g clip-path="url(#pd571cddb3d)">
     <use style="fill:#bf00bf;stroke:#bf00bf;stroke-width:0.5;" x="92.2909090909" xlink:href="#m08ed9ec58f" y="360.483465506"/>
     <use style="fill:#bf00bf;stroke:#bf00bf;stroke-width:0.5;" x="295.2" xlink:href="#m08ed9ec58f" y="350.301225208"/>
     <use style="fill:#bf00bf;stroke:#bf00bf;stroke-width:0.5;" x="498.109090909" xlink:href="#m08ed9ec58f" y="210.180673119"/>
    </g>
   </g>
   <g id="line2d_15">
    <path clip-path="url(#pd571cddb3d)" d="M 92.290909 361.985243 
L 295.2 351.256481 
L 498.109091 211.457659 
" style="fill:none;stroke:#bf00bf;stroke-linecap:square;"/>
   </g>
   <g id="line2d_16">
    <defs>
     <path d="M 3 0 
L -3 -0 
" id="mac3a93cc10" style="stroke:#bfbf00;stroke-width:0.5;"/>
    </defs>
    <g clip-path="url(#pd571cddb3d)">
     <use style="fill:#bfbf00;stroke:#bfbf00;stroke-width:0.5;" x="92.2909090909" xlink:href="#mac3a93cc10" y="369.406349421"/>
     <use style="fill:#bfbf00;stroke:#bfbf00;stroke-width:0.5;" x="295.2" xlink:href="#mac3a93cc10" y="364.961233806"/>
     <use style="fill:#bfbf00;stroke:#bfbf00;stroke-width:0.5;" x="498.109090909" xlink:href="#mac3a93cc10" y="322.579300074"/>
    </g>
   </g>
   <g id="line2d_17">
    <g clip-path="url(#pd571cddb3d)">
     <use style="fill:#bfbf00;stroke:#bfbf00;stroke-width:0.5;" x="92.2909090909" xlink:href="#mac3a93cc10" y="368.548568334"/>
     <use style="fill:#bfbf00;stroke:#bfbf00;stroke-width:0.5;" x="295.2" xlink:href="#mac3a93cc10" y="363.610078724"/>
     <use style="fill:#bfbf00;stroke:#bfbf00;stroke-width:0.5;" x="498.109090909" xlink:href="#mac3a93cc10" y="320.941717999"/>
    </g>
   </g>
   <g id="line2d_18">
    <path clip-path="url(#pd571cddb3d)" d="M 92.290909 368.977459 
L 295.2 364.285656 
L 498.109091 321.760509 
" style="fill:none;stroke:#bfbf00;stroke-linecap:square;"/>
   </g>
   <g id="line2d_19">
    <defs>
     <path d="M 3 0 
L -3 -0 
" id="m6fd92e5dcb" style="stroke:#000000;stroke-width:0.5;"/>
    </defs>
    <g clip-path="url(#pd571cddb3d)">
     <use style="stroke:#000000;stroke-width:0.5;" x="92.2909090909" xlink:href="#m6fd92e5dcb" y="369.640289718"/>
     <use style="stroke:#000000;stroke-width:0.5;" x="295.2" xlink:href="#m6fd92e5dcb" y="345.403925463"/>
     <use style="stroke:#000000;stroke-width:0.5;" x="498.109090909" xlink:href="#m6fd92e5dcb" y="65.439924186"/>
    </g>
   </g>
   <g id="line2d_20">
    <g clip-path="url(#pd571cddb3d)">
     <use style="stroke:#000000;stroke-width:0.5;" x="92.2909090909" xlink:href="#m6fd92e5dcb" y="368.431598186"/>
     <use style="stroke:#000000;stroke-width:0.5;" x="295.2" xlink:href="#m6fd92e5dcb" y="344.229324384"/>
     <use style="stroke:#000000;stroke-width:0.5;" x="498.109090909" xlink:href="#m6fd92e5dcb" y="52.3782576322"/>
    </g>
   </g>
   <g id="line2d_21">
    <path clip-path="url(#pd571cddb3d)" d="M 92.290909 369.035944 
L 295.2 344.816625 
L 498.109091 58.909091 
" style="fill:none;stroke:#000000;stroke-linecap:square;"/>
   </g>
   <g id="patch_3">
    <path d="M 72 43.2 
L 518.4 43.2 
" style="fill:none;stroke:#000000;stroke-linecap:square;stroke-linejoin:miter;"/>
   </g>
   <g id="patch_4">
    <path d="M 72 388.8 
L 72 43.2 
" style="fill:none;stroke:#000000;stroke-linecap:square;stroke-linejoin:miter;"/>
   </g>
   <g id="patch_5">
    <path d="M 72 388.8 
L 518.4 388.8 
" style="fill:none;stroke:#000000;stroke-linecap:square;stroke-linejoin:miter;"/>
   </g>
   <g id="patch_6">
    <path d="M 518.4 388.8 
L 518.4 43.2 
" style="fill:none;stroke:#000000;stroke-linecap:square;stroke-linejoin:miter;"/>
   </g>
   <g id="matplotlib.axis_1">
    <g id="xtick_1">
     <g id="line2d_22">
      <path clip-path="url(#pd571cddb3d)" d="M 92.290909 388.8 
L 92.290909 43.2 
" style="fill:none;stroke:#000000;stroke-dasharray:1.000000,3.000000;stroke-dashoffset:0.0;stroke-width:0.5;"/>
     </g>
     <g id="line2d_23">
      <defs>
       <path d="M 0 0 
L 0 -4 
" id="m4282534773" style="stroke:#000000;stroke-width:0.5;"/>
      </defs>
      <g>
       <use style="stroke:#000000;stroke-width:0.5;" x="92.2909090909" xlink:href="#m4282534773" y="388.8"/>
      </g>
     </g>
     <g id="line2d_24">
      <defs>
       <path d="M 0 0 
L 0 4 
" id="m98ff0354f7" style="stroke:#000000;stroke-width:0.5;"/>
      </defs>
      <g>
       <use style="stroke:#000000;stroke-width:0.5;" x="92.2909090909" xlink:href="#m98ff0354f7" y="43.2"/>
      </g>
     </g>
     <g id="text_1">
      <!-- 8 -->
      <defs>
       <path d="M 31.78125 34.625 
Q 24.75 34.625 20.71875 30.859375 
Q 16.703125 27.09375 16.703125 20.515625 
Q 16.703125 13.921875 20.71875 10.15625 
Q 24.75 6.390625 31.78125 6.390625 
Q 38.8125 6.390625 42.859375 10.171875 
Q 46.921875 13.96875 46.921875 20.515625 
Q 46.921875 27.09375 42.890625 30.859375 
Q 38.875 34.625 31.78125 34.625 
M 21.921875 38.8125 
Q 15.578125 40.375 12.03125 44.71875 
Q 8.5 49.078125 8.5 55.328125 
Q 8.5 64.0625 14.71875 69.140625 
Q 20.953125 74.21875 31.78125 74.21875 
Q 42.671875 74.21875 48.875 69.140625 
Q 55.078125 64.0625 55.078125 55.328125 
Q 55.078125 49.078125 51.53125 44.71875 
Q 48 40.375 41.703125 38.8125 
Q 48.828125 37.15625 52.796875 32.3125 
Q 56.78125 27.484375 56.78125 20.515625 
Q 56.78125 9.90625 50.3125 4.234375 
Q 43.84375 -1.421875 31.78125 -1.421875 
Q 19.734375 -1.421875 13.25 4.234375 
Q 6.78125 9.90625 6.78125 20.515625 
Q 6.78125 27.484375 10.78125 32.3125 
Q 14.796875 37.15625 21.921875 38.8125 
M 18.3125 54.390625 
Q 18.3125 48.734375 21.84375 45.5625 
Q 25.390625 42.390625 31.78125 42.390625 
Q 38.140625 42.390625 41.71875 45.5625 
Q 45.3125 48.734375 45.3125 54.390625 
Q 45.3125 60.0625 41.71875 63.234375 
Q 38.140625 66.40625 31.78125 66.40625 
Q 25.390625 66.40625 21.84375 63.234375 
Q 18.3125 60.0625 18.3125 54.390625 
" id="BitstreamVeraSans-Roman-38"/>
      </defs>
      <g transform="translate(88.4734090909 401.918125)scale(0.12 -0.12)">
       <use xlink:href="#BitstreamVeraSans-Roman-38"/>
      </g>
     </g>
    </g>
    <g id="xtick_2">
     <g id="line2d_25">
      <path clip-path="url(#pd571cddb3d)" d="M 295.2 388.8 
L 295.2 43.2 
" style="fill:none;stroke:#000000;stroke-dasharray:1.000000,3.000000;stroke-dashoffset:0.0;stroke-width:0.5;"/>
     </g>
     <g id="line2d_26">
      <g>
       <use style="stroke:#000000;stroke-width:0.5;" x="295.2" xlink:href="#m4282534773" y="388.8"/>
      </g>
     </g>
     <g id="line2d_27">
      <g>
       <use style="stroke:#000000;stroke-width:0.5;" x="295.2" xlink:href="#m98ff0354f7" y="43.2"/>
      </g>
     </g>
     <g id="text_2">
      <!-- 9 -->
      <defs>
       <path d="M 10.984375 1.515625 
L 10.984375 10.5 
Q 14.703125 8.734375 18.5 7.8125 
Q 22.3125 6.890625 25.984375 6.890625 
Q 35.75 6.890625 40.890625 13.453125 
Q 46.046875 20.015625 46.78125 33.40625 
Q 43.953125 29.203125 39.59375 26.953125 
Q 35.25 24.703125 29.984375 24.703125 
Q 19.046875 24.703125 12.671875 31.3125 
Q 6.296875 37.9375 6.296875 49.421875 
Q 6.296875 60.640625 12.9375 67.421875 
Q 19.578125 74.21875 30.609375 74.21875 
Q 43.265625 74.21875 49.921875 64.515625 
Q 56.59375 54.828125 56.59375 36.375 
Q 56.59375 19.140625 48.40625 8.859375 
Q 40.234375 -1.421875 26.421875 -1.421875 
Q 22.703125 -1.421875 18.890625 -0.6875 
Q 15.09375 0.046875 10.984375 1.515625 
M 30.609375 32.421875 
Q 37.25 32.421875 41.125 36.953125 
Q 45.015625 41.5 45.015625 49.421875 
Q 45.015625 57.28125 41.125 61.84375 
Q 37.25 66.40625 30.609375 66.40625 
Q 23.96875 66.40625 20.09375 61.84375 
Q 16.21875 57.28125 16.21875 49.421875 
Q 16.21875 41.5 20.09375 36.953125 
Q 23.96875 32.421875 30.609375 32.421875 
" id="BitstreamVeraSans-Roman-39"/>
      </defs>
      <g transform="translate(291.3825 401.918125)scale(0.12 -0.12)">
       <use xlink:href="#BitstreamVeraSans-Roman-39"/>
      </g>
     </g>
    </g>
    <g id="xtick_3">
     <g id="line2d_28">
      <path clip-path="url(#pd571cddb3d)" d="M 498.109091 388.8 
L 498.109091 43.2 
" style="fill:none;stroke:#000000;stroke-dasharray:1.000000,3.000000;stroke-dashoffset:0.0;stroke-width:0.5;"/>
     </g>
     <g id="line2d_29">
      <g>
       <use style="stroke:#000000;stroke-width:0.5;" x="498.109090909" xlink:href="#m4282534773" y="388.8"/>
      </g>
     </g>
     <g id="line2d_30">
      <g>
       <use style="stroke:#000000;stroke-width:0.5;" x="498.109090909" xlink:href="#m98ff0354f7" y="43.2"/>
      </g>
     </g>
     <g id="text_3">
      <!-- 10 -->
      <defs>
       <path d="M 31.78125 66.40625 
Q 24.171875 66.40625 20.328125 58.90625 
Q 16.5 51.421875 16.5 36.375 
Q 16.5 21.390625 20.328125 13.890625 
Q 24.171875 6.390625 31.78125 6.390625 
Q 39.453125 6.390625 43.28125 13.890625 
Q 47.125 21.390625 47.125 36.375 
Q 47.125 51.421875 43.28125 58.90625 
Q 39.453125 66.40625 31.78125 66.40625 
M 31.78125 74.21875 
Q 44.046875 74.21875 50.515625 64.515625 
Q 56.984375 54.828125 56.984375 36.375 
Q 56.984375 17.96875 50.515625 8.265625 
Q 44.046875 -1.421875 31.78125 -1.421875 
Q 19.53125 -1.421875 13.0625 8.265625 
Q 6.59375 17.96875 6.59375 36.375 
Q 6.59375 54.828125 13.0625 64.515625 
Q 19.53125 74.21875 31.78125 74.21875 
" id="BitstreamVeraSans-Roman-30"/>
       <path d="M 12.40625 8.296875 
L 28.515625 8.296875 
L 28.515625 63.921875 
L 10.984375 60.40625 
L 10.984375 69.390625 
L 28.421875 72.90625 
L 38.28125 72.90625 
L 38.28125 8.296875 
L 54.390625 8.296875 
L 54.390625 0 
L 12.40625 0 
z
" id="BitstreamVeraSans-Roman-31"/>
      </defs>
      <g transform="translate(490.474090909 401.918125)scale(0.12 -0.12)">
       <use xlink:href="#BitstreamVeraSans-Roman-31"/>
       <use x="63.623046875" xlink:href="#BitstreamVeraSans-Roman-30"/>
      </g>
     </g>
    </g>
    <g id="text_4">
     <!-- Execution time in seconds -->
     <defs>
      <path d="M 45.40625 46.390625 
L 45.40625 75.984375 
L 54.390625 75.984375 
L 54.390625 0 
L 45.40625 0 
L 45.40625 8.203125 
Q 42.578125 3.328125 38.25 0.953125 
Q 33.9375 -1.421875 27.875 -1.421875 
Q 17.96875 -1.421875 11.734375 6.484375 
Q 5.515625 14.40625 5.515625 27.296875 
Q 5.515625 40.1875 11.734375 48.09375 
Q 17.96875 56 27.875 56 
Q 33.9375 56 38.25 53.625 
Q 42.578125 51.265625 45.40625 46.390625 
M 14.796875 27.296875 
Q 14.796875 17.390625 18.875 11.75 
Q 22.953125 6.109375 30.078125 6.109375 
Q 37.203125 6.109375 41.296875 11.75 
Q 45.40625 17.390625 45.40625 27.296875 
Q 45.40625 37.203125 41.296875 42.84375 
Q 37.203125 48.484375 30.078125 48.484375 
Q 22.953125 48.484375 18.875 42.84375 
Q 14.796875 37.203125 14.796875 27.296875 
" id="BitstreamVeraSans-Roman-64"/>
      <path d="M 9.421875 54.6875 
L 18.40625 54.6875 
L 18.40625 0 
L 9.421875 0 
z
M 9.421875 75.984375 
L 18.40625 75.984375 
L 18.40625 64.59375 
L 9.421875 64.59375 
z
" id="BitstreamVeraSans-Roman-69"/>
      <path d="M 52 44.1875 
Q 55.375 50.25 60.0625 53.125 
Q 64.75 56 71.09375 56 
Q 79.640625 56 84.28125 50.015625 
Q 88.921875 44.046875 88.921875 33.015625 
L 88.921875 0 
L 79.890625 0 
L 79.890625 32.71875 
Q 79.890625 40.578125 77.09375 44.375 
Q 74.3125 48.1875 68.609375 48.1875 
Q 61.625 48.1875 57.5625 43.546875 
Q 53.515625 38.921875 53.515625 30.90625 
L 53.515625 0 
L 44.484375 0 
L 44.484375 32.71875 
Q 44.484375 40.625 41.703125 44.40625 
Q 38.921875 48.1875 33.109375 48.1875 
Q 26.21875 48.1875 22.15625 43.53125 
Q 18.109375 38.875 18.109375 30.90625 
L 18.109375 0 
L 9.078125 0 
L 9.078125 54.6875 
L 18.109375 54.6875 
L 18.109375 46.1875 
Q 21.1875 51.21875 25.484375 53.609375 
Q 29.78125 56 35.6875 56 
Q 41.65625 56 45.828125 52.96875 
Q 50 49.953125 52 44.1875 
" id="BitstreamVeraSans-Roman-6d"/>
      <path d="M 9.8125 72.90625 
L 55.90625 72.90625 
L 55.90625 64.59375 
L 19.671875 64.59375 
L 19.671875 43.015625 
L 54.390625 43.015625 
L 54.390625 34.71875 
L 19.671875 34.71875 
L 19.671875 8.296875 
L 56.78125 8.296875 
L 56.78125 0 
L 9.8125 0 
z
" id="BitstreamVeraSans-Roman-45"/>
      <path d="M 18.3125 70.21875 
L 18.3125 54.6875 
L 36.8125 54.6875 
L 36.8125 47.703125 
L 18.3125 47.703125 
L 18.3125 18.015625 
Q 18.3125 11.328125 20.140625 9.421875 
Q 21.96875 7.515625 27.59375 7.515625 
L 36.8125 7.515625 
L 36.8125 0 
L 27.59375 0 
Q 17.1875 0 13.234375 3.875 
Q 9.28125 7.765625 9.28125 18.015625 
L 9.28125 47.703125 
L 2.6875 47.703125 
L 2.6875 54.6875 
L 9.28125 54.6875 
L 9.28125 70.21875 
z
" id="BitstreamVeraSans-Roman-74"/>
      <path d="M 44.28125 53.078125 
L 44.28125 44.578125 
Q 40.484375 46.53125 36.375 47.5 
Q 32.28125 48.484375 27.875 48.484375 
Q 21.1875 48.484375 17.84375 46.4375 
Q 14.5 44.390625 14.5 40.28125 
Q 14.5 37.15625 16.890625 35.375 
Q 19.28125 33.59375 26.515625 31.984375 
L 29.59375 31.296875 
Q 39.15625 29.25 43.1875 25.515625 
Q 47.21875 21.78125 47.21875 15.09375 
Q 47.21875 7.46875 41.1875 3.015625 
Q 35.15625 -1.421875 24.609375 -1.421875 
Q 20.21875 -1.421875 15.453125 -0.5625 
Q 10.6875 0.296875 5.421875 2 
L 5.421875 11.28125 
Q 10.40625 8.6875 15.234375 7.390625 
Q 20.0625 6.109375 24.8125 6.109375 
Q 31.15625 6.109375 34.5625 8.28125 
Q 37.984375 10.453125 37.984375 14.40625 
Q 37.984375 18.0625 35.515625 20.015625 
Q 33.0625 21.96875 24.703125 23.78125 
L 21.578125 24.515625 
Q 13.234375 26.265625 9.515625 29.90625 
Q 5.8125 33.546875 5.8125 39.890625 
Q 5.8125 47.609375 11.28125 51.796875 
Q 16.75 56 26.8125 56 
Q 31.78125 56 36.171875 55.265625 
Q 40.578125 54.546875 44.28125 53.078125 
" id="BitstreamVeraSans-Roman-73"/>
      <path d="M 54.890625 33.015625 
L 54.890625 0 
L 45.90625 0 
L 45.90625 32.71875 
Q 45.90625 40.484375 42.875 44.328125 
Q 39.84375 48.1875 33.796875 48.1875 
Q 26.515625 48.1875 22.3125 43.546875 
Q 18.109375 38.921875 18.109375 30.90625 
L 18.109375 0 
L 9.078125 0 
L 9.078125 54.6875 
L 18.109375 54.6875 
L 18.109375 46.1875 
Q 21.34375 51.125 25.703125 53.5625 
Q 30.078125 56 35.796875 56 
Q 45.21875 56 50.046875 50.171875 
Q 54.890625 44.34375 54.890625 33.015625 
" id="BitstreamVeraSans-Roman-6e"/>
      <path d="M 56.203125 29.59375 
L 56.203125 25.203125 
L 14.890625 25.203125 
Q 15.484375 15.921875 20.484375 11.0625 
Q 25.484375 6.203125 34.421875 6.203125 
Q 39.59375 6.203125 44.453125 7.46875 
Q 49.3125 8.734375 54.109375 11.28125 
L 54.109375 2.78125 
Q 49.265625 0.734375 44.1875 -0.34375 
Q 39.109375 -1.421875 33.890625 -1.421875 
Q 20.796875 -1.421875 13.15625 6.1875 
Q 5.515625 13.8125 5.515625 26.8125 
Q 5.515625 40.234375 12.765625 48.109375 
Q 20.015625 56 32.328125 56 
Q 43.359375 56 49.78125 48.890625 
Q 56.203125 41.796875 56.203125 29.59375 
M 47.21875 32.234375 
Q 47.125 39.59375 43.09375 43.984375 
Q 39.0625 48.390625 32.421875 48.390625 
Q 24.90625 48.390625 20.390625 44.140625 
Q 15.875 39.890625 15.1875 32.171875 
z
" id="BitstreamVeraSans-Roman-65"/>
      <path d="M 48.78125 52.59375 
L 48.78125 44.1875 
Q 44.96875 46.296875 41.140625 47.34375 
Q 37.3125 48.390625 33.40625 48.390625 
Q 24.65625 48.390625 19.8125 42.84375 
Q 14.984375 37.3125 14.984375 27.296875 
Q 14.984375 17.28125 19.8125 11.734375 
Q 24.65625 6.203125 33.40625 6.203125 
Q 37.3125 6.203125 41.140625 7.25 
Q 44.96875 8.296875 48.78125 10.40625 
L 48.78125 2.09375 
Q 45.015625 0.34375 40.984375 -0.53125 
Q 36.96875 -1.421875 32.421875 -1.421875 
Q 20.0625 -1.421875 12.78125 6.34375 
Q 5.515625 14.109375 5.515625 27.296875 
Q 5.515625 40.671875 12.859375 48.328125 
Q 20.21875 56 33.015625 56 
Q 37.15625 56 41.109375 55.140625 
Q 45.0625 54.296875 48.78125 52.59375 
" id="BitstreamVeraSans-Roman-63"/>
      <path d="M 30.609375 48.390625 
Q 23.390625 48.390625 19.1875 42.75 
Q 14.984375 37.109375 14.984375 27.296875 
Q 14.984375 17.484375 19.15625 11.84375 
Q 23.34375 6.203125 30.609375 6.203125 
Q 37.796875 6.203125 41.984375 11.859375 
Q 46.1875 17.53125 46.1875 27.296875 
Q 46.1875 37.015625 41.984375 42.703125 
Q 37.796875 48.390625 30.609375 48.390625 
M 30.609375 56 
Q 42.328125 56 49.015625 48.375 
Q 55.71875 40.765625 55.71875 27.296875 
Q 55.71875 13.875 49.015625 6.21875 
Q 42.328125 -1.421875 30.609375 -1.421875 
Q 18.84375 -1.421875 12.171875 6.21875 
Q 5.515625 13.875 5.515625 27.296875 
Q 5.515625 40.765625 12.171875 48.375 
Q 18.84375 56 30.609375 56 
" id="BitstreamVeraSans-Roman-6f"/>
      <path id="BitstreamVeraSans-Roman-20"/>
      <path d="M 8.5 21.578125 
L 8.5 54.6875 
L 17.484375 54.6875 
L 17.484375 21.921875 
Q 17.484375 14.15625 20.5 10.265625 
Q 23.53125 6.390625 29.59375 6.390625 
Q 36.859375 6.390625 41.078125 11.03125 
Q 45.3125 15.671875 45.3125 23.6875 
L 45.3125 54.6875 
L 54.296875 54.6875 
L 54.296875 0 
L 45.3125 0 
L 45.3125 8.40625 
Q 42.046875 3.421875 37.71875 1 
Q 33.40625 -1.421875 27.6875 -1.421875 
Q 18.265625 -1.421875 13.375 4.4375 
Q 8.5 10.296875 8.5 21.578125 
" id="BitstreamVeraSans-Roman-75"/>
      <path d="M 54.890625 54.6875 
L 35.109375 28.078125 
L 55.90625 0 
L 45.3125 0 
L 29.390625 21.484375 
L 13.484375 0 
L 2.875 0 
L 24.125 28.609375 
L 4.6875 54.6875 
L 15.28125 54.6875 
L 29.78125 35.203125 
L 44.28125 54.6875 
z
" id="BitstreamVeraSans-Roman-78"/>
     </defs>
     <g transform="translate(216.30375 418.531875)scale(0.12 -0.12)">
      <use xlink:href="#BitstreamVeraSans-Roman-45"/>
      <use x="63.18359375" xlink:href="#BitstreamVeraSans-Roman-78"/>
      <use x="122.31640625" xlink:href="#BitstreamVeraSans-Roman-65"/>
      <use x="183.83984375" xlink:href="#BitstreamVeraSans-Roman-63"/>
      <use x="238.8203125" xlink:href="#BitstreamVeraSans-Roman-75"/>
      <use x="302.19921875" xlink:href="#BitstreamVeraSans-Roman-74"/>
      <use x="341.408203125" xlink:href="#BitstreamVeraSans-Roman-69"/>
      <use x="369.19140625" xlink:href="#BitstreamVeraSans-Roman-6f"/>
      <use x="430.373046875" xlink:href="#BitstreamVeraSans-Roman-6e"/>
      <use x="493.751953125" xlink:href="#BitstreamVeraSans-Roman-20"/>
      <use x="525.5390625" xlink:href="#BitstreamVeraSans-Roman-74"/>
      <use x="564.748046875" xlink:href="#BitstreamVeraSans-Roman-69"/>
      <use x="592.53125" xlink:href="#BitstreamVeraSans-Roman-6d"/>
      <use x="689.943359375" xlink:href="#BitstreamVeraSans-Roman-65"/>
      <use x="751.466796875" xlink:href="#BitstreamVeraSans-Roman-20"/>
      <use x="783.25390625" xlink:href="#BitstreamVeraSans-Roman-69"/>
      <use x="811.037109375" xlink:href="#BitstreamVeraSans-Roman-6e"/>
      <use x="874.416015625" xlink:href="#BitstreamVeraSans-Roman-20"/>
      <use x="906.203125" xlink:href="#BitstreamVeraSans-Roman-73"/>
      <use x="958.302734375" xlink:href="#BitstreamVeraSans-Roman-65"/>
      <use x="1019.826171875" xlink:href="#BitstreamVeraSans-Roman-63"/>
      <use x="1074.806640625" xlink:href="#BitstreamVeraSans-Roman-6f"/>
      <use x="1135.98828125" xlink:href="#BitstreamVeraSans-Roman-6e"/>
      <use x="1199.3671875" xlink:href="#BitstreamVeraSans-Roman-64"/>
      <use x="1262.84375" xlink:href="#BitstreamVeraSans-Roman-73"/>
     </g>
    </g>
   </g>
   <g id="matplotlib.axis_2">
    <g id="ytick_1">
     <g id="line2d_31">
      <path clip-path="url(#pd571cddb3d)" d="M 72 373.266364 
L 518.4 373.266364 
" style="fill:none;stroke:#000000;stroke-dasharray:1.000000,3.000000;stroke-dashoffset:0.0;stroke-width:0.5;"/>
     </g>
     <g id="line2d_32">
      <defs>
       <path d="M 0 0 
L 4 0 
" id="m7ce7f84209" style="stroke:#000000;stroke-width:0.5;"/>
      </defs>
      <g>
       <use style="stroke:#000000;stroke-width:0.5;" x="72.0" xlink:href="#m7ce7f84209" y="373.266364313"/>
      </g>
     </g>
     <g id="line2d_33">
      <defs>
       <path d="M 0 0 
L -4 0 
" id="md5b444ca69" style="stroke:#000000;stroke-width:0.5;"/>
      </defs>
      <g>
       <use style="stroke:#000000;stroke-width:0.5;" x="518.4" xlink:href="#md5b444ca69" y="373.266364313"/>
      </g>
     </g>
     <g id="text_5">
      <!-- 0 -->
      <g transform="translate(60.365 376.577614313)scale(0.12 -0.12)">
       <use xlink:href="#BitstreamVeraSans-Roman-30"/>
      </g>
     </g>
    </g>
    <g id="ytick_2">
     <g id="line2d_34">
      <path clip-path="url(#pd571cddb3d)" d="M 72 334.276315 
L 518.4 334.276315 
" style="fill:none;stroke:#000000;stroke-dasharray:1.000000,3.000000;stroke-dashoffset:0.0;stroke-width:0.5;"/>
     </g>
     <g id="line2d_35">
      <g>
       <use style="stroke:#000000;stroke-width:0.5;" x="72.0" xlink:href="#m7ce7f84209" y="334.276314899"/>
      </g>
     </g>
     <g id="line2d_36">
      <g>
       <use style="stroke:#000000;stroke-width:0.5;" x="518.4" xlink:href="#md5b444ca69" y="334.276314899"/>
      </g>
     </g>
     <g id="text_6">
      <!-- 1 -->
      <g transform="translate(60.365 337.587564899)scale(0.12 -0.12)">
       <use xlink:href="#BitstreamVeraSans-Roman-31"/>
      </g>
     </g>
    </g>
    <g id="ytick_3">
     <g id="line2d_37">
      <path clip-path="url(#pd571cddb3d)" d="M 72 295.286265 
L 518.4 295.286265 
" style="fill:none;stroke:#000000;stroke-dasharray:1.000000,3.000000;stroke-dashoffset:0.0;stroke-width:0.5;"/>
     </g>
     <g id="line2d_38">
      <g>
       <use style="stroke:#000000;stroke-width:0.5;" x="72.0" xlink:href="#m7ce7f84209" y="295.286265484"/>
      </g>
     </g>
     <g id="line2d_39">
      <g>
       <use style="stroke:#000000;stroke-width:0.5;" x="518.4" xlink:href="#md5b444ca69" y="295.286265484"/>
      </g>
     </g>
     <g id="text_7">
      <!-- 2 -->
      <defs>
       <path d="M 19.1875 8.296875 
L 53.609375 8.296875 
L 53.609375 0 
L 7.328125 0 
L 7.328125 8.296875 
Q 12.9375 14.109375 22.625 23.890625 
Q 32.328125 33.6875 34.8125 36.53125 
Q 39.546875 41.84375 41.421875 45.53125 
Q 43.3125 49.21875 43.3125 52.78125 
Q 43.3125 58.59375 39.234375 62.25 
Q 35.15625 65.921875 28.609375 65.921875 
Q 23.96875 65.921875 18.8125 64.3125 
Q 13.671875 62.703125 7.8125 59.421875 
L 7.8125 69.390625 
Q 13.765625 71.78125 18.9375 73 
Q 24.125 74.21875 28.421875 74.21875 
Q 39.75 74.21875 46.484375 68.546875 
Q 53.21875 62.890625 53.21875 53.421875 
Q 53.21875 48.921875 51.53125 44.890625 
Q 49.859375 40.875 45.40625 35.40625 
Q 44.1875 33.984375 37.640625 27.21875 
Q 31.109375 20.453125 19.1875 8.296875 
" id="BitstreamVeraSans-Roman-32"/>
      </defs>
      <g transform="translate(60.365 298.597515484)scale(0.12 -0.12)">
       <use xlink:href="#BitstreamVeraSans-Roman-32"/>
      </g>
     </g>
    </g>
    <g id="ytick_4">
     <g id="line2d_40">
      <path clip-path="url(#pd571cddb3d)" d="M 72 256.296216 
L 518.4 256.296216 
" style="fill:none;stroke:#000000;stroke-dasharray:1.000000,3.000000;stroke-dashoffset:0.0;stroke-width:0.5;"/>
     </g>
     <g id="line2d_41">
      <g>
       <use style="stroke:#000000;stroke-width:0.5;" x="72.0" xlink:href="#m7ce7f84209" y="256.29621607"/>
      </g>
     </g>
     <g id="line2d_42">
      <g>
       <use style="stroke:#000000;stroke-width:0.5;" x="518.4" xlink:href="#md5b444ca69" y="256.29621607"/>
      </g>
     </g>
     <g id="text_8">
      <!-- 3 -->
      <defs>
       <path d="M 40.578125 39.3125 
Q 47.65625 37.796875 51.625 33 
Q 55.609375 28.21875 55.609375 21.1875 
Q 55.609375 10.40625 48.1875 4.484375 
Q 40.765625 -1.421875 27.09375 -1.421875 
Q 22.515625 -1.421875 17.65625 -0.515625 
Q 12.796875 0.390625 7.625 2.203125 
L 7.625 11.71875 
Q 11.71875 9.328125 16.59375 8.109375 
Q 21.484375 6.890625 26.8125 6.890625 
Q 36.078125 6.890625 40.9375 10.546875 
Q 45.796875 14.203125 45.796875 21.1875 
Q 45.796875 27.640625 41.28125 31.265625 
Q 36.765625 34.90625 28.71875 34.90625 
L 20.21875 34.90625 
L 20.21875 43.015625 
L 29.109375 43.015625 
Q 36.375 43.015625 40.234375 45.921875 
Q 44.09375 48.828125 44.09375 54.296875 
Q 44.09375 59.90625 40.109375 62.90625 
Q 36.140625 65.921875 28.71875 65.921875 
Q 24.65625 65.921875 20.015625 65.03125 
Q 15.375 64.15625 9.8125 62.3125 
L 9.8125 71.09375 
Q 15.4375 72.65625 20.34375 73.4375 
Q 25.25 74.21875 29.59375 74.21875 
Q 40.828125 74.21875 47.359375 69.109375 
Q 53.90625 64.015625 53.90625 55.328125 
Q 53.90625 49.265625 50.4375 45.09375 
Q 46.96875 40.921875 40.578125 39.3125 
" id="BitstreamVeraSans-Roman-33"/>
      </defs>
      <g transform="translate(60.365 259.60746607)scale(0.12 -0.12)">
       <use xlink:href="#BitstreamVeraSans-Roman-33"/>
      </g>
     </g>
    </g>
    <g id="ytick_5">
     <g id="line2d_43">
      <path clip-path="url(#pd571cddb3d)" d="M 72 217.306167 
L 518.4 217.306167 
" style="fill:none;stroke:#000000;stroke-dasharray:1.000000,3.000000;stroke-dashoffset:0.0;stroke-width:0.5;"/>
     </g>
     <g id="line2d_44">
      <g>
       <use style="stroke:#000000;stroke-width:0.5;" x="72.0" xlink:href="#m7ce7f84209" y="217.306166655"/>
      </g>
     </g>
     <g id="line2d_45">
      <g>
       <use style="stroke:#000000;stroke-width:0.5;" x="518.4" xlink:href="#md5b444ca69" y="217.306166655"/>
      </g>
     </g>
     <g id="text_9">
      <!-- 4 -->
      <defs>
       <path d="M 37.796875 64.3125 
L 12.890625 25.390625 
L 37.796875 25.390625 
z
M 35.203125 72.90625 
L 47.609375 72.90625 
L 47.609375 25.390625 
L 58.015625 25.390625 
L 58.015625 17.1875 
L 47.609375 17.1875 
L 47.609375 0 
L 37.796875 0 
L 37.796875 17.1875 
L 4.890625 17.1875 
L 4.890625 26.703125 
z
" id="BitstreamVeraSans-Roman-34"/>
      </defs>
      <g transform="translate(60.365 220.617416655)scale(0.12 -0.12)">
       <use xlink:href="#BitstreamVeraSans-Roman-34"/>
      </g>
     </g>
    </g>
    <g id="ytick_6">
     <g id="line2d_46">
      <path clip-path="url(#pd571cddb3d)" d="M 72 178.316117 
L 518.4 178.316117 
" style="fill:none;stroke:#000000;stroke-dasharray:1.000000,3.000000;stroke-dashoffset:0.0;stroke-width:0.5;"/>
     </g>
     <g id="line2d_47">
      <g>
       <use style="stroke:#000000;stroke-width:0.5;" x="72.0" xlink:href="#m7ce7f84209" y="178.316117241"/>
      </g>
     </g>
     <g id="line2d_48">
      <g>
       <use style="stroke:#000000;stroke-width:0.5;" x="518.4" xlink:href="#md5b444ca69" y="178.316117241"/>
      </g>
     </g>
     <g id="text_10">
      <!-- 5 -->
      <defs>
       <path d="M 10.796875 72.90625 
L 49.515625 72.90625 
L 49.515625 64.59375 
L 19.828125 64.59375 
L 19.828125 46.734375 
Q 21.96875 47.46875 24.109375 47.828125 
Q 26.265625 48.1875 28.421875 48.1875 
Q 40.625 48.1875 47.75 41.5 
Q 54.890625 34.8125 54.890625 23.390625 
Q 54.890625 11.625 47.5625 5.09375 
Q 40.234375 -1.421875 26.90625 -1.421875 
Q 22.3125 -1.421875 17.546875 -0.640625 
Q 12.796875 0.140625 7.71875 1.703125 
L 7.71875 11.625 
Q 12.109375 9.234375 16.796875 8.0625 
Q 21.484375 6.890625 26.703125 6.890625 
Q 35.15625 6.890625 40.078125 11.328125 
Q 45.015625 15.765625 45.015625 23.390625 
Q 45.015625 31 40.078125 35.4375 
Q 35.15625 39.890625 26.703125 39.890625 
Q 22.75 39.890625 18.8125 39.015625 
Q 14.890625 38.140625 10.796875 36.28125 
z
" id="BitstreamVeraSans-Roman-35"/>
      </defs>
      <g transform="translate(60.365 181.627367241)scale(0.12 -0.12)">
       <use xlink:href="#BitstreamVeraSans-Roman-35"/>
      </g>
     </g>
    </g>
    <g id="ytick_7">
     <g id="line2d_49">
      <path clip-path="url(#pd571cddb3d)" d="M 72 139.326068 
L 518.4 139.326068 
" style="fill:none;stroke:#000000;stroke-dasharray:1.000000,3.000000;stroke-dashoffset:0.0;stroke-width:0.5;"/>
     </g>
     <g id="line2d_50">
      <g>
       <use style="stroke:#000000;stroke-width:0.5;" x="72.0" xlink:href="#m7ce7f84209" y="139.326067826"/>
      </g>
     </g>
     <g id="line2d_51">
      <g>
       <use style="stroke:#000000;stroke-width:0.5;" x="518.4" xlink:href="#md5b444ca69" y="139.326067826"/>
      </g>
     </g>
     <g id="text_11">
      <!-- 6 -->
      <defs>
       <path d="M 33.015625 40.375 
Q 26.375 40.375 22.484375 35.828125 
Q 18.609375 31.296875 18.609375 23.390625 
Q 18.609375 15.53125 22.484375 10.953125 
Q 26.375 6.390625 33.015625 6.390625 
Q 39.65625 6.390625 43.53125 10.953125 
Q 47.40625 15.53125 47.40625 23.390625 
Q 47.40625 31.296875 43.53125 35.828125 
Q 39.65625 40.375 33.015625 40.375 
M 52.59375 71.296875 
L 52.59375 62.3125 
Q 48.875 64.0625 45.09375 64.984375 
Q 41.3125 65.921875 37.59375 65.921875 
Q 27.828125 65.921875 22.671875 59.328125 
Q 17.53125 52.734375 16.796875 39.40625 
Q 19.671875 43.65625 24.015625 45.921875 
Q 28.375 48.1875 33.59375 48.1875 
Q 44.578125 48.1875 50.953125 41.515625 
Q 57.328125 34.859375 57.328125 23.390625 
Q 57.328125 12.15625 50.6875 5.359375 
Q 44.046875 -1.421875 33.015625 -1.421875 
Q 20.359375 -1.421875 13.671875 8.265625 
Q 6.984375 17.96875 6.984375 36.375 
Q 6.984375 53.65625 15.1875 63.9375 
Q 23.390625 74.21875 37.203125 74.21875 
Q 40.921875 74.21875 44.703125 73.484375 
Q 48.484375 72.75 52.59375 71.296875 
" id="BitstreamVeraSans-Roman-36"/>
      </defs>
      <g transform="translate(60.365 142.637317826)scale(0.12 -0.12)">
       <use xlink:href="#BitstreamVeraSans-Roman-36"/>
      </g>
     </g>
    </g>
    <g id="ytick_8">
     <g id="line2d_52">
      <path clip-path="url(#pd571cddb3d)" d="M 72 100.336018 
L 518.4 100.336018 
" style="fill:none;stroke:#000000;stroke-dasharray:1.000000,3.000000;stroke-dashoffset:0.0;stroke-width:0.5;"/>
     </g>
     <g id="line2d_53">
      <g>
       <use style="stroke:#000000;stroke-width:0.5;" x="72.0" xlink:href="#m7ce7f84209" y="100.336018412"/>
      </g>
     </g>
     <g id="line2d_54">
      <g>
       <use style="stroke:#000000;stroke-width:0.5;" x="518.4" xlink:href="#md5b444ca69" y="100.336018412"/>
      </g>
     </g>
     <g id="text_12">
      <!-- 7 -->
      <defs>
       <path d="M 8.203125 72.90625 
L 55.078125 72.90625 
L 55.078125 68.703125 
L 28.609375 0 
L 18.3125 0 
L 43.21875 64.59375 
L 8.203125 64.59375 
z
" id="BitstreamVeraSans-Roman-37"/>
      </defs>
      <g transform="translate(60.365 103.647268412)scale(0.12 -0.12)">
       <use xlink:href="#BitstreamVeraSans-Roman-37"/>
      </g>
     </g>
    </g>
    <g id="ytick_9">
     <g id="line2d_55">
      <path clip-path="url(#pd571cddb3d)" d="M 72 61.345969 
L 518.4 61.345969 
" style="fill:none;stroke:#000000;stroke-dasharray:1.000000,3.000000;stroke-dashoffset:0.0;stroke-width:0.5;"/>
     </g>
     <g id="line2d_56">
      <g>
       <use style="stroke:#000000;stroke-width:0.5;" x="72.0" xlink:href="#m7ce7f84209" y="61.3459689975"/>
      </g>
     </g>
     <g id="line2d_57">
      <g>
       <use style="stroke:#000000;stroke-width:0.5;" x="518.4" xlink:href="#md5b444ca69" y="61.3459689975"/>
      </g>
     </g>
     <g id="text_13">
      <!-- 8 -->
      <g transform="translate(60.365 64.6572189975)scale(0.12 -0.12)">
       <use xlink:href="#BitstreamVeraSans-Roman-38"/>
      </g>
     </g>
    </g>
    <g id="text_14">
     <!-- Problem size -->
     <defs>
      <path d="M 9.421875 75.984375 
L 18.40625 75.984375 
L 18.40625 0 
L 9.421875 0 
z
" id="BitstreamVeraSans-Roman-6c"/>
      <path d="M 41.109375 46.296875 
Q 39.59375 47.171875 37.8125 47.578125 
Q 36.03125 48 33.890625 48 
Q 26.265625 48 22.1875 43.046875 
Q 18.109375 38.09375 18.109375 28.8125 
L 18.109375 0 
L 9.078125 0 
L 9.078125 54.6875 
L 18.109375 54.6875 
L 18.109375 46.1875 
Q 20.953125 51.171875 25.484375 53.578125 
Q 30.03125 56 36.53125 56 
Q 37.453125 56 38.578125 55.875 
Q 39.703125 55.765625 41.0625 55.515625 
z
" id="BitstreamVeraSans-Roman-72"/>
      <path d="M 19.671875 64.796875 
L 19.671875 37.40625 
L 32.078125 37.40625 
Q 38.96875 37.40625 42.71875 40.96875 
Q 46.484375 44.53125 46.484375 51.125 
Q 46.484375 57.671875 42.71875 61.234375 
Q 38.96875 64.796875 32.078125 64.796875 
z
M 9.8125 72.90625 
L 32.078125 72.90625 
Q 44.34375 72.90625 50.609375 67.359375 
Q 56.890625 61.8125 56.890625 51.125 
Q 56.890625 40.328125 50.609375 34.8125 
Q 44.34375 29.296875 32.078125 29.296875 
L 19.671875 29.296875 
L 19.671875 0 
L 9.8125 0 
z
" id="BitstreamVeraSans-Roman-50"/>
      <path d="M 5.515625 54.6875 
L 48.1875 54.6875 
L 48.1875 46.484375 
L 14.40625 7.171875 
L 48.1875 7.171875 
L 48.1875 0 
L 4.296875 0 
L 4.296875 8.203125 
L 38.09375 47.515625 
L 5.515625 47.515625 
z
" id="BitstreamVeraSans-Roman-7a"/>
      <path d="M 48.6875 27.296875 
Q 48.6875 37.203125 44.609375 42.84375 
Q 40.53125 48.484375 33.40625 48.484375 
Q 26.265625 48.484375 22.1875 42.84375 
Q 18.109375 37.203125 18.109375 27.296875 
Q 18.109375 17.390625 22.1875 11.75 
Q 26.265625 6.109375 33.40625 6.109375 
Q 40.53125 6.109375 44.609375 11.75 
Q 48.6875 17.390625 48.6875 27.296875 
M 18.109375 46.390625 
Q 20.953125 51.265625 25.265625 53.625 
Q 29.59375 56 35.59375 56 
Q 45.5625 56 51.78125 48.09375 
Q 58.015625 40.1875 58.015625 27.296875 
Q 58.015625 14.40625 51.78125 6.484375 
Q 45.5625 -1.421875 35.59375 -1.421875 
Q 29.59375 -1.421875 25.265625 0.953125 
Q 20.953125 3.328125 18.109375 8.203125 
L 18.109375 0 
L 9.078125 0 
L 9.078125 75.984375 
L 18.109375 75.984375 
z
" id="BitstreamVeraSans-Roman-62"/>
     </defs>
     <g transform="translate(52.869375 254.3053125)rotate(-90.0)scale(0.12 -0.12)">
      <use xlink:href="#BitstreamVeraSans-Roman-50"/>
      <use x="60.287109375" xlink:href="#BitstreamVeraSans-Roman-72"/>
      <use x="101.369140625" xlink:href="#BitstreamVeraSans-Roman-6f"/>
      <use x="162.55078125" xlink:href="#BitstreamVeraSans-Roman-62"/>
      <use x="226.02734375" xlink:href="#BitstreamVeraSans-Roman-6c"/>
      <use x="253.810546875" xlink:href="#BitstreamVeraSans-Roman-65"/>
      <use x="315.333984375" xlink:href="#BitstreamVeraSans-Roman-6d"/>
      <use x="412.74609375" xlink:href="#BitstreamVeraSans-Roman-20"/>
      <use x="444.533203125" xlink:href="#BitstreamVeraSans-Roman-73"/>
      <use x="496.6328125" xlink:href="#BitstreamVeraSans-Roman-69"/>
      <use x="524.416015625" xlink:href="#BitstreamVeraSans-Roman-7a"/>
      <use x="576.90625" xlink:href="#BitstreamVeraSans-Roman-65"/>
     </g>
    </g>
   </g>
   <g id="text_15">
    <!-- fannkuchredux -->
    <defs>
     <path d="M 9.078125 75.984375 
L 18.109375 75.984375 
L 18.109375 31.109375 
L 44.921875 54.6875 
L 56.390625 54.6875 
L 27.390625 29.109375 
L 57.625 0 
L 45.90625 0 
L 18.109375 26.703125 
L 18.109375 0 
L 9.078125 0 
z
" id="BitstreamVeraSans-Roman-6b"/>
     <path d="M 37.109375 75.984375 
L 37.109375 68.5 
L 28.515625 68.5 
Q 23.6875 68.5 21.796875 66.546875 
Q 19.921875 64.59375 19.921875 59.515625 
L 19.921875 54.6875 
L 34.71875 54.6875 
L 34.71875 47.703125 
L 19.921875 47.703125 
L 19.921875 0 
L 10.890625 0 
L 10.890625 47.703125 
L 2.296875 47.703125 
L 2.296875 54.6875 
L 10.890625 54.6875 
L 10.890625 58.5 
Q 10.890625 67.625 15.140625 71.796875 
Q 19.390625 75.984375 28.609375 75.984375 
z
" id="BitstreamVeraSans-Roman-66"/>
     <path d="M 34.28125 27.484375 
Q 23.390625 27.484375 19.1875 25 
Q 14.984375 22.515625 14.984375 16.5 
Q 14.984375 11.71875 18.140625 8.90625 
Q 21.296875 6.109375 26.703125 6.109375 
Q 34.1875 6.109375 38.703125 11.40625 
Q 43.21875 16.703125 43.21875 25.484375 
L 43.21875 27.484375 
z
M 52.203125 31.203125 
L 52.203125 0 
L 43.21875 0 
L 43.21875 8.296875 
Q 40.140625 3.328125 35.546875 0.953125 
Q 30.953125 -1.421875 24.3125 -1.421875 
Q 15.921875 -1.421875 10.953125 3.296875 
Q 6 8.015625 6 15.921875 
Q 6 25.140625 12.171875 29.828125 
Q 18.359375 34.515625 30.609375 34.515625 
L 43.21875 34.515625 
L 43.21875 35.40625 
Q 43.21875 41.609375 39.140625 45 
Q 35.0625 48.390625 27.6875 48.390625 
Q 23 48.390625 18.546875 47.265625 
Q 14.109375 46.140625 10.015625 43.890625 
L 10.015625 52.203125 
Q 14.9375 54.109375 19.578125 55.046875 
Q 24.21875 56 28.609375 56 
Q 40.484375 56 46.34375 49.84375 
Q 52.203125 43.703125 52.203125 31.203125 
" id="BitstreamVeraSans-Roman-61"/>
     <path d="M 54.890625 33.015625 
L 54.890625 0 
L 45.90625 0 
L 45.90625 32.71875 
Q 45.90625 40.484375 42.875 44.328125 
Q 39.84375 48.1875 33.796875 48.1875 
Q 26.515625 48.1875 22.3125 43.546875 
Q 18.109375 38.921875 18.109375 30.90625 
L 18.109375 0 
L 9.078125 0 
L 9.078125 75.984375 
L 18.109375 75.984375 
L 18.109375 46.1875 
Q 21.34375 51.125 25.703125 53.5625 
Q 30.078125 56 35.796875 56 
Q 45.21875 56 50.046875 50.171875 
Q 54.890625 44.34375 54.890625 33.015625 
" id="BitstreamVeraSans-Roman-68"/>
    </defs>
    <g transform="translate(241.093125 38.2)scale(0.144 -0.144)">
     <use xlink:href="#BitstreamVeraSans-Roman-66"/>
     <use x="35.205078125" xlink:href="#BitstreamVeraSans-Roman-61"/>
     <use x="96.484375" xlink:href="#BitstreamVeraSans-Roman-6e"/>
     <use x="159.86328125" xlink:href="#BitstreamVeraSans-Roman-6e"/>
     <use x="223.2421875" xlink:href="#BitstreamVeraSans-Roman-6b"/>
     <use x="281.10546875" xlink:href="#BitstreamVeraSans-Roman-75"/>
     <use x="344.484375" xlink:href="#BitstreamVeraSans-Roman-63"/>
     <use x="399.46484375" xlink:href="#BitstreamVeraSans-Roman-68"/>
     <use x="462.84375" xlink:href="#BitstreamVeraSans-Roman-72"/>
     <use x="503.92578125" xlink:href="#BitstreamVeraSans-Roman-65"/>
     <use x="565.44921875" xlink:href="#BitstreamVeraSans-Roman-64"/>
     <use x="628.92578125" xlink:href="#BitstreamVeraSans-Roman-75"/>
     <use x="692.3046875" xlink:href="#BitstreamVeraSans-Roman-78"/>
    </g>
   </g>
   <g id="legend_1">
    <g id="patch_7">
     <path d="M 80 178.09625 
L 172.8125 178.09625 
L 172.8125 51.2 
L 80 51.2 
z
" style="fill:#4c4c4c;opacity:0.5;stroke:#4c4c4c;stroke-linejoin:miter;"/>
    </g>
    <g id="patch_8">
     <path d="M 78 176.09625 
L 170.8125 176.09625 
L 170.8125 49.2 
L 78 49.2 
z
" style="fill:#ffffff;stroke:#000000;stroke-linejoin:miter;"/>
    </g>
    <g id="LineCollection_8">
     <path d="M 86.4 64.918125 
L 86.4 52.918125 
" style="fill:none;stroke:#0000ff;"/>
     <path d="M 103.2 64.918125 
L 103.2 52.918125 
" style="fill:none;stroke:#0000ff;"/>
    </g>
    <g id="line2d_58">
     <g>
      <use style="fill:#0000ff;stroke:#0000ff;stroke-width:0.5;" x="86.4" xlink:href="#mdd65ac6181" y="64.918125"/>
      <use style="fill:#0000ff;stroke:#0000ff;stroke-width:0.5;" x="103.2" xlink:href="#mdd65ac6181" y="64.918125"/>
     </g>
    </g>
    <g id="line2d_59">
     <g>
      <use style="fill:#0000ff;stroke:#0000ff;stroke-width:0.5;" x="86.4" xlink:href="#mdd65ac6181" y="52.918125"/>
      <use style="fill:#0000ff;stroke:#0000ff;stroke-width:0.5;" x="103.2" xlink:href="#mdd65ac6181" y="52.918125"/>
     </g>
    </g>
    <g id="line2d_60">
     <path d="M 86.4 58.918125 
L 103.2 58.918125 
" style="fill:none;stroke:#0000ff;stroke-linecap:square;"/>
    </g>
    <g id="line2d_61"/>
    <g id="text_16">
     <!-- java -->
     <defs>
      <path d="M 2.984375 54.6875 
L 12.5 54.6875 
L 29.59375 8.796875 
L 46.6875 54.6875 
L 56.203125 54.6875 
L 35.6875 0 
L 23.484375 0 
z
" id="BitstreamVeraSans-Roman-76"/>
      <path d="M 9.421875 54.6875 
L 18.40625 54.6875 
L 18.40625 -0.984375 
Q 18.40625 -11.421875 14.421875 -16.109375 
Q 10.453125 -20.796875 1.609375 -20.796875 
L -1.8125 -20.796875 
L -1.8125 -13.1875 
L 0.59375 -13.1875 
Q 5.71875 -13.1875 7.5625 -10.8125 
Q 9.421875 -8.453125 9.421875 -0.984375 
z
M 9.421875 75.984375 
L 18.40625 75.984375 
L 18.40625 64.59375 
L 9.421875 64.59375 
z
" id="BitstreamVeraSans-Roman-6a"/>
     </defs>
     <g transform="translate(116.4 63.118125)scale(0.12 -0.12)">
      <use xlink:href="#BitstreamVeraSans-Roman-6a"/>
      <use x="27.783203125" xlink:href="#BitstreamVeraSans-Roman-61"/>
      <use x="89.0625" xlink:href="#BitstreamVeraSans-Roman-76"/>
      <use x="148.2421875" xlink:href="#BitstreamVeraSans-Roman-61"/>
     </g>
    </g>
    <g id="LineCollection_9">
     <path d="M 86.4 82.531875 
L 86.4 70.531875 
" style="fill:none;stroke:#008000;"/>
     <path d="M 103.2 82.531875 
L 103.2 70.531875 
" style="fill:none;stroke:#008000;"/>
    </g>
    <g id="line2d_62">
     <g>
      <use style="fill:#008000;stroke:#008000;stroke-width:0.5;" x="86.4" xlink:href="#m5e554f8472" y="82.531875"/>
      <use style="fill:#008000;stroke:#008000;stroke-width:0.5;" x="103.2" xlink:href="#m5e554f8472" y="82.531875"/>
     </g>
    </g>
    <g id="line2d_63">
     <g>
      <use style="fill:#008000;stroke:#008000;stroke-width:0.5;" x="86.4" xlink:href="#m5e554f8472" y="70.531875"/>
      <use style="fill:#008000;stroke:#008000;stroke-width:0.5;" x="103.2" xlink:href="#m5e554f8472" y="70.531875"/>
     </g>
    </g>
    <g id="line2d_64">
     <path d="M 86.4 76.531875 
L 103.2 76.531875 
" style="fill:none;stroke:#008000;stroke-linecap:square;"/>
    </g>
    <g id="line2d_65"/>
    <g id="text_17">
     <!-- js -->
     <g transform="translate(116.4 80.731875)scale(0.12 -0.12)">
      <use xlink:href="#BitstreamVeraSans-Roman-6a"/>
      <use x="27.783203125" xlink:href="#BitstreamVeraSans-Roman-73"/>
     </g>
    </g>
    <g id="LineCollection_10">
     <path d="M 86.4 100.145625 
L 86.4 88.145625 
" style="fill:none;stroke:#ff0000;"/>
     <path d="M 103.2 100.145625 
L 103.2 88.145625 
" style="fill:none;stroke:#ff0000;"/>
    </g>
    <g id="line2d_66">
     <g>
      <use style="fill:#ff0000;stroke:#ff0000;stroke-width:0.5;" x="86.4" xlink:href="#mc15885dbfa" y="100.145625"/>
      <use style="fill:#ff0000;stroke:#ff0000;stroke-width:0.5;" x="103.2" xlink:href="#mc15885dbfa" y="100.145625"/>
     </g>
    </g>
    <g id="line2d_67">
     <g>
      <use style="fill:#ff0000;stroke:#ff0000;stroke-width:0.5;" x="86.4" xlink:href="#mc15885dbfa" y="88.145625"/>
      <use style="fill:#ff0000;stroke:#ff0000;stroke-width:0.5;" x="103.2" xlink:href="#mc15885dbfa" y="88.145625"/>
     </g>
    </g>
    <g id="line2d_68">
     <path d="M 86.4 94.145625 
L 103.2 94.145625 
" style="fill:none;stroke:#ff0000;stroke-linecap:square;"/>
    </g>
    <g id="line2d_69"/>
    <g id="text_18">
     <!-- lua -->
     <g transform="translate(116.4 98.345625)scale(0.12 -0.12)">
      <use xlink:href="#BitstreamVeraSans-Roman-6c"/>
      <use x="27.783203125" xlink:href="#BitstreamVeraSans-Roman-75"/>
      <use x="91.162109375" xlink:href="#BitstreamVeraSans-Roman-61"/>
     </g>
    </g>
    <g id="LineCollection_11">
     <path d="M 86.4 117.759375 
L 86.4 105.759375 
" style="fill:none;stroke:#00bfbf;"/>
     <path d="M 103.2 117.759375 
L 103.2 105.759375 
" style="fill:none;stroke:#00bfbf;"/>
    </g>
    <g id="line2d_70">
     <g>
      <use style="fill:#00bfbf;stroke:#00bfbf;stroke-width:0.5;" x="86.4" xlink:href="#m7850dc89cb" y="117.759375"/>
      <use style="fill:#00bfbf;stroke:#00bfbf;stroke-width:0.5;" x="103.2" xlink:href="#m7850dc89cb" y="117.759375"/>
     </g>
    </g>
    <g id="line2d_71">
     <g>
      <use style="fill:#00bfbf;stroke:#00bfbf;stroke-width:0.5;" x="86.4" xlink:href="#m7850dc89cb" y="105.759375"/>
      <use style="fill:#00bfbf;stroke:#00bfbf;stroke-width:0.5;" x="103.2" xlink:href="#m7850dc89cb" y="105.759375"/>
     </g>
    </g>
    <g id="line2d_72">
     <path d="M 86.4 111.759375 
L 103.2 111.759375 
" style="fill:none;stroke:#00bfbf;stroke-linecap:square;"/>
    </g>
    <g id="line2d_73"/>
    <g id="text_19">
     <!-- luajit -->
     <g transform="translate(116.4 115.959375)scale(0.12 -0.12)">
      <use xlink:href="#BitstreamVeraSans-Roman-6c"/>
      <use x="27.783203125" xlink:href="#BitstreamVeraSans-Roman-75"/>
      <use x="91.162109375" xlink:href="#BitstreamVeraSans-Roman-61"/>
      <use x="152.44140625" xlink:href="#BitstreamVeraSans-Roman-6a"/>
      <use x="180.224609375" xlink:href="#BitstreamVeraSans-Roman-69"/>
      <use x="208.0078125" xlink:href="#BitstreamVeraSans-Roman-74"/>
     </g>
    </g>
    <g id="LineCollection_12">
     <path d="M 86.4 135.373125 
L 86.4 123.373125 
" style="fill:none;stroke:#bf00bf;"/>
     <path d="M 103.2 135.373125 
L 103.2 123.373125 
" style="fill:none;stroke:#bf00bf;"/>
    </g>
    <g id="line2d_74">
     <g>
      <use style="fill:#bf00bf;stroke:#bf00bf;stroke-width:0.5;" x="86.4" xlink:href="#m08ed9ec58f" y="135.373125"/>
      <use style="fill:#bf00bf;stroke:#bf00bf;stroke-width:0.5;" x="103.2" xlink:href="#m08ed9ec58f" y="135.373125"/>
     </g>
    </g>
    <g id="line2d_75">
     <g>
      <use style="fill:#bf00bf;stroke:#bf00bf;stroke-width:0.5;" x="86.4" xlink:href="#m08ed9ec58f" y="123.373125"/>
      <use style="fill:#bf00bf;stroke:#bf00bf;stroke-width:0.5;" x="103.2" xlink:href="#m08ed9ec58f" y="123.373125"/>
     </g>
    </g>
    <g id="line2d_76">
     <path d="M 86.4 129.373125 
L 103.2 129.373125 
" style="fill:none;stroke:#bf00bf;stroke-linecap:square;"/>
    </g>
    <g id="line2d_77"/>
    <g id="text_20">
     <!-- php -->
     <defs>
      <path d="M 18.109375 8.203125 
L 18.109375 -20.796875 
L 9.078125 -20.796875 
L 9.078125 54.6875 
L 18.109375 54.6875 
L 18.109375 46.390625 
Q 20.953125 51.265625 25.265625 53.625 
Q 29.59375 56 35.59375 56 
Q 45.5625 56 51.78125 48.09375 
Q 58.015625 40.1875 58.015625 27.296875 
Q 58.015625 14.40625 51.78125 6.484375 
Q 45.5625 -1.421875 35.59375 -1.421875 
Q 29.59375 -1.421875 25.265625 0.953125 
Q 20.953125 3.328125 18.109375 8.203125 
M 48.6875 27.296875 
Q 48.6875 37.203125 44.609375 42.84375 
Q 40.53125 48.484375 33.40625 48.484375 
Q 26.265625 48.484375 22.1875 42.84375 
Q 18.109375 37.203125 18.109375 27.296875 
Q 18.109375 17.390625 22.1875 11.75 
Q 26.265625 6.109375 33.40625 6.109375 
Q 40.53125 6.109375 44.609375 11.75 
Q 48.6875 17.390625 48.6875 27.296875 
" id="BitstreamVeraSans-Roman-70"/>
     </defs>
     <g transform="translate(116.4 133.573125)scale(0.12 -0.12)">
      <use xlink:href="#BitstreamVeraSans-Roman-70"/>
      <use x="63.4765625" xlink:href="#BitstreamVeraSans-Roman-68"/>
      <use x="126.85546875" xlink:href="#BitstreamVeraSans-Roman-70"/>
     </g>
    </g>
    <g id="LineCollection_13">
     <path d="M 86.4 152.986875 
L 86.4 140.986875 
" style="fill:none;stroke:#bfbf00;"/>
     <path d="M 103.2 152.986875 
L 103.2 140.986875 
" style="fill:none;stroke:#bfbf00;"/>
    </g>
    <g id="line2d_78">
     <g>
      <use style="fill:#bfbf00;stroke:#bfbf00;stroke-width:0.5;" x="86.4" xlink:href="#mac3a93cc10" y="152.986875"/>
      <use style="fill:#bfbf00;stroke:#bfbf00;stroke-width:0.5;" x="103.2" xlink:href="#mac3a93cc10" y="152.986875"/>
     </g>
    </g>
    <g id="line2d_79">
     <g>
      <use style="fill:#bfbf00;stroke:#bfbf00;stroke-width:0.5;" x="86.4" xlink:href="#mac3a93cc10" y="140.986875"/>
      <use style="fill:#bfbf00;stroke:#bfbf00;stroke-width:0.5;" x="103.2" xlink:href="#mac3a93cc10" y="140.986875"/>
     </g>
    </g>
    <g id="line2d_80">
     <path d="M 86.4 146.986875 
L 103.2 146.986875 
" style="fill:none;stroke:#bfbf00;stroke-linecap:square;"/>
    </g>
    <g id="line2d_81"/>
    <g id="text_21">
     <!-- pypy3 -->
     <defs>
      <path d="M 32.171875 -5.078125 
Q 28.375 -14.84375 24.75 -17.8125 
Q 21.140625 -20.796875 15.09375 -20.796875 
L 7.90625 -20.796875 
L 7.90625 -13.28125 
L 13.1875 -13.28125 
Q 16.890625 -13.28125 18.9375 -11.515625 
Q 21 -9.765625 23.484375 -3.21875 
L 25.09375 0.875 
L 2.984375 54.6875 
L 12.5 54.6875 
L 29.59375 11.921875 
L 46.6875 54.6875 
L 56.203125 54.6875 
z
" id="BitstreamVeraSans-Roman-79"/>
     </defs>
     <g transform="translate(116.4 151.186875)scale(0.12 -0.12)">
      <use xlink:href="#BitstreamVeraSans-Roman-70"/>
      <use x="63.4765625" xlink:href="#BitstreamVeraSans-Roman-79"/>
      <use x="122.65625" xlink:href="#BitstreamVeraSans-Roman-70"/>
      <use x="186.1328125" xlink:href="#BitstreamVeraSans-Roman-79"/>
      <use x="245.3125" xlink:href="#BitstreamVeraSans-Roman-33"/>
     </g>
    </g>
    <g id="LineCollection_14">
     <path d="M 86.4 170.600625 
L 86.4 158.600625 
" style="fill:none;stroke:#000000;"/>
     <path d="M 103.2 170.600625 
L 103.2 158.600625 
" style="fill:none;stroke:#000000;"/>
    </g>
    <g id="line2d_82">
     <g>
      <use style="stroke:#000000;stroke-width:0.5;" x="86.4" xlink:href="#m6fd92e5dcb" y="170.600625"/>
      <use style="stroke:#000000;stroke-width:0.5;" x="103.2" xlink:href="#m6fd92e5dcb" y="170.600625"/>
     </g>
    </g>
    <g id="line2d_83">
     <g>
      <use style="stroke:#000000;stroke-width:0.5;" x="86.4" xlink:href="#m6fd92e5dcb" y="158.600625"/>
      <use style="stroke:#000000;stroke-width:0.5;" x="103.2" xlink:href="#m6fd92e5dcb" y="158.600625"/>
     </g>
    </g>
    <g id="line2d_84">
     <path d="M 86.4 164.600625 
L 103.2 164.600625 
" style="fill:none;stroke:#000000;stroke-linecap:square;"/>
    </g>
    <g id="line2d_85"/>
    <g id="text_22">
     <!-- python3 -->
     <g transform="translate(116.4 168.800625)scale(0.12 -0.12)">
      <use xlink:href="#BitstreamVeraSans-Roman-70"/>
      <use x="63.4765625" xlink:href="#BitstreamVeraSans-Roman-79"/>
      <use x="122.65625" xlink:href="#BitstreamVeraSans-Roman-74"/>
      <use x="161.865234375" xlink:href="#BitstreamVeraSans-Roman-68"/>
      <use x="225.244140625" xlink:href="#BitstreamVeraSans-Roman-6f"/>
      <use x="286.42578125" xlink:href="#BitstreamVeraSans-Roman-6e"/>
      <use x="349.8046875" xlink:href="#BitstreamVeraSans-Roman-33"/>
     </g>
    </g>
   </g>
  </g>
 </g>
 <defs>
  <clipPath id="pd571cddb3d">
   <rect height="345.6" width="446.4" x="72.0" y="43.2"/>
  </clipPath>
 </defs>
</svg>
