<?xml version="1.0" encoding="utf-8" standalone="no"?>
<!DOCTYPE svg PUBLIC "-//W3C//DTD SVG 1.1//EN"
  "http://www.w3.org/Graphics/SVG/1.1/DTD/svg11.dtd">
<!-- Created with matplotlib (http://matplotlib.org/) -->
<svg height="432pt" version="1.1" viewBox="0 0 576 432" width="576pt" xmlns="http://www.w3.org/2000/svg" xmlns:xlink="http://www.w3.org/1999/xlink">
 <defs>
  <style type="text/css">
*{stroke-linecap:butt;stroke-linejoin:round;stroke-miterlimit:100000;}
  </style>
 </defs>
 <g id="figure_1">
  <g id="patch_1">
   <path d="M 0 432 
L 576 432 
L 576 0 
L 0 0 
z
" style="fill:#ffffff;"/>
  </g>
  <g id="axes_1">
   <g id="patch_2">
    <path d="M 72 388.8 
L 518.4 388.8 
L 518.4 43.2 
L 72 43.2 
z
" style="fill:#ffffff;"/>
   </g>
   <g id="LineCollection_1">
    <path clip-path="url(#p354196a4b6)" d="M 92.290909 373.280492 
L 92.290909 372.901326 
" style="fill:none;stroke:#0000ff;"/>
    <path clip-path="url(#p354196a4b6)" d="M 254.618182 370.177582 
L 254.618182 369.816426 
" style="fill:none;stroke:#0000ff;"/>
    <path clip-path="url(#p354196a4b6)" d="M 498.109091 365.876277 
L 498.109091 365.185135 
" style="fill:none;stroke:#0000ff;"/>
   </g>
   <g id="LineCollection_2">
    <path clip-path="url(#p354196a4b6)" d="M 92.290909 345.321265 
L 92.290909 333.300266 
" style="fill:none;stroke:#008000;"/>
    <path clip-path="url(#p354196a4b6)" d="M 254.618182 320.121333 
L 254.618182 319.110096 
" style="fill:none;stroke:#008000;"/>
    <path clip-path="url(#p354196a4b6)" d="M 498.109091 285.937273 
L 498.109091 259.923239 
" style="fill:none;stroke:#008000;"/>
   </g>
   <g id="LineCollection_3">
    <path clip-path="url(#p354196a4b6)" d="M 92.290909 339.045918 
L 92.290909 337.384599 
" style="fill:none;stroke:#ff0000;"/>
    <path clip-path="url(#p354196a4b6)" d="M 254.618182 304.983793 
L 254.618182 303.140048 
" style="fill:none;stroke:#ff0000;"/>
    <path clip-path="url(#p354196a4b6)" d="M 498.109091 255.691067 
L 498.109091 254.246442 
" style="fill:none;stroke:#ff0000;"/>
   </g>
   <g id="LineCollection_4">
    <path clip-path="url(#p354196a4b6)" d="M 92.290909 371.838901 
L 92.290909 371.622207 
" style="fill:none;stroke:#00bfbf;"/>
    <path clip-path="url(#p354196a4b6)" d="M 254.618182 364.531153 
L 254.618182 364.122551 
" style="fill:none;stroke:#00bfbf;"/>
    <path clip-path="url(#p354196a4b6)" d="M 498.109091 353.636628 
L 498.109091 351.469691 
" style="fill:none;stroke:#00bfbf;"/>
   </g>
   <g id="LineCollection_5">
    <path clip-path="url(#p354196a4b6)" d="M 92.290909 334.209427 
L 92.290909 333.047723 
" style="fill:none;stroke:#bf00bf;"/>
    <path clip-path="url(#p354196a4b6)" d="M 254.618182 307.914253 
L 254.618182 305.675085 
" style="fill:none;stroke:#bf00bf;"/>
    <path clip-path="url(#p354196a4b6)" d="M 498.109091 268.136809 
L 498.109091 264.288692 
" style="fill:none;stroke:#bf00bf;"/>
   </g>
   <g id="LineCollection_6">
    <path clip-path="url(#p354196a4b6)" d="M 92.290909 322.504964 
L 92.290909 321.349264 
" style="fill:none;stroke:#bfbf00;"/>
    <path clip-path="url(#p354196a4b6)" d="M 254.618182 280.804663 
L 254.618182 279.839176 
" style="fill:none;stroke:#bfbf00;"/>
    <path clip-path="url(#p354196a4b6)" d="M 498.109091 214.808185 
L 498.109091 205.20143 
" style="fill:none;stroke:#bfbf00;"/>
   </g>
   <g id="LineCollection_7">
    <path clip-path="url(#p354196a4b6)" d="M 92.290909 273.650774 
L 92.290909 271.391117 
" style="fill:none;stroke:#000000;"/>
    <path clip-path="url(#p354196a4b6)" d="M 254.618182 187.721469 
L 254.618182 187.504776 
" style="fill:none;stroke:#000000;"/>
    <path clip-path="url(#p354196a4b6)" d="M 498.109091 62.42863 
L 498.109091 55.389552 
" style="fill:none;stroke:#000000;"/>
   </g>
   <g id="line2d_1">
    <defs>
     <path d="M 3 0 
L -3 -0 
" id="mb01146d00f" style="stroke:#0000ff;stroke-width:0.5;"/>
    </defs>
    <g clip-path="url(#p354196a4b6)">
     <use style="fill:#0000ff;stroke:#0000ff;stroke-width:0.5;" x="92.2909090909" xlink:href="#mb01146d00f" y="373.280492209"/>
     <use style="fill:#0000ff;stroke:#0000ff;stroke-width:0.5;" x="254.618181818" xlink:href="#mb01146d00f" y="370.177582399"/>
     <use style="fill:#0000ff;stroke:#0000ff;stroke-width:0.5;" x="498.109090909" xlink:href="#mb01146d00f" y="365.87627705"/>
    </g>
   </g>
   <g id="line2d_2">
    <g clip-path="url(#p354196a4b6)">
     <use style="fill:#0000ff;stroke:#0000ff;stroke-width:0.5;" x="92.2909090909" xlink:href="#mb01146d00f" y="372.901325973"/>
     <use style="fill:#0000ff;stroke:#0000ff;stroke-width:0.5;" x="254.618181818" xlink:href="#mb01146d00f" y="369.816426198"/>
     <use style="fill:#0000ff;stroke:#0000ff;stroke-width:0.5;" x="498.109090909" xlink:href="#mb01146d00f" y="365.185134831"/>
    </g>
   </g>
   <g id="line2d_3">
    <path clip-path="url(#p354196a4b6)" d="M 92.290909 373.090909 
L 254.618182 369.997004 
L 498.109091 365.530706 
" style="fill:none;stroke:#0000ff;stroke-linecap:square;"/>
   </g>
   <g id="line2d_4">
    <defs>
     <path d="M 3 0 
L -3 -0 
" id="m0423cda3ff" style="stroke:#008000;stroke-width:0.5;"/>
    </defs>
    <g clip-path="url(#p354196a4b6)">
     <use style="fill:#008000;stroke:#008000;stroke-width:0.5;" x="92.2909090909" xlink:href="#m0423cda3ff" y="345.321265293"/>
     <use style="fill:#008000;stroke:#008000;stroke-width:0.5;" x="254.618181818" xlink:href="#m0423cda3ff" y="320.121332878"/>
     <use style="fill:#008000;stroke:#008000;stroke-width:0.5;" x="498.109090909" xlink:href="#m0423cda3ff" y="285.937273071"/>
    </g>
   </g>
   <g id="line2d_5">
    <g clip-path="url(#p354196a4b6)">
     <use style="fill:#008000;stroke:#008000;stroke-width:0.5;" x="92.2909090909" xlink:href="#m0423cda3ff" y="333.300266138"/>
     <use style="fill:#008000;stroke:#008000;stroke-width:0.5;" x="254.618181818" xlink:href="#m0423cda3ff" y="319.110095514"/>
     <use style="fill:#008000;stroke:#008000;stroke-width:0.5;" x="498.109090909" xlink:href="#m0423cda3ff" y="259.923238706"/>
    </g>
   </g>
   <g id="line2d_6">
    <path clip-path="url(#p354196a4b6)" d="M 92.290909 339.310766 
L 254.618182 319.615714 
L 498.109091 272.930256 
" style="fill:none;stroke:#008000;stroke-linecap:square;"/>
   </g>
   <g id="line2d_7">
    <defs>
     <path d="M 3 0 
L -3 -0 
" id="mcf72172ba7" style="stroke:#ff0000;stroke-width:0.5;"/>
    </defs>
    <g clip-path="url(#p354196a4b6)">
     <use style="fill:#ff0000;stroke:#ff0000;stroke-width:0.5;" x="92.2909090909" xlink:href="#mcf72172ba7" y="339.045917834"/>
     <use style="fill:#ff0000;stroke:#ff0000;stroke-width:0.5;" x="254.618181818" xlink:href="#mcf72172ba7" y="304.983792832"/>
     <use style="fill:#ff0000;stroke:#ff0000;stroke-width:0.5;" x="498.109090909" xlink:href="#mcf72172ba7" y="255.691066539"/>
    </g>
   </g>
   <g id="line2d_8">
    <g clip-path="url(#p354196a4b6)">
     <use style="fill:#ff0000;stroke:#ff0000;stroke-width:0.5;" x="92.2909090909" xlink:href="#mcf72172ba7" y="337.384599308"/>
     <use style="fill:#ff0000;stroke:#ff0000;stroke-width:0.5;" x="254.618181818" xlink:href="#mcf72172ba7" y="303.140048075"/>
     <use style="fill:#ff0000;stroke:#ff0000;stroke-width:0.5;" x="498.109090909" xlink:href="#mcf72172ba7" y="254.246441734"/>
    </g>
   </g>
   <g id="line2d_9">
    <path clip-path="url(#p354196a4b6)" d="M 92.290909 338.215259 
L 254.618182 304.06192 
L 498.109091 254.968754 
" style="fill:none;stroke:#ff0000;stroke-linecap:square;"/>
   </g>
   <g id="line2d_10">
    <defs>
     <path d="M 3 0 
L -3 -0 
" id="m4ab6a576b3" style="stroke:#00bfbf;stroke-width:0.5;"/>
    </defs>
    <g clip-path="url(#p354196a4b6)">
     <use style="fill:#00bfbf;stroke:#00bfbf;stroke-width:0.5;" x="92.2909090909" xlink:href="#m4ab6a576b3" y="371.838900926"/>
     <use style="fill:#00bfbf;stroke:#00bfbf;stroke-width:0.5;" x="254.618181818" xlink:href="#m4ab6a576b3" y="364.531152735"/>
     <use style="fill:#00bfbf;stroke:#00bfbf;stroke-width:0.5;" x="498.109090909" xlink:href="#m4ab6a576b3" y="353.636628373"/>
    </g>
   </g>
   <g id="line2d_11">
    <g clip-path="url(#p354196a4b6)">
     <use style="fill:#00bfbf;stroke:#00bfbf;stroke-width:0.5;" x="92.2909090909" xlink:href="#m4ab6a576b3" y="371.622207205"/>
     <use style="fill:#00bfbf;stroke:#00bfbf;stroke-width:0.5;" x="254.618181818" xlink:href="#m4ab6a576b3" y="364.122551136"/>
     <use style="fill:#00bfbf;stroke:#00bfbf;stroke-width:0.5;" x="498.109090909" xlink:href="#m4ab6a576b3" y="351.469691164"/>
    </g>
   </g>
   <g id="line2d_12">
    <path clip-path="url(#p354196a4b6)" d="M 92.290909 371.730554 
L 254.618182 364.326852 
L 498.109091 352.55316 
" style="fill:none;stroke:#00bfbf;stroke-linecap:square;"/>
   </g>
   <g id="line2d_13">
    <defs>
     <path d="M 3 0 
L -3 -0 
" id="mcd3001d35f" style="stroke:#bf00bf;stroke-width:0.5;"/>
    </defs>
    <g clip-path="url(#p354196a4b6)">
     <use style="fill:#bf00bf;stroke:#bf00bf;stroke-width:0.5;" x="92.2909090909" xlink:href="#mcd3001d35f" y="334.209426573"/>
     <use style="fill:#bf00bf;stroke:#bf00bf;stroke-width:0.5;" x="254.618181818" xlink:href="#mcd3001d35f" y="307.914253269"/>
     <use style="fill:#bf00bf;stroke:#bf00bf;stroke-width:0.5;" x="498.109090909" xlink:href="#mcd3001d35f" y="268.136809052"/>
    </g>
   </g>
   <g id="line2d_14">
    <g clip-path="url(#p354196a4b6)">
     <use style="fill:#bf00bf;stroke:#bf00bf;stroke-width:0.5;" x="92.2909090909" xlink:href="#mcd3001d35f" y="333.047723052"/>
     <use style="fill:#bf00bf;stroke:#bf00bf;stroke-width:0.5;" x="254.618181818" xlink:href="#mcd3001d35f" y="305.67508482"/>
     <use style="fill:#bf00bf;stroke:#bf00bf;stroke-width:0.5;" x="498.109090909" xlink:href="#mcd3001d35f" y="264.288692032"/>
    </g>
   </g>
   <g id="line2d_15">
    <path clip-path="url(#p354196a4b6)" d="M 92.290909 333.628575 
L 254.618182 306.794669 
L 498.109091 266.212751 
" style="fill:none;stroke:#bf00bf;stroke-linecap:square;"/>
   </g>
   <g id="line2d_16">
    <defs>
     <path d="M 3 0 
L -3 -0 
" id="me537de6a29" style="stroke:#bfbf00;stroke-width:0.5;"/>
    </defs>
    <g clip-path="url(#p354196a4b6)">
     <use style="fill:#bfbf00;stroke:#bfbf00;stroke-width:0.5;" x="92.2909090909" xlink:href="#me537de6a29" y="322.504963808"/>
     <use style="fill:#bfbf00;stroke:#bfbf00;stroke-width:0.5;" x="254.618181818" xlink:href="#me537de6a29" y="280.804663433"/>
     <use style="fill:#bfbf00;stroke:#bfbf00;stroke-width:0.5;" x="498.109090909" xlink:href="#me537de6a29" y="214.808184535"/>
    </g>
   </g>
   <g id="line2d_17">
    <g clip-path="url(#p354196a4b6)">
     <use style="fill:#bfbf00;stroke:#bfbf00;stroke-width:0.5;" x="92.2909090909" xlink:href="#me537de6a29" y="321.349263963"/>
     <use style="fill:#bfbf00;stroke:#bfbf00;stroke-width:0.5;" x="254.618181818" xlink:href="#me537de6a29" y="279.839175523"/>
     <use style="fill:#bfbf00;stroke:#bfbf00;stroke-width:0.5;" x="498.109090909" xlink:href="#me537de6a29" y="205.201429577"/>
    </g>
   </g>
   <g id="line2d_18">
    <path clip-path="url(#p354196a4b6)" d="M 92.290909 321.927114 
L 254.618182 280.321919 
L 498.109091 210.004807 
" style="fill:none;stroke:#bfbf00;stroke-linecap:square;"/>
   </g>
   <g id="line2d_19">
    <defs>
     <path d="M 3 0 
L -3 -0 
" id="m0b496a51d4" style="stroke:#000000;stroke-width:0.5;"/>
    </defs>
    <g clip-path="url(#p354196a4b6)">
     <use style="stroke:#000000;stroke-width:0.5;" x="92.2909090909" xlink:href="#m0b496a51d4" y="273.650773895"/>
     <use style="stroke:#000000;stroke-width:0.5;" x="254.618181818" xlink:href="#m0b496a51d4" y="187.721469426"/>
     <use style="stroke:#000000;stroke-width:0.5;" x="498.109090909" xlink:href="#m0b496a51d4" y="62.4286296906"/>
    </g>
   </g>
   <g id="line2d_20">
    <g clip-path="url(#p354196a4b6)">
     <use style="stroke:#000000;stroke-width:0.5;" x="92.2909090909" xlink:href="#m0b496a51d4" y="271.391117159"/>
     <use style="stroke:#000000;stroke-width:0.5;" x="254.618181818" xlink:href="#m0b496a51d4" y="187.504775706"/>
     <use style="stroke:#000000;stroke-width:0.5;" x="498.109090909" xlink:href="#m0b496a51d4" y="55.3895521275"/>
    </g>
   </g>
   <g id="line2d_21">
    <path clip-path="url(#p354196a4b6)" d="M 92.290909 272.520946 
L 254.618182 187.613123 
L 498.109091 58.909091 
" style="fill:none;stroke:#000000;stroke-linecap:square;"/>
   </g>
   <g id="patch_3">
    <path d="M 72 388.8 
L 72 43.2 
" style="fill:none;stroke:#000000;stroke-linecap:square;stroke-linejoin:miter;"/>
   </g>
   <g id="patch_4">
    <path d="M 518.4 388.8 
L 518.4 43.2 
" style="fill:none;stroke:#000000;stroke-linecap:square;stroke-linejoin:miter;"/>
   </g>
   <g id="patch_5">
    <path d="M 72 43.2 
L 518.4 43.2 
" style="fill:none;stroke:#000000;stroke-linecap:square;stroke-linejoin:miter;"/>
   </g>
   <g id="patch_6">
    <path d="M 72 388.8 
L 518.4 388.8 
" style="fill:none;stroke:#000000;stroke-linecap:square;stroke-linejoin:miter;"/>
   </g>
   <g id="matplotlib.axis_1">
    <g id="xtick_1">
     <g id="line2d_22">
      <path clip-path="url(#p354196a4b6)" d="M 132.872727 388.8 
L 132.872727 43.2 
" style="fill:none;stroke:#000000;stroke-dasharray:1.000000,3.000000;stroke-dashoffset:0.0;stroke-width:0.5;"/>
     </g>
     <g id="line2d_23">
      <defs>
       <path d="M 0 0 
L 0 -4 
" id="macc161312f" style="stroke:#000000;stroke-width:0.5;"/>
      </defs>
      <g>
       <use style="stroke:#000000;stroke-width:0.5;" x="132.872727273" xlink:href="#macc161312f" y="388.8"/>
      </g>
     </g>
     <g id="line2d_24">
      <defs>
       <path d="M 0 0 
L 0 4 
" id="m770553557b" style="stroke:#000000;stroke-width:0.5;"/>
      </defs>
      <g>
       <use style="stroke:#000000;stroke-width:0.5;" x="132.872727273" xlink:href="#m770553557b" y="43.2"/>
      </g>
     </g>
     <g id="text_1">
      <!-- 600000 -->
      <defs>
       <path d="M 33.015625 40.375 
Q 26.375 40.375 22.484375 35.828125 
Q 18.609375 31.296875 18.609375 23.390625 
Q 18.609375 15.53125 22.484375 10.953125 
Q 26.375 6.390625 33.015625 6.390625 
Q 39.65625 6.390625 43.53125 10.953125 
Q 47.40625 15.53125 47.40625 23.390625 
Q 47.40625 31.296875 43.53125 35.828125 
Q 39.65625 40.375 33.015625 40.375 
M 52.59375 71.296875 
L 52.59375 62.3125 
Q 48.875 64.0625 45.09375 64.984375 
Q 41.3125 65.921875 37.59375 65.921875 
Q 27.828125 65.921875 22.671875 59.328125 
Q 17.53125 52.734375 16.796875 39.40625 
Q 19.671875 43.65625 24.015625 45.921875 
Q 28.375 48.1875 33.59375 48.1875 
Q 44.578125 48.1875 50.953125 41.515625 
Q 57.328125 34.859375 57.328125 23.390625 
Q 57.328125 12.15625 50.6875 5.359375 
Q 44.046875 -1.421875 33.015625 -1.421875 
Q 20.359375 -1.421875 13.671875 8.265625 
Q 6.984375 17.96875 6.984375 36.375 
Q 6.984375 53.65625 15.1875 63.9375 
Q 23.390625 74.21875 37.203125 74.21875 
Q 40.921875 74.21875 44.703125 73.484375 
Q 48.484375 72.75 52.59375 71.296875 
" id="BitstreamVeraSans-Roman-36"/>
       <path d="M 31.78125 66.40625 
Q 24.171875 66.40625 20.328125 58.90625 
Q 16.5 51.421875 16.5 36.375 
Q 16.5 21.390625 20.328125 13.890625 
Q 24.171875 6.390625 31.78125 6.390625 
Q 39.453125 6.390625 43.28125 13.890625 
Q 47.125 21.390625 47.125 36.375 
Q 47.125 51.421875 43.28125 58.90625 
Q 39.453125 66.40625 31.78125 66.40625 
M 31.78125 74.21875 
Q 44.046875 74.21875 50.515625 64.515625 
Q 56.984375 54.828125 56.984375 36.375 
Q 56.984375 17.96875 50.515625 8.265625 
Q 44.046875 -1.421875 31.78125 -1.421875 
Q 19.53125 -1.421875 13.0625 8.265625 
Q 6.59375 17.96875 6.59375 36.375 
Q 6.59375 54.828125 13.0625 64.515625 
Q 19.53125 74.21875 31.78125 74.21875 
" id="BitstreamVeraSans-Roman-30"/>
      </defs>
      <g transform="translate(109.967727273 401.918125)scale(0.12 -0.12)">
       <use xlink:href="#BitstreamVeraSans-Roman-36"/>
       <use x="63.623046875" xlink:href="#BitstreamVeraSans-Roman-30"/>
       <use x="127.24609375" xlink:href="#BitstreamVeraSans-Roman-30"/>
       <use x="190.869140625" xlink:href="#BitstreamVeraSans-Roman-30"/>
       <use x="254.4921875" xlink:href="#BitstreamVeraSans-Roman-30"/>
       <use x="318.115234375" xlink:href="#BitstreamVeraSans-Roman-30"/>
      </g>
     </g>
    </g>
    <g id="xtick_2">
     <g id="line2d_25">
      <path clip-path="url(#p354196a4b6)" d="M 214.036364 388.8 
L 214.036364 43.2 
" style="fill:none;stroke:#000000;stroke-dasharray:1.000000,3.000000;stroke-dashoffset:0.0;stroke-width:0.5;"/>
     </g>
     <g id="line2d_26">
      <g>
       <use style="stroke:#000000;stroke-width:0.5;" x="214.036363636" xlink:href="#macc161312f" y="388.8"/>
      </g>
     </g>
     <g id="line2d_27">
      <g>
       <use style="stroke:#000000;stroke-width:0.5;" x="214.036363636" xlink:href="#m770553557b" y="43.2"/>
      </g>
     </g>
     <g id="text_2">
      <!-- 800000 -->
      <defs>
       <path d="M 31.78125 34.625 
Q 24.75 34.625 20.71875 30.859375 
Q 16.703125 27.09375 16.703125 20.515625 
Q 16.703125 13.921875 20.71875 10.15625 
Q 24.75 6.390625 31.78125 6.390625 
Q 38.8125 6.390625 42.859375 10.171875 
Q 46.921875 13.96875 46.921875 20.515625 
Q 46.921875 27.09375 42.890625 30.859375 
Q 38.875 34.625 31.78125 34.625 
M 21.921875 38.8125 
Q 15.578125 40.375 12.03125 44.71875 
Q 8.5 49.078125 8.5 55.328125 
Q 8.5 64.0625 14.71875 69.140625 
Q 20.953125 74.21875 31.78125 74.21875 
Q 42.671875 74.21875 48.875 69.140625 
Q 55.078125 64.0625 55.078125 55.328125 
Q 55.078125 49.078125 51.53125 44.71875 
Q 48 40.375 41.703125 38.8125 
Q 48.828125 37.15625 52.796875 32.3125 
Q 56.78125 27.484375 56.78125 20.515625 
Q 56.78125 9.90625 50.3125 4.234375 
Q 43.84375 -1.421875 31.78125 -1.421875 
Q 19.734375 -1.421875 13.25 4.234375 
Q 6.78125 9.90625 6.78125 20.515625 
Q 6.78125 27.484375 10.78125 32.3125 
Q 14.796875 37.15625 21.921875 38.8125 
M 18.3125 54.390625 
Q 18.3125 48.734375 21.84375 45.5625 
Q 25.390625 42.390625 31.78125 42.390625 
Q 38.140625 42.390625 41.71875 45.5625 
Q 45.3125 48.734375 45.3125 54.390625 
Q 45.3125 60.0625 41.71875 63.234375 
Q 38.140625 66.40625 31.78125 66.40625 
Q 25.390625 66.40625 21.84375 63.234375 
Q 18.3125 60.0625 18.3125 54.390625 
" id="BitstreamVeraSans-Roman-38"/>
      </defs>
      <g transform="translate(191.131363636 401.918125)scale(0.12 -0.12)">
       <use xlink:href="#BitstreamVeraSans-Roman-38"/>
       <use x="63.623046875" xlink:href="#BitstreamVeraSans-Roman-30"/>
       <use x="127.24609375" xlink:href="#BitstreamVeraSans-Roman-30"/>
       <use x="190.869140625" xlink:href="#BitstreamVeraSans-Roman-30"/>
       <use x="254.4921875" xlink:href="#BitstreamVeraSans-Roman-30"/>
       <use x="318.115234375" xlink:href="#BitstreamVeraSans-Roman-30"/>
      </g>
     </g>
    </g>
    <g id="xtick_3">
     <g id="line2d_28">
      <path clip-path="url(#p354196a4b6)" d="M 295.2 388.8 
L 295.2 43.2 
" style="fill:none;stroke:#000000;stroke-dasharray:1.000000,3.000000;stroke-dashoffset:0.0;stroke-width:0.5;"/>
     </g>
     <g id="line2d_29">
      <g>
       <use style="stroke:#000000;stroke-width:0.5;" x="295.2" xlink:href="#macc161312f" y="388.8"/>
      </g>
     </g>
     <g id="line2d_30">
      <g>
       <use style="stroke:#000000;stroke-width:0.5;" x="295.2" xlink:href="#m770553557b" y="43.2"/>
      </g>
     </g>
     <g id="text_3">
      <!-- 1000000 -->
      <defs>
       <path d="M 12.40625 8.296875 
L 28.515625 8.296875 
L 28.515625 63.921875 
L 10.984375 60.40625 
L 10.984375 69.390625 
L 28.421875 72.90625 
L 38.28125 72.90625 
L 38.28125 8.296875 
L 54.390625 8.296875 
L 54.390625 0 
L 12.40625 0 
z
" id="BitstreamVeraSans-Roman-31"/>
      </defs>
      <g transform="translate(268.4775 401.918125)scale(0.12 -0.12)">
       <use xlink:href="#BitstreamVeraSans-Roman-31"/>
       <use x="63.623046875" xlink:href="#BitstreamVeraSans-Roman-30"/>
       <use x="127.24609375" xlink:href="#BitstreamVeraSans-Roman-30"/>
       <use x="190.869140625" xlink:href="#BitstreamVeraSans-Roman-30"/>
       <use x="254.4921875" xlink:href="#BitstreamVeraSans-Roman-30"/>
       <use x="318.115234375" xlink:href="#BitstreamVeraSans-Roman-30"/>
       <use x="381.73828125" xlink:href="#BitstreamVeraSans-Roman-30"/>
      </g>
     </g>
    </g>
    <g id="xtick_4">
     <g id="line2d_31">
      <path clip-path="url(#p354196a4b6)" d="M 376.363636 388.8 
L 376.363636 43.2 
" style="fill:none;stroke:#000000;stroke-dasharray:1.000000,3.000000;stroke-dashoffset:0.0;stroke-width:0.5;"/>
     </g>
     <g id="line2d_32">
      <g>
       <use style="stroke:#000000;stroke-width:0.5;" x="376.363636364" xlink:href="#macc161312f" y="388.8"/>
      </g>
     </g>
     <g id="line2d_33">
      <g>
       <use style="stroke:#000000;stroke-width:0.5;" x="376.363636364" xlink:href="#m770553557b" y="43.2"/>
      </g>
     </g>
     <g id="text_4">
      <!-- 1200000 -->
      <defs>
       <path d="M 19.1875 8.296875 
L 53.609375 8.296875 
L 53.609375 0 
L 7.328125 0 
L 7.328125 8.296875 
Q 12.9375 14.109375 22.625 23.890625 
Q 32.328125 33.6875 34.8125 36.53125 
Q 39.546875 41.84375 41.421875 45.53125 
Q 43.3125 49.21875 43.3125 52.78125 
Q 43.3125 58.59375 39.234375 62.25 
Q 35.15625 65.921875 28.609375 65.921875 
Q 23.96875 65.921875 18.8125 64.3125 
Q 13.671875 62.703125 7.8125 59.421875 
L 7.8125 69.390625 
Q 13.765625 71.78125 18.9375 73 
Q 24.125 74.21875 28.421875 74.21875 
Q 39.75 74.21875 46.484375 68.546875 
Q 53.21875 62.890625 53.21875 53.421875 
Q 53.21875 48.921875 51.53125 44.890625 
Q 49.859375 40.875 45.40625 35.40625 
Q 44.1875 33.984375 37.640625 27.21875 
Q 31.109375 20.453125 19.1875 8.296875 
" id="BitstreamVeraSans-Roman-32"/>
      </defs>
      <g transform="translate(349.641136364 401.918125)scale(0.12 -0.12)">
       <use xlink:href="#BitstreamVeraSans-Roman-31"/>
       <use x="63.623046875" xlink:href="#BitstreamVeraSans-Roman-32"/>
       <use x="127.24609375" xlink:href="#BitstreamVeraSans-Roman-30"/>
       <use x="190.869140625" xlink:href="#BitstreamVeraSans-Roman-30"/>
       <use x="254.4921875" xlink:href="#BitstreamVeraSans-Roman-30"/>
       <use x="318.115234375" xlink:href="#BitstreamVeraSans-Roman-30"/>
       <use x="381.73828125" xlink:href="#BitstreamVeraSans-Roman-30"/>
      </g>
     </g>
    </g>
    <g id="xtick_5">
     <g id="line2d_34">
      <path clip-path="url(#p354196a4b6)" d="M 457.527273 388.8 
L 457.527273 43.2 
" style="fill:none;stroke:#000000;stroke-dasharray:1.000000,3.000000;stroke-dashoffset:0.0;stroke-width:0.5;"/>
     </g>
     <g id="line2d_35">
      <g>
       <use style="stroke:#000000;stroke-width:0.5;" x="457.527272727" xlink:href="#macc161312f" y="388.8"/>
      </g>
     </g>
     <g id="line2d_36">
      <g>
       <use style="stroke:#000000;stroke-width:0.5;" x="457.527272727" xlink:href="#m770553557b" y="43.2"/>
      </g>
     </g>
     <g id="text_5">
      <!-- 1400000 -->
      <defs>
       <path d="M 37.796875 64.3125 
L 12.890625 25.390625 
L 37.796875 25.390625 
z
M 35.203125 72.90625 
L 47.609375 72.90625 
L 47.609375 25.390625 
L 58.015625 25.390625 
L 58.015625 17.1875 
L 47.609375 17.1875 
L 47.609375 0 
L 37.796875 0 
L 37.796875 17.1875 
L 4.890625 17.1875 
L 4.890625 26.703125 
z
" id="BitstreamVeraSans-Roman-34"/>
      </defs>
      <g transform="translate(430.804772727 401.918125)scale(0.12 -0.12)">
       <use xlink:href="#BitstreamVeraSans-Roman-31"/>
       <use x="63.623046875" xlink:href="#BitstreamVeraSans-Roman-34"/>
       <use x="127.24609375" xlink:href="#BitstreamVeraSans-Roman-30"/>
       <use x="190.869140625" xlink:href="#BitstreamVeraSans-Roman-30"/>
       <use x="254.4921875" xlink:href="#BitstreamVeraSans-Roman-30"/>
       <use x="318.115234375" xlink:href="#BitstreamVeraSans-Roman-30"/>
       <use x="381.73828125" xlink:href="#BitstreamVeraSans-Roman-30"/>
      </g>
     </g>
    </g>
   </g>
   <g id="matplotlib.axis_2">
    <g id="ytick_1">
     <g id="line2d_37">
      <path clip-path="url(#p354196a4b6)" d="M 72 381.445656 
L 518.4 381.445656 
" style="fill:none;stroke:#000000;stroke-dasharray:1.000000,3.000000;stroke-dashoffset:0.0;stroke-width:0.5;"/>
     </g>
     <g id="line2d_38">
      <defs>
       <path d="M 0 0 
L 4 0 
" id="m3388a83ef4" style="stroke:#000000;stroke-width:0.5;"/>
      </defs>
      <g>
       <use style="stroke:#000000;stroke-width:0.5;" x="72.0" xlink:href="#m3388a83ef4" y="381.445655884"/>
      </g>
     </g>
     <g id="line2d_39">
      <defs>
       <path d="M 0 0 
L -4 0 
" id="maf8ea6e120" style="stroke:#000000;stroke-width:0.5;"/>
      </defs>
      <g>
       <use style="stroke:#000000;stroke-width:0.5;" x="518.4" xlink:href="#maf8ea6e120" y="381.445655884"/>
      </g>
     </g>
     <g id="text_6">
      <!-- 0 -->
      <g transform="translate(60.365 384.756905884)scale(0.12 -0.12)">
       <use xlink:href="#BitstreamVeraSans-Roman-30"/>
      </g>
     </g>
    </g>
    <g id="ytick_2">
     <g id="line2d_40">
      <path clip-path="url(#p354196a4b6)" d="M 72 309.214416 
L 518.4 309.214416 
" style="fill:none;stroke:#000000;stroke-dasharray:1.000000,3.000000;stroke-dashoffset:0.0;stroke-width:0.5;"/>
     </g>
     <g id="line2d_41">
      <g>
       <use style="stroke:#000000;stroke-width:0.5;" x="72.0" xlink:href="#m3388a83ef4" y="309.214415594"/>
      </g>
     </g>
     <g id="line2d_42">
      <g>
       <use style="stroke:#000000;stroke-width:0.5;" x="518.4" xlink:href="#maf8ea6e120" y="309.214415594"/>
      </g>
     </g>
     <g id="text_7">
      <!-- 1 -->
      <g transform="translate(60.365 312.525665594)scale(0.12 -0.12)">
       <use xlink:href="#BitstreamVeraSans-Roman-31"/>
      </g>
     </g>
    </g>
    <g id="ytick_3">
     <g id="line2d_43">
      <path clip-path="url(#p354196a4b6)" d="M 72 236.983175 
L 518.4 236.983175 
" style="fill:none;stroke:#000000;stroke-dasharray:1.000000,3.000000;stroke-dashoffset:0.0;stroke-width:0.5;"/>
     </g>
     <g id="line2d_44">
      <g>
       <use style="stroke:#000000;stroke-width:0.5;" x="72.0" xlink:href="#m3388a83ef4" y="236.983175304"/>
      </g>
     </g>
     <g id="line2d_45">
      <g>
       <use style="stroke:#000000;stroke-width:0.5;" x="518.4" xlink:href="#maf8ea6e120" y="236.983175304"/>
      </g>
     </g>
     <g id="text_8">
      <!-- 2 -->
      <g transform="translate(60.365 240.294425304)scale(0.12 -0.12)">
       <use xlink:href="#BitstreamVeraSans-Roman-32"/>
      </g>
     </g>
    </g>
    <g id="ytick_4">
     <g id="line2d_46">
      <path clip-path="url(#p354196a4b6)" d="M 72 164.751935 
L 518.4 164.751935 
" style="fill:none;stroke:#000000;stroke-dasharray:1.000000,3.000000;stroke-dashoffset:0.0;stroke-width:0.5;"/>
     </g>
     <g id="line2d_47">
      <g>
       <use style="stroke:#000000;stroke-width:0.5;" x="72.0" xlink:href="#m3388a83ef4" y="164.751935014"/>
      </g>
     </g>
     <g id="line2d_48">
      <g>
       <use style="stroke:#000000;stroke-width:0.5;" x="518.4" xlink:href="#maf8ea6e120" y="164.751935014"/>
      </g>
     </g>
     <g id="text_9">
      <!-- 3 -->
      <defs>
       <path d="M 40.578125 39.3125 
Q 47.65625 37.796875 51.625 33 
Q 55.609375 28.21875 55.609375 21.1875 
Q 55.609375 10.40625 48.1875 4.484375 
Q 40.765625 -1.421875 27.09375 -1.421875 
Q 22.515625 -1.421875 17.65625 -0.515625 
Q 12.796875 0.390625 7.625 2.203125 
L 7.625 11.71875 
Q 11.71875 9.328125 16.59375 8.109375 
Q 21.484375 6.890625 26.8125 6.890625 
Q 36.078125 6.890625 40.9375 10.546875 
Q 45.796875 14.203125 45.796875 21.1875 
Q 45.796875 27.640625 41.28125 31.265625 
Q 36.765625 34.90625 28.71875 34.90625 
L 20.21875 34.90625 
L 20.21875 43.015625 
L 29.109375 43.015625 
Q 36.375 43.015625 40.234375 45.921875 
Q 44.09375 48.828125 44.09375 54.296875 
Q 44.09375 59.90625 40.109375 62.90625 
Q 36.140625 65.921875 28.71875 65.921875 
Q 24.65625 65.921875 20.015625 65.03125 
Q 15.375 64.15625 9.8125 62.3125 
L 9.8125 71.09375 
Q 15.4375 72.65625 20.34375 73.4375 
Q 25.25 74.21875 29.59375 74.21875 
Q 40.828125 74.21875 47.359375 69.109375 
Q 53.90625 64.015625 53.90625 55.328125 
Q 53.90625 49.265625 50.4375 45.09375 
Q 46.96875 40.921875 40.578125 39.3125 
" id="BitstreamVeraSans-Roman-33"/>
      </defs>
      <g transform="translate(60.365 168.063185014)scale(0.12 -0.12)">
       <use xlink:href="#BitstreamVeraSans-Roman-33"/>
      </g>
     </g>
    </g>
    <g id="ytick_5">
     <g id="line2d_49">
      <path clip-path="url(#p354196a4b6)" d="M 72 92.520695 
L 518.4 92.520695 
" style="fill:none;stroke:#000000;stroke-dasharray:1.000000,3.000000;stroke-dashoffset:0.0;stroke-width:0.5;"/>
     </g>
     <g id="line2d_50">
      <g>
       <use style="stroke:#000000;stroke-width:0.5;" x="72.0" xlink:href="#m3388a83ef4" y="92.5206947241"/>
      </g>
     </g>
     <g id="line2d_51">
      <g>
       <use style="stroke:#000000;stroke-width:0.5;" x="518.4" xlink:href="#maf8ea6e120" y="92.5206947241"/>
      </g>
     </g>
     <g id="text_10">
      <!-- 4 -->
      <g transform="translate(60.365 95.8319447241)scale(0.12 -0.12)">
       <use xlink:href="#BitstreamVeraSans-Roman-34"/>
      </g>
     </g>
    </g>
   </g>
   <g id="text_11">
    <!-- fasta -->
    <defs>
     <path d="M 18.3125 70.21875 
L 18.3125 54.6875 
L 36.8125 54.6875 
L 36.8125 47.703125 
L 18.3125 47.703125 
L 18.3125 18.015625 
Q 18.3125 11.328125 20.140625 9.421875 
Q 21.96875 7.515625 27.59375 7.515625 
L 36.8125 7.515625 
L 36.8125 0 
L 27.59375 0 
Q 17.1875 0 13.234375 3.875 
Q 9.28125 7.765625 9.28125 18.015625 
L 9.28125 47.703125 
L 2.6875 47.703125 
L 2.6875 54.6875 
L 9.28125 54.6875 
L 9.28125 70.21875 
z
" id="BitstreamVeraSans-Roman-74"/>
     <path d="M 44.28125 53.078125 
L 44.28125 44.578125 
Q 40.484375 46.53125 36.375 47.5 
Q 32.28125 48.484375 27.875 48.484375 
Q 21.1875 48.484375 17.84375 46.4375 
Q 14.5 44.390625 14.5 40.28125 
Q 14.5 37.15625 16.890625 35.375 
Q 19.28125 33.59375 26.515625 31.984375 
L 29.59375 31.296875 
Q 39.15625 29.25 43.1875 25.515625 
Q 47.21875 21.78125 47.21875 15.09375 
Q 47.21875 7.46875 41.1875 3.015625 
Q 35.15625 -1.421875 24.609375 -1.421875 
Q 20.21875 -1.421875 15.453125 -0.5625 
Q 10.6875 0.296875 5.421875 2 
L 5.421875 11.28125 
Q 10.40625 8.6875 15.234375 7.390625 
Q 20.0625 6.109375 24.8125 6.109375 
Q 31.15625 6.109375 34.5625 8.28125 
Q 37.984375 10.453125 37.984375 14.40625 
Q 37.984375 18.0625 35.515625 20.015625 
Q 33.0625 21.96875 24.703125 23.78125 
L 21.578125 24.515625 
Q 13.234375 26.265625 9.515625 29.90625 
Q 5.8125 33.546875 5.8125 39.890625 
Q 5.8125 47.609375 11.28125 51.796875 
Q 16.75 56 26.8125 56 
Q 31.78125 56 36.171875 55.265625 
Q 40.578125 54.546875 44.28125 53.078125 
" id="BitstreamVeraSans-Roman-73"/>
     <path d="M 37.109375 75.984375 
L 37.109375 68.5 
L 28.515625 68.5 
Q 23.6875 68.5 21.796875 66.546875 
Q 19.921875 64.59375 19.921875 59.515625 
L 19.921875 54.6875 
L 34.71875 54.6875 
L 34.71875 47.703125 
L 19.921875 47.703125 
L 19.921875 0 
L 10.890625 0 
L 10.890625 47.703125 
L 2.296875 47.703125 
L 2.296875 54.6875 
L 10.890625 54.6875 
L 10.890625 58.5 
Q 10.890625 67.625 15.140625 71.796875 
Q 19.390625 75.984375 28.609375 75.984375 
z
" id="BitstreamVeraSans-Roman-66"/>
     <path d="M 34.28125 27.484375 
Q 23.390625 27.484375 19.1875 25 
Q 14.984375 22.515625 14.984375 16.5 
Q 14.984375 11.71875 18.140625 8.90625 
Q 21.296875 6.109375 26.703125 6.109375 
Q 34.1875 6.109375 38.703125 11.40625 
Q 43.21875 16.703125 43.21875 25.484375 
L 43.21875 27.484375 
z
M 52.203125 31.203125 
L 52.203125 0 
L 43.21875 0 
L 43.21875 8.296875 
Q 40.140625 3.328125 35.546875 0.953125 
Q 30.953125 -1.421875 24.3125 -1.421875 
Q 15.921875 -1.421875 10.953125 3.296875 
Q 6 8.015625 6 15.921875 
Q 6 25.140625 12.171875 29.828125 
Q 18.359375 34.515625 30.609375 34.515625 
L 43.21875 34.515625 
L 43.21875 35.40625 
Q 43.21875 41.609375 39.140625 45 
Q 35.0625 48.390625 27.6875 48.390625 
Q 23 48.390625 18.546875 47.265625 
Q 14.109375 46.140625 10.015625 43.890625 
L 10.015625 52.203125 
Q 14.9375 54.109375 19.578125 55.046875 
Q 24.21875 56 28.609375 56 
Q 40.484375 56 46.34375 49.84375 
Q 52.203125 43.703125 52.203125 31.203125 
" id="BitstreamVeraSans-Roman-61"/>
    </defs>
    <g transform="translate(277.2675 38.2)scale(0.144 -0.144)">
     <use xlink:href="#BitstreamVeraSans-Roman-66"/>
     <use x="35.205078125" xlink:href="#BitstreamVeraSans-Roman-61"/>
     <use x="96.484375" xlink:href="#BitstreamVeraSans-Roman-73"/>
     <use x="148.583984375" xlink:href="#BitstreamVeraSans-Roman-74"/>
     <use x="187.79296875" xlink:href="#BitstreamVeraSans-Roman-61"/>
    </g>
   </g>
   <g id="legend_1">
    <g id="patch_7">
     <path d="M 80 178.09625 
L 172.8125 178.09625 
L 172.8125 51.2 
L 80 51.2 
z
" style="fill:#4c4c4c;opacity:0.5;stroke:#4c4c4c;stroke-linejoin:miter;"/>
    </g>
    <g id="patch_8">
     <path d="M 78 176.09625 
L 170.8125 176.09625 
L 170.8125 49.2 
L 78 49.2 
z
" style="fill:#ffffff;stroke:#000000;stroke-linejoin:miter;"/>
    </g>
    <g id="LineCollection_8">
     <path d="M 86.4 64.918125 
L 86.4 52.918125 
" style="fill:none;stroke:#0000ff;"/>
     <path d="M 103.2 64.918125 
L 103.2 52.918125 
" style="fill:none;stroke:#0000ff;"/>
    </g>
    <g id="line2d_52">
     <g>
      <use style="fill:#0000ff;stroke:#0000ff;stroke-width:0.5;" x="86.4" xlink:href="#mb01146d00f" y="64.918125"/>
      <use style="fill:#0000ff;stroke:#0000ff;stroke-width:0.5;" x="103.2" xlink:href="#mb01146d00f" y="64.918125"/>
     </g>
    </g>
    <g id="line2d_53">
     <g>
      <use style="fill:#0000ff;stroke:#0000ff;stroke-width:0.5;" x="86.4" xlink:href="#mb01146d00f" y="52.918125"/>
      <use style="fill:#0000ff;stroke:#0000ff;stroke-width:0.5;" x="103.2" xlink:href="#mb01146d00f" y="52.918125"/>
     </g>
    </g>
    <g id="line2d_54">
     <path d="M 86.4 58.918125 
L 103.2 58.918125 
" style="fill:none;stroke:#0000ff;stroke-linecap:square;"/>
    </g>
    <g id="line2d_55"/>
    <g id="text_12">
     <!-- java -->
     <defs>
      <path d="M 2.984375 54.6875 
L 12.5 54.6875 
L 29.59375 8.796875 
L 46.6875 54.6875 
L 56.203125 54.6875 
L 35.6875 0 
L 23.484375 0 
z
" id="BitstreamVeraSans-Roman-76"/>
      <path d="M 9.421875 54.6875 
L 18.40625 54.6875 
L 18.40625 -0.984375 
Q 18.40625 -11.421875 14.421875 -16.109375 
Q 10.453125 -20.796875 1.609375 -20.796875 
L -1.8125 -20.796875 
L -1.8125 -13.1875 
L 0.59375 -13.1875 
Q 5.71875 -13.1875 7.5625 -10.8125 
Q 9.421875 -8.453125 9.421875 -0.984375 
z
M 9.421875 75.984375 
L 18.40625 75.984375 
L 18.40625 64.59375 
L 9.421875 64.59375 
z
" id="BitstreamVeraSans-Roman-6a"/>
     </defs>
     <g transform="translate(116.4 63.118125)scale(0.12 -0.12)">
      <use xlink:href="#BitstreamVeraSans-Roman-6a"/>
      <use x="27.783203125" xlink:href="#BitstreamVeraSans-Roman-61"/>
      <use x="89.0625" xlink:href="#BitstreamVeraSans-Roman-76"/>
      <use x="148.2421875" xlink:href="#BitstreamVeraSans-Roman-61"/>
     </g>
    </g>
    <g id="LineCollection_9">
     <path d="M 86.4 82.531875 
L 86.4 70.531875 
" style="fill:none;stroke:#008000;"/>
     <path d="M 103.2 82.531875 
L 103.2 70.531875 
" style="fill:none;stroke:#008000;"/>
    </g>
    <g id="line2d_56">
     <g>
      <use style="fill:#008000;stroke:#008000;stroke-width:0.5;" x="86.4" xlink:href="#m0423cda3ff" y="82.531875"/>
      <use style="fill:#008000;stroke:#008000;stroke-width:0.5;" x="103.2" xlink:href="#m0423cda3ff" y="82.531875"/>
     </g>
    </g>
    <g id="line2d_57">
     <g>
      <use style="fill:#008000;stroke:#008000;stroke-width:0.5;" x="86.4" xlink:href="#m0423cda3ff" y="70.531875"/>
      <use style="fill:#008000;stroke:#008000;stroke-width:0.5;" x="103.2" xlink:href="#m0423cda3ff" y="70.531875"/>
     </g>
    </g>
    <g id="line2d_58">
     <path d="M 86.4 76.531875 
L 103.2 76.531875 
" style="fill:none;stroke:#008000;stroke-linecap:square;"/>
    </g>
    <g id="line2d_59"/>
    <g id="text_13">
     <!-- js -->
     <g transform="translate(116.4 80.731875)scale(0.12 -0.12)">
      <use xlink:href="#BitstreamVeraSans-Roman-6a"/>
      <use x="27.783203125" xlink:href="#BitstreamVeraSans-Roman-73"/>
     </g>
    </g>
    <g id="LineCollection_10">
     <path d="M 86.4 100.145625 
L 86.4 88.145625 
" style="fill:none;stroke:#ff0000;"/>
     <path d="M 103.2 100.145625 
L 103.2 88.145625 
" style="fill:none;stroke:#ff0000;"/>
    </g>
    <g id="line2d_60">
     <g>
      <use style="fill:#ff0000;stroke:#ff0000;stroke-width:0.5;" x="86.4" xlink:href="#mcf72172ba7" y="100.145625"/>
      <use style="fill:#ff0000;stroke:#ff0000;stroke-width:0.5;" x="103.2" xlink:href="#mcf72172ba7" y="100.145625"/>
     </g>
    </g>
    <g id="line2d_61">
     <g>
      <use style="fill:#ff0000;stroke:#ff0000;stroke-width:0.5;" x="86.4" xlink:href="#mcf72172ba7" y="88.145625"/>
      <use style="fill:#ff0000;stroke:#ff0000;stroke-width:0.5;" x="103.2" xlink:href="#mcf72172ba7" y="88.145625"/>
     </g>
    </g>
    <g id="line2d_62">
     <path d="M 86.4 94.145625 
L 103.2 94.145625 
" style="fill:none;stroke:#ff0000;stroke-linecap:square;"/>
    </g>
    <g id="line2d_63"/>
    <g id="text_14">
     <!-- lua -->
     <defs>
      <path d="M 9.421875 75.984375 
L 18.40625 75.984375 
L 18.40625 0 
L 9.421875 0 
z
" id="BitstreamVeraSans-Roman-6c"/>
      <path d="M 8.5 21.578125 
L 8.5 54.6875 
L 17.484375 54.6875 
L 17.484375 21.921875 
Q 17.484375 14.15625 20.5 10.265625 
Q 23.53125 6.390625 29.59375 6.390625 
Q 36.859375 6.390625 41.078125 11.03125 
Q 45.3125 15.671875 45.3125 23.6875 
L 45.3125 54.6875 
L 54.296875 54.6875 
L 54.296875 0 
L 45.3125 0 
L 45.3125 8.40625 
Q 42.046875 3.421875 37.71875 1 
Q 33.40625 -1.421875 27.6875 -1.421875 
Q 18.265625 -1.421875 13.375 4.4375 
Q 8.5 10.296875 8.5 21.578125 
" id="BitstreamVeraSans-Roman-75"/>
     </defs>
     <g transform="translate(116.4 98.345625)scale(0.12 -0.12)">
      <use xlink:href="#BitstreamVeraSans-Roman-6c"/>
      <use x="27.783203125" xlink:href="#BitstreamVeraSans-Roman-75"/>
      <use x="91.162109375" xlink:href="#BitstreamVeraSans-Roman-61"/>
     </g>
    </g>
    <g id="LineCollection_11">
     <path d="M 86.4 117.759375 
L 86.4 105.759375 
" style="fill:none;stroke:#00bfbf;"/>
     <path d="M 103.2 117.759375 
L 103.2 105.759375 
" style="fill:none;stroke:#00bfbf;"/>
    </g>
    <g id="line2d_64">
     <g>
      <use style="fill:#00bfbf;stroke:#00bfbf;stroke-width:0.5;" x="86.4" xlink:href="#m4ab6a576b3" y="117.759375"/>
      <use style="fill:#00bfbf;stroke:#00bfbf;stroke-width:0.5;" x="103.2" xlink:href="#m4ab6a576b3" y="117.759375"/>
     </g>
    </g>
    <g id="line2d_65">
     <g>
      <use style="fill:#00bfbf;stroke:#00bfbf;stroke-width:0.5;" x="86.4" xlink:href="#m4ab6a576b3" y="105.759375"/>
      <use style="fill:#00bfbf;stroke:#00bfbf;stroke-width:0.5;" x="103.2" xlink:href="#m4ab6a576b3" y="105.759375"/>
     </g>
    </g>
    <g id="line2d_66">
     <path d="M 86.4 111.759375 
L 103.2 111.759375 
" style="fill:none;stroke:#00bfbf;stroke-linecap:square;"/>
    </g>
    <g id="line2d_67"/>
    <g id="text_15">
     <!-- luajit -->
     <defs>
      <path d="M 9.421875 54.6875 
L 18.40625 54.6875 
L 18.40625 0 
L 9.421875 0 
z
M 9.421875 75.984375 
L 18.40625 75.984375 
L 18.40625 64.59375 
L 9.421875 64.59375 
z
" id="BitstreamVeraSans-Roman-69"/>
     </defs>
     <g transform="translate(116.4 115.959375)scale(0.12 -0.12)">
      <use xlink:href="#BitstreamVeraSans-Roman-6c"/>
      <use x="27.783203125" xlink:href="#BitstreamVeraSans-Roman-75"/>
      <use x="91.162109375" xlink:href="#BitstreamVeraSans-Roman-61"/>
      <use x="152.44140625" xlink:href="#BitstreamVeraSans-Roman-6a"/>
      <use x="180.224609375" xlink:href="#BitstreamVeraSans-Roman-69"/>
      <use x="208.0078125" xlink:href="#BitstreamVeraSans-Roman-74"/>
     </g>
    </g>
    <g id="LineCollection_12">
     <path d="M 86.4 135.373125 
L 86.4 123.373125 
" style="fill:none;stroke:#bf00bf;"/>
     <path d="M 103.2 135.373125 
L 103.2 123.373125 
" style="fill:none;stroke:#bf00bf;"/>
    </g>
    <g id="line2d_68">
     <g>
      <use style="fill:#bf00bf;stroke:#bf00bf;stroke-width:0.5;" x="86.4" xlink:href="#mcd3001d35f" y="135.373125"/>
      <use style="fill:#bf00bf;stroke:#bf00bf;stroke-width:0.5;" x="103.2" xlink:href="#mcd3001d35f" y="135.373125"/>
     </g>
    </g>
    <g id="line2d_69">
     <g>
      <use style="fill:#bf00bf;stroke:#bf00bf;stroke-width:0.5;" x="86.4" xlink:href="#mcd3001d35f" y="123.373125"/>
      <use style="fill:#bf00bf;stroke:#bf00bf;stroke-width:0.5;" x="103.2" xlink:href="#mcd3001d35f" y="123.373125"/>
     </g>
    </g>
    <g id="line2d_70">
     <path d="M 86.4 129.373125 
L 103.2 129.373125 
" style="fill:none;stroke:#bf00bf;stroke-linecap:square;"/>
    </g>
    <g id="line2d_71"/>
    <g id="text_16">
     <!-- php -->
     <defs>
      <path d="M 18.109375 8.203125 
L 18.109375 -20.796875 
L 9.078125 -20.796875 
L 9.078125 54.6875 
L 18.109375 54.6875 
L 18.109375 46.390625 
Q 20.953125 51.265625 25.265625 53.625 
Q 29.59375 56 35.59375 56 
Q 45.5625 56 51.78125 48.09375 
Q 58.015625 40.1875 58.015625 27.296875 
Q 58.015625 14.40625 51.78125 6.484375 
Q 45.5625 -1.421875 35.59375 -1.421875 
Q 29.59375 -1.421875 25.265625 0.953125 
Q 20.953125 3.328125 18.109375 8.203125 
M 48.6875 27.296875 
Q 48.6875 37.203125 44.609375 42.84375 
Q 40.53125 48.484375 33.40625 48.484375 
Q 26.265625 48.484375 22.1875 42.84375 
Q 18.109375 37.203125 18.109375 27.296875 
Q 18.109375 17.390625 22.1875 11.75 
Q 26.265625 6.109375 33.40625 6.109375 
Q 40.53125 6.109375 44.609375 11.75 
Q 48.6875 17.390625 48.6875 27.296875 
" id="BitstreamVeraSans-Roman-70"/>
      <path d="M 54.890625 33.015625 
L 54.890625 0 
L 45.90625 0 
L 45.90625 32.71875 
Q 45.90625 40.484375 42.875 44.328125 
Q 39.84375 48.1875 33.796875 48.1875 
Q 26.515625 48.1875 22.3125 43.546875 
Q 18.109375 38.921875 18.109375 30.90625 
L 18.109375 0 
L 9.078125 0 
L 9.078125 75.984375 
L 18.109375 75.984375 
L 18.109375 46.1875 
Q 21.34375 51.125 25.703125 53.5625 
Q 30.078125 56 35.796875 56 
Q 45.21875 56 50.046875 50.171875 
Q 54.890625 44.34375 54.890625 33.015625 
" id="BitstreamVeraSans-Roman-68"/>
     </defs>
     <g transform="translate(116.4 133.573125)scale(0.12 -0.12)">
      <use xlink:href="#BitstreamVeraSans-Roman-70"/>
      <use x="63.4765625" xlink:href="#BitstreamVeraSans-Roman-68"/>
      <use x="126.85546875" xlink:href="#BitstreamVeraSans-Roman-70"/>
     </g>
    </g>
    <g id="LineCollection_13">
     <path d="M 86.4 152.986875 
L 86.4 140.986875 
" style="fill:none;stroke:#bfbf00;"/>
     <path d="M 103.2 152.986875 
L 103.2 140.986875 
" style="fill:none;stroke:#bfbf00;"/>
    </g>
    <g id="line2d_72">
     <g>
      <use style="fill:#bfbf00;stroke:#bfbf00;stroke-width:0.5;" x="86.4" xlink:href="#me537de6a29" y="152.986875"/>
      <use style="fill:#bfbf00;stroke:#bfbf00;stroke-width:0.5;" x="103.2" xlink:href="#me537de6a29" y="152.986875"/>
     </g>
    </g>
    <g id="line2d_73">
     <g>
      <use style="fill:#bfbf00;stroke:#bfbf00;stroke-width:0.5;" x="86.4" xlink:href="#me537de6a29" y="140.986875"/>
      <use style="fill:#bfbf00;stroke:#bfbf00;stroke-width:0.5;" x="103.2" xlink:href="#me537de6a29" y="140.986875"/>
     </g>
    </g>
    <g id="line2d_74">
     <path d="M 86.4 146.986875 
L 103.2 146.986875 
" style="fill:none;stroke:#bfbf00;stroke-linecap:square;"/>
    </g>
    <g id="line2d_75"/>
    <g id="text_17">
     <!-- pypy3 -->
     <defs>
      <path d="M 32.171875 -5.078125 
Q 28.375 -14.84375 24.75 -17.8125 
Q 21.140625 -20.796875 15.09375 -20.796875 
L 7.90625 -20.796875 
L 7.90625 -13.28125 
L 13.1875 -13.28125 
Q 16.890625 -13.28125 18.9375 -11.515625 
Q 21 -9.765625 23.484375 -3.21875 
L 25.09375 0.875 
L 2.984375 54.6875 
L 12.5 54.6875 
L 29.59375 11.921875 
L 46.6875 54.6875 
L 56.203125 54.6875 
z
" id="BitstreamVeraSans-Roman-79"/>
     </defs>
     <g transform="translate(116.4 151.186875)scale(0.12 -0.12)">
      <use xlink:href="#BitstreamVeraSans-Roman-70"/>
      <use x="63.4765625" xlink:href="#BitstreamVeraSans-Roman-79"/>
      <use x="122.65625" xlink:href="#BitstreamVeraSans-Roman-70"/>
      <use x="186.1328125" xlink:href="#BitstreamVeraSans-Roman-79"/>
      <use x="245.3125" xlink:href="#BitstreamVeraSans-Roman-33"/>
     </g>
    </g>
    <g id="LineCollection_14">
     <path d="M 86.4 170.600625 
L 86.4 158.600625 
" style="fill:none;stroke:#000000;"/>
     <path d="M 103.2 170.600625 
L 103.2 158.600625 
" style="fill:none;stroke:#000000;"/>
    </g>
    <g id="line2d_76">
     <g>
      <use style="stroke:#000000;stroke-width:0.5;" x="86.4" xlink:href="#m0b496a51d4" y="170.600625"/>
      <use style="stroke:#000000;stroke-width:0.5;" x="103.2" xlink:href="#m0b496a51d4" y="170.600625"/>
     </g>
    </g>
    <g id="line2d_77">
     <g>
      <use style="stroke:#000000;stroke-width:0.5;" x="86.4" xlink:href="#m0b496a51d4" y="158.600625"/>
      <use style="stroke:#000000;stroke-width:0.5;" x="103.2" xlink:href="#m0b496a51d4" y="158.600625"/>
     </g>
    </g>
    <g id="line2d_78">
     <path d="M 86.4 164.600625 
L 103.2 164.600625 
" style="fill:none;stroke:#000000;stroke-linecap:square;"/>
    </g>
    <g id="line2d_79"/>
    <g id="text_18">
     <!-- python3 -->
     <defs>
      <path d="M 30.609375 48.390625 
Q 23.390625 48.390625 19.1875 42.75 
Q 14.984375 37.109375 14.984375 27.296875 
Q 14.984375 17.484375 19.15625 11.84375 
Q 23.34375 6.203125 30.609375 6.203125 
Q 37.796875 6.203125 41.984375 11.859375 
Q 46.1875 17.53125 46.1875 27.296875 
Q 46.1875 37.015625 41.984375 42.703125 
Q 37.796875 48.390625 30.609375 48.390625 
M 30.609375 56 
Q 42.328125 56 49.015625 48.375 
Q 55.71875 40.765625 55.71875 27.296875 
Q 55.71875 13.875 49.015625 6.21875 
Q 42.328125 -1.421875 30.609375 -1.421875 
Q 18.84375 -1.421875 12.171875 6.21875 
Q 5.515625 13.875 5.515625 27.296875 
Q 5.515625 40.765625 12.171875 48.375 
Q 18.84375 56 30.609375 56 
" id="BitstreamVeraSans-Roman-6f"/>
      <path d="M 54.890625 33.015625 
L 54.890625 0 
L 45.90625 0 
L 45.90625 32.71875 
Q 45.90625 40.484375 42.875 44.328125 
Q 39.84375 48.1875 33.796875 48.1875 
Q 26.515625 48.1875 22.3125 43.546875 
Q 18.109375 38.921875 18.109375 30.90625 
L 18.109375 0 
L 9.078125 0 
L 9.078125 54.6875 
L 18.109375 54.6875 
L 18.109375 46.1875 
Q 21.34375 51.125 25.703125 53.5625 
Q 30.078125 56 35.796875 56 
Q 45.21875 56 50.046875 50.171875 
Q 54.890625 44.34375 54.890625 33.015625 
" id="BitstreamVeraSans-Roman-6e"/>
     </defs>
     <g transform="translate(116.4 168.800625)scale(0.12 -0.12)">
      <use xlink:href="#BitstreamVeraSans-Roman-70"/>
      <use x="63.4765625" xlink:href="#BitstreamVeraSans-Roman-79"/>
      <use x="122.65625" xlink:href="#BitstreamVeraSans-Roman-74"/>
      <use x="161.865234375" xlink:href="#BitstreamVeraSans-Roman-68"/>
      <use x="225.244140625" xlink:href="#BitstreamVeraSans-Roman-6f"/>
      <use x="286.42578125" xlink:href="#BitstreamVeraSans-Roman-6e"/>
      <use x="349.8046875" xlink:href="#BitstreamVeraSans-Roman-33"/>
     </g>
    </g>
   </g>
  </g>
 </g>
 <defs>
  <clipPath id="p354196a4b6">
   <rect height="345.6" width="446.4" x="72.0" y="43.2"/>
  </clipPath>
 </defs>
</svg>
