<?xml version="1.0" encoding="utf-8" standalone="no"?>
<!DOCTYPE svg PUBLIC "-//W3C//DTD SVG 1.1//EN"
  "http://www.w3.org/Graphics/SVG/1.1/DTD/svg11.dtd">
<!-- Created with matplotlib (http://matplotlib.org/) -->
<svg height="432pt" version="1.1" viewBox="0 0 576 432" width="576pt" xmlns="http://www.w3.org/2000/svg" xmlns:xlink="http://www.w3.org/1999/xlink">
 <defs>
  <style type="text/css">
*{stroke-linecap:butt;stroke-linejoin:round;stroke-miterlimit:100000;}
  </style>
 </defs>
 <g id="figure_1">
  <g id="patch_1">
   <path d="M 0 432 
L 576 432 
L 576 0 
L 0 0 
z
" style="fill:#ffffff;"/>
  </g>
  <g id="axes_1">
   <g id="patch_2">
    <path d="M 72 388.8 
L 518.4 388.8 
L 518.4 43.2 
L 72 43.2 
z
" style="fill:#ffffff;"/>
   </g>
   <g id="LineCollection_1">
    <path clip-path="url(#p1d87ef515c)" d="M 92.290909 372.613001 
L 92.290909 372.502714 
" style="fill:none;stroke:#0000ff;"/>
    <path clip-path="url(#p1d87ef515c)" d="M 254.618182 372.338916 
L 254.618182 372.258044 
" style="fill:none;stroke:#0000ff;"/>
    <path clip-path="url(#p1d87ef515c)" d="M 498.109091 371.97579 
L 498.109091 371.914519 
" style="fill:none;stroke:#0000ff;"/>
   </g>
   <g id="LineCollection_2">
    <path clip-path="url(#p1d87ef515c)" d="M 92.290909 372.537228 
L 92.290909 372.517217 
" style="fill:none;stroke:#008000;"/>
    <path clip-path="url(#p1d87ef515c)" d="M 254.618182 371.951282 
L 254.618182 371.877757 
" style="fill:none;stroke:#008000;"/>
    <path clip-path="url(#p1d87ef515c)" d="M 498.109091 370.776207 
L 498.109091 370.495818 
" style="fill:none;stroke:#008000;"/>
   </g>
   <g id="LineCollection_3">
    <path clip-path="url(#p1d87ef515c)" d="M 92.290909 348.987175 
L 92.290909 348.509267 
" style="fill:none;stroke:#ff0000;"/>
    <path clip-path="url(#p1d87ef515c)" d="M 254.618182 332.642291 
L 254.618182 332.295116 
" style="fill:none;stroke:#ff0000;"/>
    <path clip-path="url(#p1d87ef515c)" d="M 498.109091 301.465934 
L 498.109091 299.848399 
" style="fill:none;stroke:#ff0000;"/>
   </g>
   <g id="LineCollection_4">
    <path clip-path="url(#p1d87ef515c)" d="M 92.290909 373.127671 
L 92.290909 373.054147 
" style="fill:none;stroke:#00bfbf;"/>
    <path clip-path="url(#p1d87ef515c)" d="M 254.618182 372.569391 
L 254.618182 372.239972 
" style="fill:none;stroke:#00bfbf;"/>
    <path clip-path="url(#p1d87ef515c)" d="M 498.109091 371.338579 
L 498.109091 371.203784 
" style="fill:none;stroke:#00bfbf;"/>
   </g>
   <g id="LineCollection_5">
    <path clip-path="url(#p1d87ef515c)" d="M 92.290909 369.450389 
L 92.290909 369.04405 
" style="fill:none;stroke:#bf00bf;"/>
    <path clip-path="url(#p1d87ef515c)" d="M 254.618182 368.556907 
L 254.618182 368.471129 
" style="fill:none;stroke:#bf00bf;"/>
    <path clip-path="url(#p1d87ef515c)" d="M 498.109091 366.880983 
L 498.109091 366.646477 
" style="fill:none;stroke:#bf00bf;"/>
   </g>
   <g id="LineCollection_6">
    <path clip-path="url(#p1d87ef515c)" d="M 92.290909 368.989029 
L 92.290909 368.794674 
" style="fill:none;stroke:#bfbf00;"/>
    <path clip-path="url(#p1d87ef515c)" d="M 254.618182 366.351177 
L 254.618182 366.326669 
" style="fill:none;stroke:#bfbf00;"/>
    <path clip-path="url(#p1d87ef515c)" d="M 498.109091 361.301573 
L 498.109091 360.192402 
" style="fill:none;stroke:#bfbf00;"/>
   </g>
   <g id="LineCollection_7">
    <path clip-path="url(#p1d87ef515c)" d="M 92.290909 266.786947 
L 92.290909 266.688915 
" style="fill:none;stroke:#000000;"/>
    <path clip-path="url(#p1d87ef515c)" d="M 254.618182 200.153715 
L 254.618182 196.697559 
" style="fill:none;stroke:#000000;"/>
    <path clip-path="url(#p1d87ef515c)" d="M 498.109091 63.73719 
L 498.109091 54.080992 
" style="fill:none;stroke:#000000;"/>
   </g>
   <g id="line2d_1">
    <defs>
     <path d="M 3 0 
L -3 -0 
" id="md8994107c4" style="stroke:#0000ff;stroke-width:0.5;"/>
    </defs>
    <g clip-path="url(#p1d87ef515c)">
     <use style="fill:#0000ff;stroke:#0000ff;stroke-width:0.5;" x="92.2909090909" xlink:href="#md8994107c4" y="372.613000791"/>
     <use style="fill:#0000ff;stroke:#0000ff;stroke-width:0.5;" x="254.618181818" xlink:href="#md8994107c4" y="372.338916275"/>
     <use style="fill:#0000ff;stroke:#0000ff;stroke-width:0.5;" x="498.109090909" xlink:href="#md8994107c4" y="371.975789724"/>
    </g>
   </g>
   <g id="line2d_2">
    <g clip-path="url(#p1d87ef515c)">
     <use style="fill:#0000ff;stroke:#0000ff;stroke-width:0.5;" x="92.2909090909" xlink:href="#md8994107c4" y="372.50271426"/>
     <use style="fill:#0000ff;stroke:#0000ff;stroke-width:0.5;" x="254.618181818" xlink:href="#md8994107c4" y="372.258043612"/>
     <use style="fill:#0000ff;stroke:#0000ff;stroke-width:0.5;" x="498.109090909" xlink:href="#md8994107c4" y="371.914519429"/>
    </g>
   </g>
   <g id="line2d_3">
    <path clip-path="url(#p1d87ef515c)" d="M 92.290909 372.557858 
L 254.618182 372.29848 
L 498.109091 371.945155 
" style="fill:none;stroke:#0000ff;stroke-linecap:square;"/>
   </g>
   <g id="line2d_4">
    <defs>
     <path d="M 3 0 
L -3 -0 
" id="mb9c3793691" style="stroke:#008000;stroke-width:0.5;"/>
    </defs>
    <g clip-path="url(#p1d87ef515c)">
     <use style="fill:#008000;stroke:#008000;stroke-width:0.5;" x="92.2909090909" xlink:href="#mb9c3793691" y="372.537227775"/>
     <use style="fill:#008000;stroke:#008000;stroke-width:0.5;" x="254.618181818" xlink:href="#mb9c3793691" y="371.951281606"/>
     <use style="fill:#008000;stroke:#008000;stroke-width:0.5;" x="498.109090909" xlink:href="#mb9c3793691" y="370.776207232"/>
    </g>
   </g>
   <g id="line2d_5">
    <g clip-path="url(#p1d87ef515c)">
     <use style="fill:#008000;stroke:#008000;stroke-width:0.5;" x="92.2909090909" xlink:href="#mb9c3793691" y="372.517216981"/>
     <use style="fill:#008000;stroke:#008000;stroke-width:0.5;" x="254.618181818" xlink:href="#mb9c3793691" y="371.877757252"/>
     <use style="fill:#008000;stroke:#008000;stroke-width:0.5;" x="498.109090909" xlink:href="#mb9c3793691" y="370.495817986"/>
    </g>
   </g>
   <g id="line2d_6">
    <path clip-path="url(#p1d87ef515c)" d="M 92.290909 372.527222 
L 254.618182 371.914519 
L 498.109091 370.636013 
" style="fill:none;stroke:#008000;stroke-linecap:square;"/>
   </g>
   <g id="line2d_7">
    <defs>
     <path d="M 3 0 
L -3 -0 
" id="mf61135cbe5" style="stroke:#ff0000;stroke-width:0.5;"/>
    </defs>
    <g clip-path="url(#p1d87ef515c)">
     <use style="fill:#ff0000;stroke:#ff0000;stroke-width:0.5;" x="92.2909090909" xlink:href="#mf61135cbe5" y="348.987175078"/>
     <use style="fill:#ff0000;stroke:#ff0000;stroke-width:0.5;" x="254.618181818" xlink:href="#mf61135cbe5" y="332.642290728"/>
     <use style="fill:#ff0000;stroke:#ff0000;stroke-width:0.5;" x="498.109090909" xlink:href="#mf61135cbe5" y="301.465934354"/>
    </g>
   </g>
   <g id="line2d_8">
    <g clip-path="url(#p1d87ef515c)">
     <use style="fill:#ff0000;stroke:#ff0000;stroke-width:0.5;" x="92.2909090909" xlink:href="#mf61135cbe5" y="348.509266778"/>
     <use style="fill:#ff0000;stroke:#ff0000;stroke-width:0.5;" x="254.618181818" xlink:href="#mf61135cbe5" y="332.295116418"/>
     <use style="fill:#ff0000;stroke:#ff0000;stroke-width:0.5;" x="498.109090909" xlink:href="#mf61135cbe5" y="299.848398569"/>
    </g>
   </g>
   <g id="line2d_9">
    <path clip-path="url(#p1d87ef515c)" d="M 92.290909 348.748221 
L 254.618182 332.468704 
L 498.109091 300.657166 
" style="fill:none;stroke:#ff0000;stroke-linecap:square;"/>
   </g>
   <g id="line2d_10">
    <defs>
     <path d="M 3 0 
L -3 -0 
" id="md6ceb5c1b4" style="stroke:#00bfbf;stroke-width:0.5;"/>
    </defs>
    <g clip-path="url(#p1d87ef515c)">
     <use style="fill:#00bfbf;stroke:#00bfbf;stroke-width:0.5;" x="92.2909090909" xlink:href="#md6ceb5c1b4" y="373.127671268"/>
     <use style="fill:#00bfbf;stroke:#00bfbf;stroke-width:0.5;" x="254.618181818" xlink:href="#md6ceb5c1b4" y="372.569391414"/>
     <use style="fill:#00bfbf;stroke:#00bfbf;stroke-width:0.5;" x="498.109090909" xlink:href="#md6ceb5c1b4" y="371.338578657"/>
    </g>
   </g>
   <g id="line2d_11">
    <g clip-path="url(#p1d87ef515c)">
     <use style="fill:#00bfbf;stroke:#00bfbf;stroke-width:0.5;" x="92.2909090909" xlink:href="#md6ceb5c1b4" y="373.054146914"/>
     <use style="fill:#00bfbf;stroke:#00bfbf;stroke-width:0.5;" x="254.618181818" xlink:href="#md6ceb5c1b4" y="372.239972162"/>
     <use style="fill:#00bfbf;stroke:#00bfbf;stroke-width:0.5;" x="498.109090909" xlink:href="#md6ceb5c1b4" y="371.203784008"/>
    </g>
   </g>
   <g id="line2d_12">
    <path clip-path="url(#p1d87ef515c)" d="M 92.290909 373.090909 
L 254.618182 372.404682 
L 498.109091 371.271181 
" style="fill:none;stroke:#00bfbf;stroke-linecap:square;"/>
   </g>
   <g id="line2d_13">
    <defs>
     <path d="M 3 0 
L -3 -0 
" id="m7dbaeebe74" style="stroke:#bf00bf;stroke-width:0.5;"/>
    </defs>
    <g clip-path="url(#p1d87ef515c)">
     <use style="fill:#bf00bf;stroke:#bf00bf;stroke-width:0.5;" x="92.2909090909" xlink:href="#m7dbaeebe74" y="369.45038878"/>
     <use style="fill:#bf00bf;stroke:#bf00bf;stroke-width:0.5;" x="254.618181818" xlink:href="#m7dbaeebe74" y="368.556907268"/>
     <use style="fill:#bf00bf;stroke:#bf00bf;stroke-width:0.5;" x="498.109090909" xlink:href="#m7dbaeebe74" y="366.880982527"/>
    </g>
   </g>
   <g id="line2d_14">
    <g clip-path="url(#p1d87ef515c)">
     <use style="fill:#bf00bf;stroke:#bf00bf;stroke-width:0.5;" x="92.2909090909" xlink:href="#m7dbaeebe74" y="369.044049735"/>
     <use style="fill:#bf00bf;stroke:#bf00bf;stroke-width:0.5;" x="254.618181818" xlink:href="#m7dbaeebe74" y="368.471128856"/>
     <use style="fill:#bf00bf;stroke:#bf00bf;stroke-width:0.5;" x="498.109090909" xlink:href="#m7dbaeebe74" y="366.646477415"/>
    </g>
   </g>
   <g id="line2d_15">
    <path clip-path="url(#p1d87ef515c)" d="M 92.290909 369.247219 
L 254.618182 368.514018 
L 498.109091 366.76373 
" style="fill:none;stroke:#bf00bf;stroke-linecap:square;"/>
   </g>
   <g id="line2d_16">
    <defs>
     <path d="M 3 0 
L -3 -0 
" id="m0adad8b81d" style="stroke:#bfbf00;stroke-width:0.5;"/>
    </defs>
    <g clip-path="url(#p1d87ef515c)">
     <use style="fill:#bfbf00;stroke:#bfbf00;stroke-width:0.5;" x="92.2909090909" xlink:href="#m0adad8b81d" y="368.989029317"/>
     <use style="fill:#bfbf00;stroke:#bfbf00;stroke-width:0.5;" x="254.618181818" xlink:href="#m0adad8b81d" y="366.351176652"/>
     <use style="fill:#bfbf00;stroke:#bfbf00;stroke-width:0.5;" x="498.109090909" xlink:href="#m0adad8b81d" y="361.301572503"/>
    </g>
   </g>
   <g id="line2d_17">
    <g clip-path="url(#p1d87ef515c)">
     <use style="fill:#bfbf00;stroke:#bfbf00;stroke-width:0.5;" x="92.2909090909" xlink:href="#m0adad8b81d" y="368.794673778"/>
     <use style="fill:#bfbf00;stroke:#bfbf00;stroke-width:0.5;" x="254.618181818" xlink:href="#m0adad8b81d" y="366.326668534"/>
     <use style="fill:#bfbf00;stroke:#bfbf00;stroke-width:0.5;" x="498.109090909" xlink:href="#m0adad8b81d" y="360.192401521"/>
    </g>
   </g>
   <g id="line2d_18">
    <path clip-path="url(#p1d87ef515c)" d="M 92.290909 368.891852 
L 254.618182 366.338923 
L 498.109091 360.746987 
" style="fill:none;stroke:#bfbf00;stroke-linecap:square;"/>
   </g>
   <g id="line2d_19">
    <defs>
     <path d="M 3 0 
L -3 -0 
" id="mc8b8eb2170" style="stroke:#000000;stroke-width:0.5;"/>
    </defs>
    <g clip-path="url(#p1d87ef515c)">
     <use style="stroke:#000000;stroke-width:0.5;" x="92.2909090909" xlink:href="#mc8b8eb2170" y="266.786947442"/>
     <use style="stroke:#000000;stroke-width:0.5;" x="254.618181818" xlink:href="#mc8b8eb2170" y="200.153715273"/>
     <use style="stroke:#000000;stroke-width:0.5;" x="498.109090909" xlink:href="#mc8b8eb2170" y="63.7371901471"/>
    </g>
   </g>
   <g id="line2d_20">
    <g clip-path="url(#p1d87ef515c)">
     <use style="stroke:#000000;stroke-width:0.5;" x="92.2909090909" xlink:href="#mc8b8eb2170" y="266.68891497"/>
     <use style="stroke:#000000;stroke-width:0.5;" x="254.618181818" xlink:href="#mc8b8eb2170" y="196.697558886"/>
     <use style="stroke:#000000;stroke-width:0.5;" x="498.109090909" xlink:href="#mc8b8eb2170" y="54.0809916711"/>
    </g>
   </g>
   <g id="line2d_21">
    <path clip-path="url(#p1d87ef515c)" d="M 92.290909 266.737931 
L 254.618182 198.425637 
L 498.109091 58.909091 
" style="fill:none;stroke:#000000;stroke-linecap:square;"/>
   </g>
   <g id="patch_3">
    <path d="M 72 388.8 
L 72 43.2 
" style="fill:none;stroke:#000000;stroke-linecap:square;stroke-linejoin:miter;"/>
   </g>
   <g id="patch_4">
    <path d="M 518.4 388.8 
L 518.4 43.2 
" style="fill:none;stroke:#000000;stroke-linecap:square;stroke-linejoin:miter;"/>
   </g>
   <g id="patch_5">
    <path d="M 72 43.2 
L 518.4 43.2 
" style="fill:none;stroke:#000000;stroke-linecap:square;stroke-linejoin:miter;"/>
   </g>
   <g id="patch_6">
    <path d="M 72 388.8 
L 518.4 388.8 
" style="fill:none;stroke:#000000;stroke-linecap:square;stroke-linejoin:miter;"/>
   </g>
   <g id="matplotlib.axis_1">
    <g id="xtick_1">
     <g id="line2d_22">
      <path clip-path="url(#p1d87ef515c)" d="M 92.290909 388.8 
L 92.290909 43.2 
" style="fill:none;stroke:#000000;stroke-dasharray:1.000000,3.000000;stroke-dashoffset:0.0;stroke-width:0.5;"/>
     </g>
     <g id="line2d_23">
      <defs>
       <path d="M 0 0 
L 0 -4 
" id="mb63c194616" style="stroke:#000000;stroke-width:0.5;"/>
      </defs>
      <g>
       <use style="stroke:#000000;stroke-width:0.5;" x="92.2909090909" xlink:href="#mb63c194616" y="388.8"/>
      </g>
     </g>
     <g id="line2d_24">
      <defs>
       <path d="M 0 0 
L 0 4 
" id="mc15eb5df06" style="stroke:#000000;stroke-width:0.5;"/>
      </defs>
      <g>
       <use style="stroke:#000000;stroke-width:0.5;" x="92.2909090909" xlink:href="#mc15eb5df06" y="43.2"/>
      </g>
     </g>
     <g id="text_1">
      <!-- 700 -->
      <defs>
       <path d="M 31.78125 66.40625 
Q 24.171875 66.40625 20.328125 58.90625 
Q 16.5 51.421875 16.5 36.375 
Q 16.5 21.390625 20.328125 13.890625 
Q 24.171875 6.390625 31.78125 6.390625 
Q 39.453125 6.390625 43.28125 13.890625 
Q 47.125 21.390625 47.125 36.375 
Q 47.125 51.421875 43.28125 58.90625 
Q 39.453125 66.40625 31.78125 66.40625 
M 31.78125 74.21875 
Q 44.046875 74.21875 50.515625 64.515625 
Q 56.984375 54.828125 56.984375 36.375 
Q 56.984375 17.96875 50.515625 8.265625 
Q 44.046875 -1.421875 31.78125 -1.421875 
Q 19.53125 -1.421875 13.0625 8.265625 
Q 6.59375 17.96875 6.59375 36.375 
Q 6.59375 54.828125 13.0625 64.515625 
Q 19.53125 74.21875 31.78125 74.21875 
" id="BitstreamVeraSans-Roman-30"/>
       <path d="M 8.203125 72.90625 
L 55.078125 72.90625 
L 55.078125 68.703125 
L 28.609375 0 
L 18.3125 0 
L 43.21875 64.59375 
L 8.203125 64.59375 
z
" id="BitstreamVeraSans-Roman-37"/>
      </defs>
      <g transform="translate(80.8384090909 401.918125)scale(0.12 -0.12)">
       <use xlink:href="#BitstreamVeraSans-Roman-37"/>
       <use x="63.623046875" xlink:href="#BitstreamVeraSans-Roman-30"/>
       <use x="127.24609375" xlink:href="#BitstreamVeraSans-Roman-30"/>
      </g>
     </g>
    </g>
    <g id="xtick_2">
     <g id="line2d_25">
      <path clip-path="url(#p1d87ef515c)" d="M 173.454545 388.8 
L 173.454545 43.2 
" style="fill:none;stroke:#000000;stroke-dasharray:1.000000,3.000000;stroke-dashoffset:0.0;stroke-width:0.5;"/>
     </g>
     <g id="line2d_26">
      <g>
       <use style="stroke:#000000;stroke-width:0.5;" x="173.454545455" xlink:href="#mb63c194616" y="388.8"/>
      </g>
     </g>
     <g id="line2d_27">
      <g>
       <use style="stroke:#000000;stroke-width:0.5;" x="173.454545455" xlink:href="#mc15eb5df06" y="43.2"/>
      </g>
     </g>
     <g id="text_2">
      <!-- 800 -->
      <defs>
       <path d="M 31.78125 34.625 
Q 24.75 34.625 20.71875 30.859375 
Q 16.703125 27.09375 16.703125 20.515625 
Q 16.703125 13.921875 20.71875 10.15625 
Q 24.75 6.390625 31.78125 6.390625 
Q 38.8125 6.390625 42.859375 10.171875 
Q 46.921875 13.96875 46.921875 20.515625 
Q 46.921875 27.09375 42.890625 30.859375 
Q 38.875 34.625 31.78125 34.625 
M 21.921875 38.8125 
Q 15.578125 40.375 12.03125 44.71875 
Q 8.5 49.078125 8.5 55.328125 
Q 8.5 64.0625 14.71875 69.140625 
Q 20.953125 74.21875 31.78125 74.21875 
Q 42.671875 74.21875 48.875 69.140625 
Q 55.078125 64.0625 55.078125 55.328125 
Q 55.078125 49.078125 51.53125 44.71875 
Q 48 40.375 41.703125 38.8125 
Q 48.828125 37.15625 52.796875 32.3125 
Q 56.78125 27.484375 56.78125 20.515625 
Q 56.78125 9.90625 50.3125 4.234375 
Q 43.84375 -1.421875 31.78125 -1.421875 
Q 19.734375 -1.421875 13.25 4.234375 
Q 6.78125 9.90625 6.78125 20.515625 
Q 6.78125 27.484375 10.78125 32.3125 
Q 14.796875 37.15625 21.921875 38.8125 
M 18.3125 54.390625 
Q 18.3125 48.734375 21.84375 45.5625 
Q 25.390625 42.390625 31.78125 42.390625 
Q 38.140625 42.390625 41.71875 45.5625 
Q 45.3125 48.734375 45.3125 54.390625 
Q 45.3125 60.0625 41.71875 63.234375 
Q 38.140625 66.40625 31.78125 66.40625 
Q 25.390625 66.40625 21.84375 63.234375 
Q 18.3125 60.0625 18.3125 54.390625 
" id="BitstreamVeraSans-Roman-38"/>
      </defs>
      <g transform="translate(162.002045455 401.918125)scale(0.12 -0.12)">
       <use xlink:href="#BitstreamVeraSans-Roman-38"/>
       <use x="63.623046875" xlink:href="#BitstreamVeraSans-Roman-30"/>
       <use x="127.24609375" xlink:href="#BitstreamVeraSans-Roman-30"/>
      </g>
     </g>
    </g>
    <g id="xtick_3">
     <g id="line2d_28">
      <path clip-path="url(#p1d87ef515c)" d="M 254.618182 388.8 
L 254.618182 43.2 
" style="fill:none;stroke:#000000;stroke-dasharray:1.000000,3.000000;stroke-dashoffset:0.0;stroke-width:0.5;"/>
     </g>
     <g id="line2d_29">
      <g>
       <use style="stroke:#000000;stroke-width:0.5;" x="254.618181818" xlink:href="#mb63c194616" y="388.8"/>
      </g>
     </g>
     <g id="line2d_30">
      <g>
       <use style="stroke:#000000;stroke-width:0.5;" x="254.618181818" xlink:href="#mc15eb5df06" y="43.2"/>
      </g>
     </g>
     <g id="text_3">
      <!-- 900 -->
      <defs>
       <path d="M 10.984375 1.515625 
L 10.984375 10.5 
Q 14.703125 8.734375 18.5 7.8125 
Q 22.3125 6.890625 25.984375 6.890625 
Q 35.75 6.890625 40.890625 13.453125 
Q 46.046875 20.015625 46.78125 33.40625 
Q 43.953125 29.203125 39.59375 26.953125 
Q 35.25 24.703125 29.984375 24.703125 
Q 19.046875 24.703125 12.671875 31.3125 
Q 6.296875 37.9375 6.296875 49.421875 
Q 6.296875 60.640625 12.9375 67.421875 
Q 19.578125 74.21875 30.609375 74.21875 
Q 43.265625 74.21875 49.921875 64.515625 
Q 56.59375 54.828125 56.59375 36.375 
Q 56.59375 19.140625 48.40625 8.859375 
Q 40.234375 -1.421875 26.421875 -1.421875 
Q 22.703125 -1.421875 18.890625 -0.6875 
Q 15.09375 0.046875 10.984375 1.515625 
M 30.609375 32.421875 
Q 37.25 32.421875 41.125 36.953125 
Q 45.015625 41.5 45.015625 49.421875 
Q 45.015625 57.28125 41.125 61.84375 
Q 37.25 66.40625 30.609375 66.40625 
Q 23.96875 66.40625 20.09375 61.84375 
Q 16.21875 57.28125 16.21875 49.421875 
Q 16.21875 41.5 20.09375 36.953125 
Q 23.96875 32.421875 30.609375 32.421875 
" id="BitstreamVeraSans-Roman-39"/>
      </defs>
      <g transform="translate(243.165681818 401.918125)scale(0.12 -0.12)">
       <use xlink:href="#BitstreamVeraSans-Roman-39"/>
       <use x="63.623046875" xlink:href="#BitstreamVeraSans-Roman-30"/>
       <use x="127.24609375" xlink:href="#BitstreamVeraSans-Roman-30"/>
      </g>
     </g>
    </g>
    <g id="xtick_4">
     <g id="line2d_31">
      <path clip-path="url(#p1d87ef515c)" d="M 335.781818 388.8 
L 335.781818 43.2 
" style="fill:none;stroke:#000000;stroke-dasharray:1.000000,3.000000;stroke-dashoffset:0.0;stroke-width:0.5;"/>
     </g>
     <g id="line2d_32">
      <g>
       <use style="stroke:#000000;stroke-width:0.5;" x="335.781818182" xlink:href="#mb63c194616" y="388.8"/>
      </g>
     </g>
     <g id="line2d_33">
      <g>
       <use style="stroke:#000000;stroke-width:0.5;" x="335.781818182" xlink:href="#mc15eb5df06" y="43.2"/>
      </g>
     </g>
     <g id="text_4">
      <!-- 1000 -->
      <defs>
       <path d="M 12.40625 8.296875 
L 28.515625 8.296875 
L 28.515625 63.921875 
L 10.984375 60.40625 
L 10.984375 69.390625 
L 28.421875 72.90625 
L 38.28125 72.90625 
L 38.28125 8.296875 
L 54.390625 8.296875 
L 54.390625 0 
L 12.40625 0 
z
" id="BitstreamVeraSans-Roman-31"/>
      </defs>
      <g transform="translate(320.511818182 401.918125)scale(0.12 -0.12)">
       <use xlink:href="#BitstreamVeraSans-Roman-31"/>
       <use x="63.623046875" xlink:href="#BitstreamVeraSans-Roman-30"/>
       <use x="127.24609375" xlink:href="#BitstreamVeraSans-Roman-30"/>
       <use x="190.869140625" xlink:href="#BitstreamVeraSans-Roman-30"/>
      </g>
     </g>
    </g>
    <g id="xtick_5">
     <g id="line2d_34">
      <path clip-path="url(#p1d87ef515c)" d="M 416.945455 388.8 
L 416.945455 43.2 
" style="fill:none;stroke:#000000;stroke-dasharray:1.000000,3.000000;stroke-dashoffset:0.0;stroke-width:0.5;"/>
     </g>
     <g id="line2d_35">
      <g>
       <use style="stroke:#000000;stroke-width:0.5;" x="416.945454545" xlink:href="#mb63c194616" y="388.8"/>
      </g>
     </g>
     <g id="line2d_36">
      <g>
       <use style="stroke:#000000;stroke-width:0.5;" x="416.945454545" xlink:href="#mc15eb5df06" y="43.2"/>
      </g>
     </g>
     <g id="text_5">
      <!-- 1100 -->
      <g transform="translate(401.675454545 401.918125)scale(0.12 -0.12)">
       <use xlink:href="#BitstreamVeraSans-Roman-31"/>
       <use x="63.623046875" xlink:href="#BitstreamVeraSans-Roman-31"/>
       <use x="127.24609375" xlink:href="#BitstreamVeraSans-Roman-30"/>
       <use x="190.869140625" xlink:href="#BitstreamVeraSans-Roman-30"/>
      </g>
     </g>
    </g>
    <g id="xtick_6">
     <g id="line2d_37">
      <path clip-path="url(#p1d87ef515c)" d="M 498.109091 388.8 
L 498.109091 43.2 
" style="fill:none;stroke:#000000;stroke-dasharray:1.000000,3.000000;stroke-dashoffset:0.0;stroke-width:0.5;"/>
     </g>
     <g id="line2d_38">
      <g>
       <use style="stroke:#000000;stroke-width:0.5;" x="498.109090909" xlink:href="#mb63c194616" y="388.8"/>
      </g>
     </g>
     <g id="line2d_39">
      <g>
       <use style="stroke:#000000;stroke-width:0.5;" x="498.109090909" xlink:href="#mc15eb5df06" y="43.2"/>
      </g>
     </g>
     <g id="text_6">
      <!-- 1200 -->
      <defs>
       <path d="M 19.1875 8.296875 
L 53.609375 8.296875 
L 53.609375 0 
L 7.328125 0 
L 7.328125 8.296875 
Q 12.9375 14.109375 22.625 23.890625 
Q 32.328125 33.6875 34.8125 36.53125 
Q 39.546875 41.84375 41.421875 45.53125 
Q 43.3125 49.21875 43.3125 52.78125 
Q 43.3125 58.59375 39.234375 62.25 
Q 35.15625 65.921875 28.609375 65.921875 
Q 23.96875 65.921875 18.8125 64.3125 
Q 13.671875 62.703125 7.8125 59.421875 
L 7.8125 69.390625 
Q 13.765625 71.78125 18.9375 73 
Q 24.125 74.21875 28.421875 74.21875 
Q 39.75 74.21875 46.484375 68.546875 
Q 53.21875 62.890625 53.21875 53.421875 
Q 53.21875 48.921875 51.53125 44.890625 
Q 49.859375 40.875 45.40625 35.40625 
Q 44.1875 33.984375 37.640625 27.21875 
Q 31.109375 20.453125 19.1875 8.296875 
" id="BitstreamVeraSans-Roman-32"/>
      </defs>
      <g transform="translate(482.839090909 401.918125)scale(0.12 -0.12)">
       <use xlink:href="#BitstreamVeraSans-Roman-31"/>
       <use x="63.623046875" xlink:href="#BitstreamVeraSans-Roman-32"/>
       <use x="127.24609375" xlink:href="#BitstreamVeraSans-Roman-30"/>
       <use x="190.869140625" xlink:href="#BitstreamVeraSans-Roman-30"/>
      </g>
     </g>
    </g>
   </g>
   <g id="matplotlib.axis_2">
    <g id="ytick_1">
     <g id="line2d_40">
      <path clip-path="url(#p1d87ef515c)" d="M 72 374.095742 
L 518.4 374.095742 
" style="fill:none;stroke:#000000;stroke-dasharray:1.000000,3.000000;stroke-dashoffset:0.0;stroke-width:0.5;"/>
     </g>
     <g id="line2d_41">
      <defs>
       <path d="M 0 0 
L 4 0 
" id="m8299633205" style="stroke:#000000;stroke-width:0.5;"/>
      </defs>
      <g>
       <use style="stroke:#000000;stroke-width:0.5;" x="72.0" xlink:href="#m8299633205" y="374.095741927"/>
      </g>
     </g>
     <g id="line2d_42">
      <defs>
       <path d="M 0 0 
L -4 0 
" id="m0d82053349" style="stroke:#000000;stroke-width:0.5;"/>
      </defs>
      <g>
       <use style="stroke:#000000;stroke-width:0.5;" x="518.4" xlink:href="#m0d82053349" y="374.095741927"/>
      </g>
     </g>
     <g id="text_7">
      <!-- 0 -->
      <g transform="translate(60.365 377.406991927)scale(0.12 -0.12)">
       <use xlink:href="#BitstreamVeraSans-Roman-30"/>
      </g>
     </g>
    </g>
    <g id="ytick_2">
     <g id="line2d_43">
      <path clip-path="url(#p1d87ef515c)" d="M 72 312.825447 
L 518.4 312.825447 
" style="fill:none;stroke:#000000;stroke-dasharray:1.000000,3.000000;stroke-dashoffset:0.0;stroke-width:0.5;"/>
     </g>
     <g id="line2d_44">
      <g>
       <use style="stroke:#000000;stroke-width:0.5;" x="72.0" xlink:href="#m8299633205" y="312.825447028"/>
      </g>
     </g>
     <g id="line2d_45">
      <g>
       <use style="stroke:#000000;stroke-width:0.5;" x="518.4" xlink:href="#m0d82053349" y="312.825447028"/>
      </g>
     </g>
     <g id="text_8">
      <!-- 5 -->
      <defs>
       <path d="M 10.796875 72.90625 
L 49.515625 72.90625 
L 49.515625 64.59375 
L 19.828125 64.59375 
L 19.828125 46.734375 
Q 21.96875 47.46875 24.109375 47.828125 
Q 26.265625 48.1875 28.421875 48.1875 
Q 40.625 48.1875 47.75 41.5 
Q 54.890625 34.8125 54.890625 23.390625 
Q 54.890625 11.625 47.5625 5.09375 
Q 40.234375 -1.421875 26.90625 -1.421875 
Q 22.3125 -1.421875 17.546875 -0.640625 
Q 12.796875 0.140625 7.71875 1.703125 
L 7.71875 11.625 
Q 12.109375 9.234375 16.796875 8.0625 
Q 21.484375 6.890625 26.703125 6.890625 
Q 35.15625 6.890625 40.078125 11.328125 
Q 45.015625 15.765625 45.015625 23.390625 
Q 45.015625 31 40.078125 35.4375 
Q 35.15625 39.890625 26.703125 39.890625 
Q 22.75 39.890625 18.8125 39.015625 
Q 14.890625 38.140625 10.796875 36.28125 
z
" id="BitstreamVeraSans-Roman-35"/>
      </defs>
      <g transform="translate(60.365 316.136697028)scale(0.12 -0.12)">
       <use xlink:href="#BitstreamVeraSans-Roman-35"/>
      </g>
     </g>
    </g>
    <g id="ytick_3">
     <g id="line2d_46">
      <path clip-path="url(#p1d87ef515c)" d="M 72 251.555152 
L 518.4 251.555152 
" style="fill:none;stroke:#000000;stroke-dasharray:1.000000,3.000000;stroke-dashoffset:0.0;stroke-width:0.5;"/>
     </g>
     <g id="line2d_47">
      <g>
       <use style="stroke:#000000;stroke-width:0.5;" x="72.0" xlink:href="#m8299633205" y="251.55515213"/>
      </g>
     </g>
     <g id="line2d_48">
      <g>
       <use style="stroke:#000000;stroke-width:0.5;" x="518.4" xlink:href="#m0d82053349" y="251.55515213"/>
      </g>
     </g>
     <g id="text_9">
      <!-- 10 -->
      <g transform="translate(52.73 254.86640213)scale(0.12 -0.12)">
       <use xlink:href="#BitstreamVeraSans-Roman-31"/>
       <use x="63.623046875" xlink:href="#BitstreamVeraSans-Roman-30"/>
      </g>
     </g>
    </g>
    <g id="ytick_4">
     <g id="line2d_49">
      <path clip-path="url(#p1d87ef515c)" d="M 72 190.284857 
L 518.4 190.284857 
" style="fill:none;stroke:#000000;stroke-dasharray:1.000000,3.000000;stroke-dashoffset:0.0;stroke-width:0.5;"/>
     </g>
     <g id="line2d_50">
      <g>
       <use style="stroke:#000000;stroke-width:0.5;" x="72.0" xlink:href="#m8299633205" y="190.284857231"/>
      </g>
     </g>
     <g id="line2d_51">
      <g>
       <use style="stroke:#000000;stroke-width:0.5;" x="518.4" xlink:href="#m0d82053349" y="190.284857231"/>
      </g>
     </g>
     <g id="text_10">
      <!-- 15 -->
      <g transform="translate(52.73 193.596107231)scale(0.12 -0.12)">
       <use xlink:href="#BitstreamVeraSans-Roman-31"/>
       <use x="63.623046875" xlink:href="#BitstreamVeraSans-Roman-35"/>
      </g>
     </g>
    </g>
    <g id="ytick_5">
     <g id="line2d_52">
      <path clip-path="url(#p1d87ef515c)" d="M 72 129.014562 
L 518.4 129.014562 
" style="fill:none;stroke:#000000;stroke-dasharray:1.000000,3.000000;stroke-dashoffset:0.0;stroke-width:0.5;"/>
     </g>
     <g id="line2d_53">
      <g>
       <use style="stroke:#000000;stroke-width:0.5;" x="72.0" xlink:href="#m8299633205" y="129.014562332"/>
      </g>
     </g>
     <g id="line2d_54">
      <g>
       <use style="stroke:#000000;stroke-width:0.5;" x="518.4" xlink:href="#m0d82053349" y="129.014562332"/>
      </g>
     </g>
     <g id="text_11">
      <!-- 20 -->
      <g transform="translate(52.73 132.325812332)scale(0.12 -0.12)">
       <use xlink:href="#BitstreamVeraSans-Roman-32"/>
       <use x="63.623046875" xlink:href="#BitstreamVeraSans-Roman-30"/>
      </g>
     </g>
    </g>
    <g id="ytick_6">
     <g id="line2d_55">
      <path clip-path="url(#p1d87ef515c)" d="M 72 67.744267 
L 518.4 67.744267 
" style="fill:none;stroke:#000000;stroke-dasharray:1.000000,3.000000;stroke-dashoffset:0.0;stroke-width:0.5;"/>
     </g>
     <g id="line2d_56">
      <g>
       <use style="stroke:#000000;stroke-width:0.5;" x="72.0" xlink:href="#m8299633205" y="67.7442674335"/>
      </g>
     </g>
     <g id="line2d_57">
      <g>
       <use style="stroke:#000000;stroke-width:0.5;" x="518.4" xlink:href="#m0d82053349" y="67.7442674335"/>
      </g>
     </g>
     <g id="text_12">
      <!-- 25 -->
      <g transform="translate(52.73 71.0555174335)scale(0.12 -0.12)">
       <use xlink:href="#BitstreamVeraSans-Roman-32"/>
       <use x="63.623046875" xlink:href="#BitstreamVeraSans-Roman-35"/>
      </g>
     </g>
    </g>
   </g>
   <g id="text_13">
    <!-- spectralnorm -->
    <defs>
     <path d="M 48.78125 52.59375 
L 48.78125 44.1875 
Q 44.96875 46.296875 41.140625 47.34375 
Q 37.3125 48.390625 33.40625 48.390625 
Q 24.65625 48.390625 19.8125 42.84375 
Q 14.984375 37.3125 14.984375 27.296875 
Q 14.984375 17.28125 19.8125 11.734375 
Q 24.65625 6.203125 33.40625 6.203125 
Q 37.3125 6.203125 41.140625 7.25 
Q 44.96875 8.296875 48.78125 10.40625 
L 48.78125 2.09375 
Q 45.015625 0.34375 40.984375 -0.53125 
Q 36.96875 -1.421875 32.421875 -1.421875 
Q 20.0625 -1.421875 12.78125 6.34375 
Q 5.515625 14.109375 5.515625 27.296875 
Q 5.515625 40.671875 12.859375 48.328125 
Q 20.21875 56 33.015625 56 
Q 37.15625 56 41.109375 55.140625 
Q 45.0625 54.296875 48.78125 52.59375 
" id="BitstreamVeraSans-Roman-63"/>
     <path d="M 44.28125 53.078125 
L 44.28125 44.578125 
Q 40.484375 46.53125 36.375 47.5 
Q 32.28125 48.484375 27.875 48.484375 
Q 21.1875 48.484375 17.84375 46.4375 
Q 14.5 44.390625 14.5 40.28125 
Q 14.5 37.15625 16.890625 35.375 
Q 19.28125 33.59375 26.515625 31.984375 
L 29.59375 31.296875 
Q 39.15625 29.25 43.1875 25.515625 
Q 47.21875 21.78125 47.21875 15.09375 
Q 47.21875 7.46875 41.1875 3.015625 
Q 35.15625 -1.421875 24.609375 -1.421875 
Q 20.21875 -1.421875 15.453125 -0.5625 
Q 10.6875 0.296875 5.421875 2 
L 5.421875 11.28125 
Q 10.40625 8.6875 15.234375 7.390625 
Q 20.0625 6.109375 24.8125 6.109375 
Q 31.15625 6.109375 34.5625 8.28125 
Q 37.984375 10.453125 37.984375 14.40625 
Q 37.984375 18.0625 35.515625 20.015625 
Q 33.0625 21.96875 24.703125 23.78125 
L 21.578125 24.515625 
Q 13.234375 26.265625 9.515625 29.90625 
Q 5.8125 33.546875 5.8125 39.890625 
Q 5.8125 47.609375 11.28125 51.796875 
Q 16.75 56 26.8125 56 
Q 31.78125 56 36.171875 55.265625 
Q 40.578125 54.546875 44.28125 53.078125 
" id="BitstreamVeraSans-Roman-73"/>
     <path d="M 18.109375 8.203125 
L 18.109375 -20.796875 
L 9.078125 -20.796875 
L 9.078125 54.6875 
L 18.109375 54.6875 
L 18.109375 46.390625 
Q 20.953125 51.265625 25.265625 53.625 
Q 29.59375 56 35.59375 56 
Q 45.5625 56 51.78125 48.09375 
Q 58.015625 40.1875 58.015625 27.296875 
Q 58.015625 14.40625 51.78125 6.484375 
Q 45.5625 -1.421875 35.59375 -1.421875 
Q 29.59375 -1.421875 25.265625 0.953125 
Q 20.953125 3.328125 18.109375 8.203125 
M 48.6875 27.296875 
Q 48.6875 37.203125 44.609375 42.84375 
Q 40.53125 48.484375 33.40625 48.484375 
Q 26.265625 48.484375 22.1875 42.84375 
Q 18.109375 37.203125 18.109375 27.296875 
Q 18.109375 17.390625 22.1875 11.75 
Q 26.265625 6.109375 33.40625 6.109375 
Q 40.53125 6.109375 44.609375 11.75 
Q 48.6875 17.390625 48.6875 27.296875 
" id="BitstreamVeraSans-Roman-70"/>
     <path d="M 56.203125 29.59375 
L 56.203125 25.203125 
L 14.890625 25.203125 
Q 15.484375 15.921875 20.484375 11.0625 
Q 25.484375 6.203125 34.421875 6.203125 
Q 39.59375 6.203125 44.453125 7.46875 
Q 49.3125 8.734375 54.109375 11.28125 
L 54.109375 2.78125 
Q 49.265625 0.734375 44.1875 -0.34375 
Q 39.109375 -1.421875 33.890625 -1.421875 
Q 20.796875 -1.421875 13.15625 6.1875 
Q 5.515625 13.8125 5.515625 26.8125 
Q 5.515625 40.234375 12.765625 48.109375 
Q 20.015625 56 32.328125 56 
Q 43.359375 56 49.78125 48.890625 
Q 56.203125 41.796875 56.203125 29.59375 
M 47.21875 32.234375 
Q 47.125 39.59375 43.09375 43.984375 
Q 39.0625 48.390625 32.421875 48.390625 
Q 24.90625 48.390625 20.390625 44.140625 
Q 15.875 39.890625 15.1875 32.171875 
z
" id="BitstreamVeraSans-Roman-65"/>
     <path d="M 54.890625 33.015625 
L 54.890625 0 
L 45.90625 0 
L 45.90625 32.71875 
Q 45.90625 40.484375 42.875 44.328125 
Q 39.84375 48.1875 33.796875 48.1875 
Q 26.515625 48.1875 22.3125 43.546875 
Q 18.109375 38.921875 18.109375 30.90625 
L 18.109375 0 
L 9.078125 0 
L 9.078125 54.6875 
L 18.109375 54.6875 
L 18.109375 46.1875 
Q 21.34375 51.125 25.703125 53.5625 
Q 30.078125 56 35.796875 56 
Q 45.21875 56 50.046875 50.171875 
Q 54.890625 44.34375 54.890625 33.015625 
" id="BitstreamVeraSans-Roman-6e"/>
     <path d="M 52 44.1875 
Q 55.375 50.25 60.0625 53.125 
Q 64.75 56 71.09375 56 
Q 79.640625 56 84.28125 50.015625 
Q 88.921875 44.046875 88.921875 33.015625 
L 88.921875 0 
L 79.890625 0 
L 79.890625 32.71875 
Q 79.890625 40.578125 77.09375 44.375 
Q 74.3125 48.1875 68.609375 48.1875 
Q 61.625 48.1875 57.5625 43.546875 
Q 53.515625 38.921875 53.515625 30.90625 
L 53.515625 0 
L 44.484375 0 
L 44.484375 32.71875 
Q 44.484375 40.625 41.703125 44.40625 
Q 38.921875 48.1875 33.109375 48.1875 
Q 26.21875 48.1875 22.15625 43.53125 
Q 18.109375 38.875 18.109375 30.90625 
L 18.109375 0 
L 9.078125 0 
L 9.078125 54.6875 
L 18.109375 54.6875 
L 18.109375 46.1875 
Q 21.1875 51.21875 25.484375 53.609375 
Q 29.78125 56 35.6875 56 
Q 41.65625 56 45.828125 52.96875 
Q 50 49.953125 52 44.1875 
" id="BitstreamVeraSans-Roman-6d"/>
     <path d="M 30.609375 48.390625 
Q 23.390625 48.390625 19.1875 42.75 
Q 14.984375 37.109375 14.984375 27.296875 
Q 14.984375 17.484375 19.15625 11.84375 
Q 23.34375 6.203125 30.609375 6.203125 
Q 37.796875 6.203125 41.984375 11.859375 
Q 46.1875 17.53125 46.1875 27.296875 
Q 46.1875 37.015625 41.984375 42.703125 
Q 37.796875 48.390625 30.609375 48.390625 
M 30.609375 56 
Q 42.328125 56 49.015625 48.375 
Q 55.71875 40.765625 55.71875 27.296875 
Q 55.71875 13.875 49.015625 6.21875 
Q 42.328125 -1.421875 30.609375 -1.421875 
Q 18.84375 -1.421875 12.171875 6.21875 
Q 5.515625 13.875 5.515625 27.296875 
Q 5.515625 40.765625 12.171875 48.375 
Q 18.84375 56 30.609375 56 
" id="BitstreamVeraSans-Roman-6f"/>
     <path d="M 34.28125 27.484375 
Q 23.390625 27.484375 19.1875 25 
Q 14.984375 22.515625 14.984375 16.5 
Q 14.984375 11.71875 18.140625 8.90625 
Q 21.296875 6.109375 26.703125 6.109375 
Q 34.1875 6.109375 38.703125 11.40625 
Q 43.21875 16.703125 43.21875 25.484375 
L 43.21875 27.484375 
z
M 52.203125 31.203125 
L 52.203125 0 
L 43.21875 0 
L 43.21875 8.296875 
Q 40.140625 3.328125 35.546875 0.953125 
Q 30.953125 -1.421875 24.3125 -1.421875 
Q 15.921875 -1.421875 10.953125 3.296875 
Q 6 8.015625 6 15.921875 
Q 6 25.140625 12.171875 29.828125 
Q 18.359375 34.515625 30.609375 34.515625 
L 43.21875 34.515625 
L 43.21875 35.40625 
Q 43.21875 41.609375 39.140625 45 
Q 35.0625 48.390625 27.6875 48.390625 
Q 23 48.390625 18.546875 47.265625 
Q 14.109375 46.140625 10.015625 43.890625 
L 10.015625 52.203125 
Q 14.9375 54.109375 19.578125 55.046875 
Q 24.21875 56 28.609375 56 
Q 40.484375 56 46.34375 49.84375 
Q 52.203125 43.703125 52.203125 31.203125 
" id="BitstreamVeraSans-Roman-61"/>
     <path d="M 9.421875 75.984375 
L 18.40625 75.984375 
L 18.40625 0 
L 9.421875 0 
z
" id="BitstreamVeraSans-Roman-6c"/>
     <path d="M 41.109375 46.296875 
Q 39.59375 47.171875 37.8125 47.578125 
Q 36.03125 48 33.890625 48 
Q 26.265625 48 22.1875 43.046875 
Q 18.109375 38.09375 18.109375 28.8125 
L 18.109375 0 
L 9.078125 0 
L 9.078125 54.6875 
L 18.109375 54.6875 
L 18.109375 46.1875 
Q 20.953125 51.171875 25.484375 53.578125 
Q 30.03125 56 36.53125 56 
Q 37.453125 56 38.578125 55.875 
Q 39.703125 55.765625 41.0625 55.515625 
z
" id="BitstreamVeraSans-Roman-72"/>
     <path d="M 18.3125 70.21875 
L 18.3125 54.6875 
L 36.8125 54.6875 
L 36.8125 47.703125 
L 18.3125 47.703125 
L 18.3125 18.015625 
Q 18.3125 11.328125 20.140625 9.421875 
Q 21.96875 7.515625 27.59375 7.515625 
L 36.8125 7.515625 
L 36.8125 0 
L 27.59375 0 
Q 17.1875 0 13.234375 3.875 
Q 9.28125 7.765625 9.28125 18.015625 
L 9.28125 47.703125 
L 2.6875 47.703125 
L 2.6875 54.6875 
L 9.28125 54.6875 
L 9.28125 70.21875 
z
" id="BitstreamVeraSans-Roman-74"/>
    </defs>
    <g transform="translate(247.35375 38.2)scale(0.144 -0.144)">
     <use xlink:href="#BitstreamVeraSans-Roman-73"/>
     <use x="52.099609375" xlink:href="#BitstreamVeraSans-Roman-70"/>
     <use x="115.576171875" xlink:href="#BitstreamVeraSans-Roman-65"/>
     <use x="177.099609375" xlink:href="#BitstreamVeraSans-Roman-63"/>
     <use x="232.080078125" xlink:href="#BitstreamVeraSans-Roman-74"/>
     <use x="271.2890625" xlink:href="#BitstreamVeraSans-Roman-72"/>
     <use x="312.40234375" xlink:href="#BitstreamVeraSans-Roman-61"/>
     <use x="373.681640625" xlink:href="#BitstreamVeraSans-Roman-6c"/>
     <use x="401.46484375" xlink:href="#BitstreamVeraSans-Roman-6e"/>
     <use x="464.84375" xlink:href="#BitstreamVeraSans-Roman-6f"/>
     <use x="526.025390625" xlink:href="#BitstreamVeraSans-Roman-72"/>
     <use x="567.123046875" xlink:href="#BitstreamVeraSans-Roman-6d"/>
    </g>
   </g>
   <g id="legend_1">
    <g id="patch_7">
     <path d="M 80 178.09625 
L 172.8125 178.09625 
L 172.8125 51.2 
L 80 51.2 
z
" style="fill:#4c4c4c;opacity:0.5;stroke:#4c4c4c;stroke-linejoin:miter;"/>
    </g>
    <g id="patch_8">
     <path d="M 78 176.09625 
L 170.8125 176.09625 
L 170.8125 49.2 
L 78 49.2 
z
" style="fill:#ffffff;stroke:#000000;stroke-linejoin:miter;"/>
    </g>
    <g id="LineCollection_8">
     <path d="M 86.4 64.918125 
L 86.4 52.918125 
" style="fill:none;stroke:#0000ff;"/>
     <path d="M 103.2 64.918125 
L 103.2 52.918125 
" style="fill:none;stroke:#0000ff;"/>
    </g>
    <g id="line2d_58">
     <g>
      <use style="fill:#0000ff;stroke:#0000ff;stroke-width:0.5;" x="86.4" xlink:href="#md8994107c4" y="64.918125"/>
      <use style="fill:#0000ff;stroke:#0000ff;stroke-width:0.5;" x="103.2" xlink:href="#md8994107c4" y="64.918125"/>
     </g>
    </g>
    <g id="line2d_59">
     <g>
      <use style="fill:#0000ff;stroke:#0000ff;stroke-width:0.5;" x="86.4" xlink:href="#md8994107c4" y="52.918125"/>
      <use style="fill:#0000ff;stroke:#0000ff;stroke-width:0.5;" x="103.2" xlink:href="#md8994107c4" y="52.918125"/>
     </g>
    </g>
    <g id="line2d_60">
     <path d="M 86.4 58.918125 
L 103.2 58.918125 
" style="fill:none;stroke:#0000ff;stroke-linecap:square;"/>
    </g>
    <g id="line2d_61"/>
    <g id="text_14">
     <!-- java -->
     <defs>
      <path d="M 2.984375 54.6875 
L 12.5 54.6875 
L 29.59375 8.796875 
L 46.6875 54.6875 
L 56.203125 54.6875 
L 35.6875 0 
L 23.484375 0 
z
" id="BitstreamVeraSans-Roman-76"/>
      <path d="M 9.421875 54.6875 
L 18.40625 54.6875 
L 18.40625 -0.984375 
Q 18.40625 -11.421875 14.421875 -16.109375 
Q 10.453125 -20.796875 1.609375 -20.796875 
L -1.8125 -20.796875 
L -1.8125 -13.1875 
L 0.59375 -13.1875 
Q 5.71875 -13.1875 7.5625 -10.8125 
Q 9.421875 -8.453125 9.421875 -0.984375 
z
M 9.421875 75.984375 
L 18.40625 75.984375 
L 18.40625 64.59375 
L 9.421875 64.59375 
z
" id="BitstreamVeraSans-Roman-6a"/>
     </defs>
     <g transform="translate(116.4 63.118125)scale(0.12 -0.12)">
      <use xlink:href="#BitstreamVeraSans-Roman-6a"/>
      <use x="27.783203125" xlink:href="#BitstreamVeraSans-Roman-61"/>
      <use x="89.0625" xlink:href="#BitstreamVeraSans-Roman-76"/>
      <use x="148.2421875" xlink:href="#BitstreamVeraSans-Roman-61"/>
     </g>
    </g>
    <g id="LineCollection_9">
     <path d="M 86.4 82.531875 
L 86.4 70.531875 
" style="fill:none;stroke:#008000;"/>
     <path d="M 103.2 82.531875 
L 103.2 70.531875 
" style="fill:none;stroke:#008000;"/>
    </g>
    <g id="line2d_62">
     <g>
      <use style="fill:#008000;stroke:#008000;stroke-width:0.5;" x="86.4" xlink:href="#mb9c3793691" y="82.531875"/>
      <use style="fill:#008000;stroke:#008000;stroke-width:0.5;" x="103.2" xlink:href="#mb9c3793691" y="82.531875"/>
     </g>
    </g>
    <g id="line2d_63">
     <g>
      <use style="fill:#008000;stroke:#008000;stroke-width:0.5;" x="86.4" xlink:href="#mb9c3793691" y="70.531875"/>
      <use style="fill:#008000;stroke:#008000;stroke-width:0.5;" x="103.2" xlink:href="#mb9c3793691" y="70.531875"/>
     </g>
    </g>
    <g id="line2d_64">
     <path d="M 86.4 76.531875 
L 103.2 76.531875 
" style="fill:none;stroke:#008000;stroke-linecap:square;"/>
    </g>
    <g id="line2d_65"/>
    <g id="text_15">
     <!-- js -->
     <g transform="translate(116.4 80.731875)scale(0.12 -0.12)">
      <use xlink:href="#BitstreamVeraSans-Roman-6a"/>
      <use x="27.783203125" xlink:href="#BitstreamVeraSans-Roman-73"/>
     </g>
    </g>
    <g id="LineCollection_10">
     <path d="M 86.4 100.145625 
L 86.4 88.145625 
" style="fill:none;stroke:#ff0000;"/>
     <path d="M 103.2 100.145625 
L 103.2 88.145625 
" style="fill:none;stroke:#ff0000;"/>
    </g>
    <g id="line2d_66">
     <g>
      <use style="fill:#ff0000;stroke:#ff0000;stroke-width:0.5;" x="86.4" xlink:href="#mf61135cbe5" y="100.145625"/>
      <use style="fill:#ff0000;stroke:#ff0000;stroke-width:0.5;" x="103.2" xlink:href="#mf61135cbe5" y="100.145625"/>
     </g>
    </g>
    <g id="line2d_67">
     <g>
      <use style="fill:#ff0000;stroke:#ff0000;stroke-width:0.5;" x="86.4" xlink:href="#mf61135cbe5" y="88.145625"/>
      <use style="fill:#ff0000;stroke:#ff0000;stroke-width:0.5;" x="103.2" xlink:href="#mf61135cbe5" y="88.145625"/>
     </g>
    </g>
    <g id="line2d_68">
     <path d="M 86.4 94.145625 
L 103.2 94.145625 
" style="fill:none;stroke:#ff0000;stroke-linecap:square;"/>
    </g>
    <g id="line2d_69"/>
    <g id="text_16">
     <!-- lua -->
     <defs>
      <path d="M 8.5 21.578125 
L 8.5 54.6875 
L 17.484375 54.6875 
L 17.484375 21.921875 
Q 17.484375 14.15625 20.5 10.265625 
Q 23.53125 6.390625 29.59375 6.390625 
Q 36.859375 6.390625 41.078125 11.03125 
Q 45.3125 15.671875 45.3125 23.6875 
L 45.3125 54.6875 
L 54.296875 54.6875 
L 54.296875 0 
L 45.3125 0 
L 45.3125 8.40625 
Q 42.046875 3.421875 37.71875 1 
Q 33.40625 -1.421875 27.6875 -1.421875 
Q 18.265625 -1.421875 13.375 4.4375 
Q 8.5 10.296875 8.5 21.578125 
" id="BitstreamVeraSans-Roman-75"/>
     </defs>
     <g transform="translate(116.4 98.345625)scale(0.12 -0.12)">
      <use xlink:href="#BitstreamVeraSans-Roman-6c"/>
      <use x="27.783203125" xlink:href="#BitstreamVeraSans-Roman-75"/>
      <use x="91.162109375" xlink:href="#BitstreamVeraSans-Roman-61"/>
     </g>
    </g>
    <g id="LineCollection_11">
     <path d="M 86.4 117.759375 
L 86.4 105.759375 
" style="fill:none;stroke:#00bfbf;"/>
     <path d="M 103.2 117.759375 
L 103.2 105.759375 
" style="fill:none;stroke:#00bfbf;"/>
    </g>
    <g id="line2d_70">
     <g>
      <use style="fill:#00bfbf;stroke:#00bfbf;stroke-width:0.5;" x="86.4" xlink:href="#md6ceb5c1b4" y="117.759375"/>
      <use style="fill:#00bfbf;stroke:#00bfbf;stroke-width:0.5;" x="103.2" xlink:href="#md6ceb5c1b4" y="117.759375"/>
     </g>
    </g>
    <g id="line2d_71">
     <g>
      <use style="fill:#00bfbf;stroke:#00bfbf;stroke-width:0.5;" x="86.4" xlink:href="#md6ceb5c1b4" y="105.759375"/>
      <use style="fill:#00bfbf;stroke:#00bfbf;stroke-width:0.5;" x="103.2" xlink:href="#md6ceb5c1b4" y="105.759375"/>
     </g>
    </g>
    <g id="line2d_72">
     <path d="M 86.4 111.759375 
L 103.2 111.759375 
" style="fill:none;stroke:#00bfbf;stroke-linecap:square;"/>
    </g>
    <g id="line2d_73"/>
    <g id="text_17">
     <!-- luajit -->
     <defs>
      <path d="M 9.421875 54.6875 
L 18.40625 54.6875 
L 18.40625 0 
L 9.421875 0 
z
M 9.421875 75.984375 
L 18.40625 75.984375 
L 18.40625 64.59375 
L 9.421875 64.59375 
z
" id="BitstreamVeraSans-Roman-69"/>
     </defs>
     <g transform="translate(116.4 115.959375)scale(0.12 -0.12)">
      <use xlink:href="#BitstreamVeraSans-Roman-6c"/>
      <use x="27.783203125" xlink:href="#BitstreamVeraSans-Roman-75"/>
      <use x="91.162109375" xlink:href="#BitstreamVeraSans-Roman-61"/>
      <use x="152.44140625" xlink:href="#BitstreamVeraSans-Roman-6a"/>
      <use x="180.224609375" xlink:href="#BitstreamVeraSans-Roman-69"/>
      <use x="208.0078125" xlink:href="#BitstreamVeraSans-Roman-74"/>
     </g>
    </g>
    <g id="LineCollection_12">
     <path d="M 86.4 135.373125 
L 86.4 123.373125 
" style="fill:none;stroke:#bf00bf;"/>
     <path d="M 103.2 135.373125 
L 103.2 123.373125 
" style="fill:none;stroke:#bf00bf;"/>
    </g>
    <g id="line2d_74">
     <g>
      <use style="fill:#bf00bf;stroke:#bf00bf;stroke-width:0.5;" x="86.4" xlink:href="#m7dbaeebe74" y="135.373125"/>
      <use style="fill:#bf00bf;stroke:#bf00bf;stroke-width:0.5;" x="103.2" xlink:href="#m7dbaeebe74" y="135.373125"/>
     </g>
    </g>
    <g id="line2d_75">
     <g>
      <use style="fill:#bf00bf;stroke:#bf00bf;stroke-width:0.5;" x="86.4" xlink:href="#m7dbaeebe74" y="123.373125"/>
      <use style="fill:#bf00bf;stroke:#bf00bf;stroke-width:0.5;" x="103.2" xlink:href="#m7dbaeebe74" y="123.373125"/>
     </g>
    </g>
    <g id="line2d_76">
     <path d="M 86.4 129.373125 
L 103.2 129.373125 
" style="fill:none;stroke:#bf00bf;stroke-linecap:square;"/>
    </g>
    <g id="line2d_77"/>
    <g id="text_18">
     <!-- php -->
     <defs>
      <path d="M 54.890625 33.015625 
L 54.890625 0 
L 45.90625 0 
L 45.90625 32.71875 
Q 45.90625 40.484375 42.875 44.328125 
Q 39.84375 48.1875 33.796875 48.1875 
Q 26.515625 48.1875 22.3125 43.546875 
Q 18.109375 38.921875 18.109375 30.90625 
L 18.109375 0 
L 9.078125 0 
L 9.078125 75.984375 
L 18.109375 75.984375 
L 18.109375 46.1875 
Q 21.34375 51.125 25.703125 53.5625 
Q 30.078125 56 35.796875 56 
Q 45.21875 56 50.046875 50.171875 
Q 54.890625 44.34375 54.890625 33.015625 
" id="BitstreamVeraSans-Roman-68"/>
     </defs>
     <g transform="translate(116.4 133.573125)scale(0.12 -0.12)">
      <use xlink:href="#BitstreamVeraSans-Roman-70"/>
      <use x="63.4765625" xlink:href="#BitstreamVeraSans-Roman-68"/>
      <use x="126.85546875" xlink:href="#BitstreamVeraSans-Roman-70"/>
     </g>
    </g>
    <g id="LineCollection_13">
     <path d="M 86.4 152.986875 
L 86.4 140.986875 
" style="fill:none;stroke:#bfbf00;"/>
     <path d="M 103.2 152.986875 
L 103.2 140.986875 
" style="fill:none;stroke:#bfbf00;"/>
    </g>
    <g id="line2d_78">
     <g>
      <use style="fill:#bfbf00;stroke:#bfbf00;stroke-width:0.5;" x="86.4" xlink:href="#m0adad8b81d" y="152.986875"/>
      <use style="fill:#bfbf00;stroke:#bfbf00;stroke-width:0.5;" x="103.2" xlink:href="#m0adad8b81d" y="152.986875"/>
     </g>
    </g>
    <g id="line2d_79">
     <g>
      <use style="fill:#bfbf00;stroke:#bfbf00;stroke-width:0.5;" x="86.4" xlink:href="#m0adad8b81d" y="140.986875"/>
      <use style="fill:#bfbf00;stroke:#bfbf00;stroke-width:0.5;" x="103.2" xlink:href="#m0adad8b81d" y="140.986875"/>
     </g>
    </g>
    <g id="line2d_80">
     <path d="M 86.4 146.986875 
L 103.2 146.986875 
" style="fill:none;stroke:#bfbf00;stroke-linecap:square;"/>
    </g>
    <g id="line2d_81"/>
    <g id="text_19">
     <!-- pypy3 -->
     <defs>
      <path d="M 32.171875 -5.078125 
Q 28.375 -14.84375 24.75 -17.8125 
Q 21.140625 -20.796875 15.09375 -20.796875 
L 7.90625 -20.796875 
L 7.90625 -13.28125 
L 13.1875 -13.28125 
Q 16.890625 -13.28125 18.9375 -11.515625 
Q 21 -9.765625 23.484375 -3.21875 
L 25.09375 0.875 
L 2.984375 54.6875 
L 12.5 54.6875 
L 29.59375 11.921875 
L 46.6875 54.6875 
L 56.203125 54.6875 
z
" id="BitstreamVeraSans-Roman-79"/>
      <path d="M 40.578125 39.3125 
Q 47.65625 37.796875 51.625 33 
Q 55.609375 28.21875 55.609375 21.1875 
Q 55.609375 10.40625 48.1875 4.484375 
Q 40.765625 -1.421875 27.09375 -1.421875 
Q 22.515625 -1.421875 17.65625 -0.515625 
Q 12.796875 0.390625 7.625 2.203125 
L 7.625 11.71875 
Q 11.71875 9.328125 16.59375 8.109375 
Q 21.484375 6.890625 26.8125 6.890625 
Q 36.078125 6.890625 40.9375 10.546875 
Q 45.796875 14.203125 45.796875 21.1875 
Q 45.796875 27.640625 41.28125 31.265625 
Q 36.765625 34.90625 28.71875 34.90625 
L 20.21875 34.90625 
L 20.21875 43.015625 
L 29.109375 43.015625 
Q 36.375 43.015625 40.234375 45.921875 
Q 44.09375 48.828125 44.09375 54.296875 
Q 44.09375 59.90625 40.109375 62.90625 
Q 36.140625 65.921875 28.71875 65.921875 
Q 24.65625 65.921875 20.015625 65.03125 
Q 15.375 64.15625 9.8125 62.3125 
L 9.8125 71.09375 
Q 15.4375 72.65625 20.34375 73.4375 
Q 25.25 74.21875 29.59375 74.21875 
Q 40.828125 74.21875 47.359375 69.109375 
Q 53.90625 64.015625 53.90625 55.328125 
Q 53.90625 49.265625 50.4375 45.09375 
Q 46.96875 40.921875 40.578125 39.3125 
" id="BitstreamVeraSans-Roman-33"/>
     </defs>
     <g transform="translate(116.4 151.186875)scale(0.12 -0.12)">
      <use xlink:href="#BitstreamVeraSans-Roman-70"/>
      <use x="63.4765625" xlink:href="#BitstreamVeraSans-Roman-79"/>
      <use x="122.65625" xlink:href="#BitstreamVeraSans-Roman-70"/>
      <use x="186.1328125" xlink:href="#BitstreamVeraSans-Roman-79"/>
      <use x="245.3125" xlink:href="#BitstreamVeraSans-Roman-33"/>
     </g>
    </g>
    <g id="LineCollection_14">
     <path d="M 86.4 170.600625 
L 86.4 158.600625 
" style="fill:none;stroke:#000000;"/>
     <path d="M 103.2 170.600625 
L 103.2 158.600625 
" style="fill:none;stroke:#000000;"/>
    </g>
    <g id="line2d_82">
     <g>
      <use style="stroke:#000000;stroke-width:0.5;" x="86.4" xlink:href="#mc8b8eb2170" y="170.600625"/>
      <use style="stroke:#000000;stroke-width:0.5;" x="103.2" xlink:href="#mc8b8eb2170" y="170.600625"/>
     </g>
    </g>
    <g id="line2d_83">
     <g>
      <use style="stroke:#000000;stroke-width:0.5;" x="86.4" xlink:href="#mc8b8eb2170" y="158.600625"/>
      <use style="stroke:#000000;stroke-width:0.5;" x="103.2" xlink:href="#mc8b8eb2170" y="158.600625"/>
     </g>
    </g>
    <g id="line2d_84">
     <path d="M 86.4 164.600625 
L 103.2 164.600625 
" style="fill:none;stroke:#000000;stroke-linecap:square;"/>
    </g>
    <g id="line2d_85"/>
    <g id="text_20">
     <!-- python3 -->
     <g transform="translate(116.4 168.800625)scale(0.12 -0.12)">
      <use xlink:href="#BitstreamVeraSans-Roman-70"/>
      <use x="63.4765625" xlink:href="#BitstreamVeraSans-Roman-79"/>
      <use x="122.65625" xlink:href="#BitstreamVeraSans-Roman-74"/>
      <use x="161.865234375" xlink:href="#BitstreamVeraSans-Roman-68"/>
      <use x="225.244140625" xlink:href="#BitstreamVeraSans-Roman-6f"/>
      <use x="286.42578125" xlink:href="#BitstreamVeraSans-Roman-6e"/>
      <use x="349.8046875" xlink:href="#BitstreamVeraSans-Roman-33"/>
     </g>
    </g>
   </g>
  </g>
 </g>
 <defs>
  <clipPath id="p1d87ef515c">
   <rect height="345.6" width="446.4" x="72.0" y="43.2"/>
  </clipPath>
 </defs>
</svg>
